<svg width="700" height="300" viewBox="0 0 700 300" fill="none" xmlns="http://www.w3.org/2000/svg">
<g clip-path="url(#clip0)">
<rect width="700" height="300" rx="12" fill="url(#paint0_linear)"/>
<path d="M425.589 54.0713L402.442 100.753H407.115V138.82H383.566L370 166.179L538.097 255.291L593.686 143.182L425.589 54.0713Z" fill="url(#paint1_linear)"/>
<path d="M403.609 106.191H375.558V135.194H403.609V106.191Z" fill="#3F3D56"/>
<path d="M495.965 131.569H496.088V129.756H495.881L495.76 127.178C495.747 126.892 495.624 126.622 495.418 126.429C495.213 126.236 494.942 126.136 494.664 126.15L485.32 126.617C485.183 126.624 485.048 126.658 484.924 126.719C484.8 126.78 484.688 126.865 484.596 126.97C484.504 127.075 484.432 127.198 484.386 127.332C484.339 127.466 484.319 127.608 484.326 127.75L485.255 147.621C485.268 147.908 485.391 148.177 485.597 148.37C485.802 148.563 486.073 148.663 486.35 148.649L495.695 148.182C495.832 148.175 495.966 148.141 496.091 148.08C496.215 148.019 496.326 147.934 496.419 147.829C496.511 147.724 496.583 147.601 496.629 147.467C496.675 147.333 496.696 147.191 496.689 147.049L495.965 131.569Z" fill="#2F2E41"/>
<path d="M490.649 136.926C491.912 136.863 492.89 135.839 492.834 134.639C492.778 133.44 491.709 132.518 490.446 132.581C489.183 132.645 488.204 133.668 488.261 134.868C488.317 136.068 489.386 136.989 490.649 136.926Z" fill="#0CB9E4"/>
<path d="M539.478 262.538C584.501 262.538 621 259.088 621 254.834C621 250.579 584.501 247.13 539.478 247.13C494.455 247.13 457.956 250.579 457.956 254.834C457.956 259.088 494.455 262.538 539.478 262.538Z" fill="#3F3D56"/>
<path d="M469.096 241.846C471.156 249.72 478.212 254.596 478.212 254.596C478.212 254.596 481.928 246.707 479.868 238.833C477.808 230.96 470.752 226.084 470.752 226.084C470.752 226.084 467.036 233.973 469.096 241.846Z" fill="#3F3D56"/>
<path d="M472.123 240.154C477.775 245.844 478.466 254.59 478.466 254.59C478.466 254.59 469.992 254.111 464.339 248.422C458.687 242.732 457.996 233.987 457.996 233.987C457.996 233.987 466.47 234.465 472.123 240.154Z" fill="#0CB9E4"/>
<path d="M525.342 55.1191C525.342 55.1191 525.948 57.2103 522.51 59.0923C519.072 60.9743 518.061 68.0842 522.106 70.1753C526.151 72.2664 527.364 74.9849 525.342 76.8669C523.319 78.7489 519.679 83.7676 524.533 85.0223C529.387 86.277 529.993 88.7864 528.578 89.8319C527.162 90.8775 531.814 87.9499 531.814 87.9499C531.814 87.9499 532.623 92.9686 536.87 91.7139C541.117 90.4593 553.049 66.6203 546.982 63.2745C540.914 59.9287 525.342 55.1191 525.342 55.1191Z" fill="#2F2E41"/>
<path d="M541.012 232.401L539.697 245.09L545.395 248.716L550.655 247.809L548.025 232.401H541.012Z" fill="#9F616A"/>
<path d="M536.629 80.133C543.407 80.133 548.901 74.4519 548.901 67.444C548.901 60.436 543.407 54.755 536.629 54.755C529.852 54.755 524.357 60.436 524.357 67.444C524.357 74.4519 529.852 80.133 536.629 80.133Z" fill="#9F616A"/>
<path d="M532.466 73.5619C532.466 73.5619 531.37 92.822 530.055 92.822C528.74 92.822 545.395 91.9157 545.395 91.9157C545.395 91.9157 538.382 79.2267 541.889 75.1481C545.395 71.0695 532.466 73.5619 532.466 73.5619Z" fill="#9F616A"/>
<path d="M550.655 175.301L544.957 197.96L549.34 236.48L539.259 235.573L535.314 175.301H550.655Z" fill="#2F2E41"/>
<path opacity="0.2" d="M550.655 175.301L544.957 197.96L549.34 236.48L539.259 235.573L535.314 175.301H550.655Z" fill="black"/>
<path d="M541.889 242.824C541.889 242.824 541.451 240.105 537.068 242.824C532.685 245.543 514.277 254.154 523.919 255.966C533.561 257.779 553.284 253.701 553.284 252.341C553.284 250.981 553.723 242.371 551.969 243.277C550.216 244.184 544.519 250.075 541.889 242.824Z" fill="#2F2E41"/>
<path d="M547.587 239.652C547.587 239.652 554.599 250.981 555.037 254.154C555.476 257.326 562.05 246.903 562.05 246.903L555.914 235.12L547.587 239.652Z" fill="#9F616A"/>
<path d="M524.357 177.113L532.246 204.304C532.246 204.304 546.272 242.824 547.148 242.371C548.025 241.918 558.544 239.199 558.982 237.839C559.42 236.48 545.833 199.772 545.833 199.772L544.08 176.207L524.357 177.113Z" fill="#2F2E41"/>
<path d="M563.365 245.09C562.168 245.005 560.976 245.309 559.954 245.959C558.933 246.609 558.133 247.573 557.667 248.716C555.914 252.794 553.723 253.247 553.284 253.701C552.846 254.154 554.599 263.67 553.284 264.577C551.969 265.483 550.655 275 555.037 275C559.42 275 566.433 270.015 565.995 269.109C565.556 268.202 565.556 261.858 566.871 259.139C568.186 256.42 570.378 251.888 566.871 249.169C563.365 246.45 563.365 245.09 563.365 245.09Z" fill="#2F2E41"/>
<path d="M521.728 134.968L520.851 143.125C520.851 143.125 514.277 149.923 512.085 158.08C509.894 166.237 491.924 179.832 497.183 181.645C502.443 183.458 508.579 184.364 523.919 181.645C539.259 178.926 563.365 184.817 563.365 169.862C563.365 169.862 566.433 165.784 568.624 171.675C570.168 175.699 571.924 179.633 573.884 183.458C573.884 183.458 579.143 173.941 577.39 169.862C575.637 165.784 577.39 166.237 575.199 161.705C573.007 157.173 562.05 140.406 557.667 139.499C553.284 138.593 544.957 126.81 545.395 125.451C545.833 124.091 521.728 134.968 521.728 134.968Z" fill="#0CB9E4"/>
<path d="M545.395 84.2116C545.395 84.2116 527.425 88.2902 526.549 91.0093C526.056 92.5388 523.76 95.3588 521.845 97.5335C518.613 101.15 516.464 105.659 515.659 110.512C515.202 113.403 517.124 116.003 518.002 119.333C520.632 129.303 522.604 126.81 519.974 134.061C517.345 141.312 533.123 144.031 539.259 140.859C545.395 137.687 552.189 118.88 552.189 116.614C552.189 114.348 558.106 88.7434 553.284 86.9307C548.463 85.118 545.395 84.2116 545.395 84.2116Z" fill="#575A88"/>
<path d="M520.413 105.964L515.153 129.983L497.841 137.913C497.841 137.913 484.692 134.741 484.254 139.726C483.968 142.981 499.156 144.258 499.156 144.258L524.357 134.061L530.055 111.856L520.413 105.964Z" fill="#9F616A"/>
<path d="M526.549 96.9006C526.549 96.9006 515.591 103.698 518.221 107.324C520.851 110.949 527.425 116.841 529.178 116.841C530.932 116.841 532.246 105.964 532.246 102.792C532.246 99.6197 526.549 96.9006 526.549 96.9006Z" fill="#575A88"/>
<path d="M537.512 50.9667C537.512 50.9667 538.184 53.2832 534.376 55.3681C530.567 57.453 529.447 65.3293 533.928 67.6459C538.408 69.9624 539.753 72.974 537.512 75.0589C535.272 77.1438 531.239 82.7035 536.616 84.0934C541.993 85.4834 542.665 88.2632 541.097 89.4215C539.529 90.5798 544.682 87.3366 544.682 87.3366C544.682 87.3366 545.578 92.8963 550.283 91.5064C554.988 90.1165 559.682 64.8507 554.437 58.3433C549.561 52.2926 537.512 50.9667 537.512 50.9667Z" fill="#2F2E41"/>
<path d="M536.081 48.5822C536.082 45.1884 545.902 47.627 550.113 52.3656C553.028 55.6471 557.456 60.5838 553.746 64.0638C550.035 67.5437 560.106 72.1056 562.808 73.4887C565.509 74.8718 570.842 79.1014 566.026 81.9388C561.211 84.7763 561.288 87.6406 563.101 88.3188C564.913 88.9969 559.105 87.3104 559.105 87.3104C559.105 87.3104 559.692 92.9141 554.799 92.8873C549.906 92.8604 535.868 65.0556 539.221 57.3271C542.339 50.141 536.081 48.5822 536.081 48.5822Z" fill="#2F2E41"/>
<path d="M538.208 47.8384C525.076 47.0208 523.758 57.2416 523.758 57.2416C523.849 63.1564 532.933 60.2744 535.456 61.1561C538.5 58.892 544.368 54.608 548.564 51.5507C545.518 49.3327 541.929 48.0462 538.208 47.8384Z" fill="#2F2E41"/>
<path d="M481.391 105.685L480.13 105.258C475.628 103.688 472.67 102.686 471.616 100.23C471.408 99.7668 471.292 99.2647 471.274 98.7538C471.257 98.243 471.339 97.7337 471.515 97.2562C471.692 96.7786 471.959 96.3425 472.301 95.9737C472.643 95.6049 473.054 95.3108 473.508 95.1088C474.043 94.8672 474.622 94.7487 475.205 94.7616C475.788 94.7745 476.362 94.9185 476.886 95.1836C477.047 94.604 477.329 94.0677 477.711 93.6119C478.093 93.1561 478.567 92.7918 479.099 92.5442C479.548 92.3316 480.035 92.2143 480.529 92.1995C481.023 92.1846 481.515 92.2724 481.976 92.4577C482.437 92.6429 482.857 92.9219 483.211 93.2781C483.566 93.6342 483.848 94.0603 484.041 94.5311C485.094 96.9866 483.828 99.9266 481.932 104.431L481.391 105.685Z" fill="#FF6584"/>
<path d="M493.289 115.121L492.431 114.83C489.366 113.762 487.353 113.08 486.636 111.408C486.494 111.093 486.415 110.751 486.403 110.403C486.391 110.055 486.447 109.709 486.567 109.384C486.687 109.059 486.869 108.762 487.102 108.511C487.335 108.26 487.614 108.06 487.923 107.922C488.287 107.758 488.681 107.677 489.078 107.686C489.475 107.695 489.866 107.793 490.223 107.973C490.333 107.578 490.524 107.213 490.784 106.903C491.045 106.593 491.367 106.345 491.729 106.176C492.035 106.032 492.366 105.952 492.702 105.942C493.039 105.932 493.374 105.991 493.687 106.118C494.001 106.244 494.287 106.433 494.528 106.676C494.77 106.918 494.962 107.208 495.093 107.529C495.81 109.2 494.948 111.202 493.657 114.268L493.289 115.121Z" fill="#FF6584"/>
<path d="M485.792 73.9106L484.978 73.1309C482.086 70.3134 480.176 68.4842 480.204 66.2378C480.202 65.8103 480.283 65.3867 480.442 64.9921C480.601 64.5976 480.836 64.2401 481.131 63.9408C481.426 63.6414 481.776 63.4064 482.161 63.2496C482.546 63.0928 482.957 63.0173 483.37 63.0277C483.858 63.0369 484.338 63.1558 484.777 63.3761C485.216 63.5964 485.603 63.9128 485.912 64.3034C486.231 63.9212 486.626 63.6151 487.07 63.4066C487.514 63.1981 487.997 63.0921 488.485 63.0959C488.899 63.0965 489.308 63.1829 489.688 63.3499C490.069 63.5169 490.413 63.7612 490.701 64.0683C490.989 64.3753 491.214 64.739 491.363 65.1376C491.513 65.5363 491.583 65.9619 491.57 66.3892C491.542 68.6357 489.588 70.4134 486.626 73.1529L485.792 73.9106Z" fill="#FF6584"/>
<path d="M591.117 236.591H574.964V255.246H591.117V236.591Z" fill="#2F2E41"/>
<path d="M595.414 225.173L603.81 240.209L612.206 255.246H595.414H578.622L587.018 240.209L595.414 225.173Z" fill="#3F3D56"/>
<path d="M93.2656 148V116.76H113.77V119.488H96.3456V130.972H111.042V133.524H96.3456V148H93.2656ZM118.56 120.28V115.88H121.552V120.28H118.56ZM118.56 148V125.076H121.552V148H118.56ZM139.582 127.716C137.587 127.775 135.827 128.332 134.302 129.388C132.806 130.444 131.75 131.896 131.134 133.744V148H128.142V125.076H130.958V130.576C131.75 128.963 132.791 127.657 134.082 126.66C135.402 125.663 136.795 125.105 138.262 124.988C138.555 124.959 138.804 124.944 139.01 124.944C139.215 124.944 139.406 124.959 139.582 124.988V127.716ZM152.78 148.44C150.58 148.44 148.615 147.897 146.884 146.812C145.153 145.727 143.789 144.275 142.792 142.456C141.795 140.637 141.296 138.643 141.296 136.472C141.296 134.331 141.78 132.365 142.748 130.576C143.745 128.787 145.109 127.364 146.84 126.308C148.571 125.223 150.536 124.68 152.736 124.68C154.995 124.68 156.975 125.223 158.676 126.308C160.377 127.393 161.697 128.831 162.636 130.62C163.604 132.38 164.088 134.316 164.088 136.428C164.088 136.897 164.073 137.293 164.044 137.616H144.42C144.567 139.259 145.036 140.725 145.828 142.016C146.62 143.277 147.632 144.289 148.864 145.052C150.096 145.785 151.445 146.152 152.912 146.152C154.408 146.152 155.816 145.771 157.136 145.008C158.456 144.245 159.395 143.248 159.952 142.016L162.548 142.72C162.079 143.835 161.345 144.832 160.348 145.712C159.38 146.563 158.251 147.237 156.96 147.736C155.669 148.205 154.276 148.44 152.78 148.44ZM144.332 135.46H161.272C161.155 133.817 160.7 132.365 159.908 131.104C159.116 129.813 158.104 128.816 156.872 128.112C155.64 127.379 154.276 127.012 152.78 127.012C151.284 127.012 149.92 127.379 148.688 128.112C147.456 128.816 146.444 129.813 145.652 131.104C144.889 132.365 144.449 133.817 144.332 135.46ZM181.86 148.22C179.748 148.22 177.798 147.78 176.008 146.9C174.248 145.991 172.708 144.773 171.388 143.248C170.068 141.723 169.042 140.021 168.308 138.144C167.604 136.237 167.252 134.301 167.252 132.336C167.252 130.253 167.604 128.273 168.308 126.396C169.042 124.489 170.054 122.803 171.344 121.336C172.635 119.84 174.16 118.667 175.92 117.816C177.68 116.965 179.602 116.54 181.684 116.54C184.764 116.54 187.272 117.171 189.208 118.432C191.144 119.693 192.611 121.336 193.608 123.36L191.232 124.944C190.235 123.008 188.9 121.585 187.228 120.676C185.556 119.767 183.694 119.312 181.64 119.312C179.91 119.312 178.34 119.679 176.932 120.412C175.554 121.145 174.366 122.128 173.368 123.36C172.4 124.592 171.652 125.985 171.124 127.54C170.596 129.095 170.332 130.708 170.332 132.38C170.332 134.14 170.626 135.812 171.212 137.396C171.799 138.951 172.62 140.344 173.676 141.576C174.762 142.779 176.008 143.732 177.416 144.436C178.854 145.111 180.408 145.448 182.08 145.448C183.87 145.448 185.571 145.023 187.184 144.172C188.827 143.321 190.396 142.001 191.892 140.212V135.02H184.94V132.644H194.488V148H191.892V143.424C189.018 146.621 185.674 148.22 181.86 148.22ZM211.64 127.716C209.646 127.775 207.886 128.332 206.36 129.388C204.864 130.444 203.808 131.896 203.192 133.744V148H200.2V125.076H203.016V130.576C203.808 128.963 204.85 127.657 206.14 126.66C207.46 125.663 208.854 125.105 210.32 124.988C210.614 124.959 210.863 124.944 211.068 124.944C211.274 124.944 211.464 124.959 211.64 124.988V127.716ZM213.692 141.4C213.692 139.992 214.103 138.775 214.924 137.748C215.746 136.692 216.875 135.871 218.312 135.284C219.779 134.697 221.466 134.404 223.372 134.404C224.487 134.404 225.646 134.507 226.848 134.712C228.051 134.888 229.122 135.137 230.06 135.46V133.524C230.06 131.588 229.488 130.048 228.344 128.904C227.2 127.76 225.616 127.188 223.592 127.188C222.39 127.188 221.187 127.423 219.984 127.892C218.782 128.332 217.535 128.992 216.244 129.872L215.1 127.76C216.596 126.733 218.063 125.971 219.5 125.472C220.938 124.944 222.404 124.68 223.9 124.68C226.716 124.68 228.946 125.487 230.588 127.1C232.231 128.713 233.052 130.943 233.052 133.788V144.392C233.052 145.184 233.419 145.595 234.152 145.624V148C233.507 148.088 233.052 148.117 232.788 148.088C232.055 148.059 231.498 147.824 231.116 147.384C230.735 146.944 230.53 146.475 230.5 145.976L230.456 144.304C229.43 145.624 228.095 146.651 226.452 147.384C224.81 148.088 223.138 148.44 221.436 148.44C219.94 148.44 218.606 148.132 217.432 147.516C216.259 146.871 215.335 146.02 214.66 144.964C214.015 143.879 213.692 142.691 213.692 141.4ZM229.048 143.16C229.723 142.368 230.06 141.635 230.06 140.96V137.616C228.036 136.824 225.924 136.428 223.724 136.428C221.583 136.428 219.852 136.853 218.532 137.704C217.212 138.555 216.552 139.713 216.552 141.18C216.552 142.441 217.036 143.585 218.004 144.612C219.002 145.639 220.38 146.152 222.14 146.152C223.578 146.152 224.912 145.873 226.144 145.316C227.406 144.759 228.374 144.04 229.048 143.16ZM273.617 148H270.625V135.196C270.625 132.556 270.199 130.605 269.349 129.344C268.498 128.053 267.237 127.408 265.565 127.408C263.805 127.408 262.25 128.024 260.901 129.256C259.551 130.488 258.598 132.072 258.041 134.008V148H255.049V135.196C255.049 132.497 254.623 130.532 253.773 129.3C252.951 128.039 251.705 127.408 250.033 127.408C248.302 127.408 246.747 128.009 245.369 129.212C244.019 130.415 243.066 131.999 242.509 133.964V148H239.517V125.076H242.245V130.268C243.183 128.508 244.415 127.144 245.941 126.176C247.466 125.179 249.153 124.68 251.001 124.68C252.907 124.68 254.447 125.237 255.621 126.352C256.794 127.437 257.513 128.845 257.777 130.576C259.889 126.645 262.837 124.68 266.621 124.68C269.202 124.68 271.006 125.589 272.033 127.408C273.089 129.197 273.617 131.588 273.617 134.58V148Z" fill="black"/>
<path d="M93.2656 148H91.2656V150H93.2656V148ZM93.2656 116.76V114.76H91.2656V116.76H93.2656ZM113.77 116.76H115.77V114.76H113.77V116.76ZM113.77 119.488V121.488H115.77V119.488H113.77ZM96.3456 119.488V117.488H94.3456V119.488H96.3456ZM96.3456 130.972H94.3456V132.972H96.3456V130.972ZM111.042 130.972H113.042V128.972H111.042V130.972ZM111.042 133.524V135.524H113.042V133.524H111.042ZM96.3456 133.524V131.524H94.3456V133.524H96.3456ZM96.3456 148V150H98.3456V148H96.3456ZM95.2656 148V116.76H91.2656V148H95.2656ZM93.2656 118.76H113.77V114.76H93.2656V118.76ZM111.77 116.76V119.488H115.77V116.76H111.77ZM113.77 117.488H96.3456V121.488H113.77V117.488ZM94.3456 119.488V130.972H98.3456V119.488H94.3456ZM96.3456 132.972H111.042V128.972H96.3456V132.972ZM109.042 130.972V133.524H113.042V130.972H109.042ZM111.042 131.524H96.3456V135.524H111.042V131.524ZM94.3456 133.524V148H98.3456V133.524H94.3456ZM96.3456 146H93.2656V150H96.3456V146ZM118.56 120.28H116.56V122.28H118.56V120.28ZM118.56 115.88V113.88H116.56V115.88H118.56ZM121.552 115.88H123.552V113.88H121.552V115.88ZM121.552 120.28V122.28H123.552V120.28H121.552ZM118.56 148H116.56V150H118.56V148ZM118.56 125.076V123.076H116.56V125.076H118.56ZM121.552 125.076H123.552V123.076H121.552V125.076ZM121.552 148V150H123.552V148H121.552ZM120.56 120.28V115.88H116.56V120.28H120.56ZM118.56 117.88H121.552V113.88H118.56V117.88ZM119.552 115.88V120.28H123.552V115.88H119.552ZM121.552 118.28H118.56V122.28H121.552V118.28ZM120.56 148V125.076H116.56V148H120.56ZM118.56 127.076H121.552V123.076H118.56V127.076ZM119.552 125.076V148H123.552V125.076H119.552ZM121.552 146H118.56V150H121.552V146ZM139.582 127.716L139.641 129.715L141.582 129.658V127.716H139.582ZM134.302 129.388L133.163 127.744L133.156 127.749L133.148 127.754L134.302 129.388ZM131.134 133.744L129.236 133.112L129.134 133.419V133.744H131.134ZM131.134 148V150H133.134V148H131.134ZM128.142 148H126.142V150H128.142V148ZM128.142 125.076V123.076H126.142V125.076H128.142ZM130.958 125.076H132.958V123.076H130.958V125.076ZM130.958 130.576H128.958L132.753 131.457L130.958 130.576ZM134.082 126.66L132.876 125.064L132.867 125.071L132.859 125.077L134.082 126.66ZM138.262 124.988L138.421 126.982L138.441 126.98L138.461 126.978L138.262 124.988ZM139.582 124.988H141.582V123.294L139.911 123.015L139.582 124.988ZM139.523 125.717C137.172 125.786 135.031 126.451 133.163 127.744L135.44 131.032C136.623 130.213 138.002 129.763 139.641 129.715L139.523 125.717ZM133.148 127.754C131.281 129.072 129.978 130.886 129.236 133.112L133.031 134.376C133.521 132.906 134.331 131.816 135.455 131.022L133.148 127.754ZM129.134 133.744V148H133.134V133.744H129.134ZM131.134 146H128.142V150H131.134V146ZM130.142 148V125.076H126.142V148H130.142ZM128.142 127.076H130.958V123.076H128.142V127.076ZM128.958 125.076V130.576H132.958V125.076H128.958ZM132.753 131.457C133.424 130.09 134.28 129.035 135.305 128.243L132.859 125.077C131.303 126.28 130.075 127.835 129.162 129.695L132.753 131.457ZM135.287 128.256C136.343 127.458 137.38 127.065 138.421 126.982L138.102 122.994C136.21 123.146 134.461 123.867 132.876 125.064L135.287 128.256ZM138.461 126.978C138.714 126.953 138.893 126.944 139.01 126.944V122.944C138.716 122.944 138.396 122.965 138.063 122.998L138.461 126.978ZM139.01 126.944C139.121 126.944 139.2 126.952 139.253 126.961L139.911 123.015C139.611 122.965 139.309 122.944 139.01 122.944V126.944ZM137.582 124.988V127.716H141.582V124.988H137.582ZM146.884 146.812L145.822 148.506L146.884 146.812ZM142.792 142.456L141.038 143.418L142.792 142.456ZM142.748 130.576L141.001 129.602L140.995 129.613L140.989 129.624L142.748 130.576ZM146.84 126.308L147.882 128.015L147.892 128.009L147.903 128.002L146.84 126.308ZM162.636 130.62L160.865 131.549L160.874 131.567L160.884 131.584L162.636 130.62ZM164.044 137.616V139.616H165.871L166.036 137.797L164.044 137.616ZM144.42 137.616V135.616H142.234L142.428 137.794L144.42 137.616ZM145.828 142.016L144.123 143.062L144.129 143.071L144.134 143.08L145.828 142.016ZM148.864 145.052L147.811 146.753L147.826 146.762L147.841 146.771L148.864 145.052ZM157.136 145.008L156.136 143.276L157.136 145.008ZM159.952 142.016L160.476 140.086L158.832 139.64L158.13 141.192L159.952 142.016ZM162.548 142.72L164.391 143.496L165.279 141.388L163.072 140.79L162.548 142.72ZM160.348 145.712L161.668 147.214L161.671 147.212L160.348 145.712ZM156.96 147.736L157.644 149.616L157.662 149.609L157.681 149.602L156.96 147.736ZM144.332 135.46L142.337 135.318L142.184 137.46H144.332V135.46ZM161.272 135.46V137.46H163.42L163.267 135.318L161.272 135.46ZM159.908 131.104L158.203 132.15L158.209 132.159L158.214 132.168L159.908 131.104ZM156.872 128.112L155.849 129.831L155.864 129.84L155.88 129.848L156.872 128.112ZM148.688 128.112L149.68 129.848L149.696 129.84L149.711 129.831L148.688 128.112ZM145.652 131.104L143.947 130.058L143.941 130.069L145.652 131.104ZM152.78 146.44C150.926 146.44 149.334 145.988 147.947 145.118L145.822 148.506C147.895 149.807 150.234 150.44 152.78 150.44V146.44ZM147.947 145.118C146.51 144.216 145.382 143.019 144.546 141.494L141.038 143.418C142.197 145.531 143.797 147.237 145.822 148.506L147.947 145.118ZM144.546 141.494C143.718 139.984 143.296 138.323 143.296 136.472H139.296C139.296 138.963 139.872 141.29 141.038 143.418L144.546 141.494ZM143.296 136.472C143.296 134.645 143.706 133.009 144.507 131.528L140.989 129.624C139.854 131.721 139.296 134.016 139.296 136.472H143.296ZM144.495 131.55C145.326 130.058 146.449 128.89 147.882 128.015L145.798 124.601C143.77 125.838 142.165 127.515 141.001 129.602L144.495 131.55ZM147.903 128.002C149.29 127.132 150.882 126.68 152.736 126.68V122.68C150.19 122.68 147.851 123.313 145.778 124.614L147.903 128.002ZM152.736 126.68C154.661 126.68 156.258 127.138 157.6 127.994L159.752 124.622C157.692 123.308 155.329 122.68 152.736 122.68V126.68ZM157.6 127.994C159.008 128.892 160.088 130.068 160.865 131.549L164.407 129.691C163.307 127.593 161.747 125.895 159.752 124.622L157.6 127.994ZM160.884 131.584C161.681 133.033 162.088 134.635 162.088 136.428H166.088C166.088 133.997 165.527 131.727 164.389 129.656L160.884 131.584ZM162.088 136.428C162.088 136.861 162.074 137.193 162.052 137.435L166.036 137.797C166.072 137.394 166.088 136.934 166.088 136.428H162.088ZM164.044 135.616H144.42V139.616H164.044V135.616ZM142.428 137.794C142.6 139.716 143.156 141.485 144.123 143.062L147.533 140.97C146.916 139.965 146.534 138.801 146.412 137.438L142.428 137.794ZM144.134 143.08C145.084 144.592 146.313 145.825 147.811 146.753L149.917 143.351C148.952 142.754 148.156 141.963 147.522 140.952L144.134 143.08ZM147.841 146.771C149.39 147.693 151.094 148.152 152.912 148.152V144.152C151.797 144.152 150.802 143.878 149.887 143.333L147.841 146.771ZM152.912 148.152C154.766 148.152 156.519 147.675 158.137 146.74L156.136 143.276C155.114 143.867 154.05 144.152 152.912 144.152V148.152ZM158.137 146.74C159.771 145.796 161.023 144.501 161.774 142.84L158.13 141.192C157.766 141.995 157.142 142.695 156.136 143.276L158.137 146.74ZM159.429 143.946L162.025 144.65L163.072 140.79L160.476 140.086L159.429 143.946ZM160.705 141.944C160.363 142.755 159.819 143.511 159.025 144.212L161.671 147.212C162.871 146.153 163.794 144.915 164.391 143.496L160.705 141.944ZM159.028 144.21C158.249 144.894 157.327 145.45 156.239 145.87L157.681 149.602C159.175 149.024 160.511 148.232 161.668 147.214L159.028 144.21ZM156.277 145.856C155.224 146.239 154.064 146.44 152.78 146.44V150.44C154.488 150.44 156.115 150.171 157.644 149.616L156.277 145.856ZM144.332 137.46H161.272V133.46H144.332V137.46ZM163.267 135.318C163.129 133.383 162.586 131.608 161.602 130.04L158.214 132.168C158.814 133.123 159.181 134.252 159.277 135.602L163.267 135.318ZM161.613 130.058C160.657 128.501 159.408 127.257 157.864 126.376L155.88 129.848C156.801 130.375 157.575 131.126 158.203 132.15L161.613 130.058ZM157.895 126.393C156.34 125.468 154.62 125.012 152.78 125.012V129.012C153.932 129.012 154.94 129.29 155.849 129.831L157.895 126.393ZM152.78 125.012C150.94 125.012 149.22 125.468 147.665 126.393L149.711 129.831C150.62 129.29 151.628 129.012 152.78 129.012V125.012ZM147.696 126.376C146.153 127.257 144.903 128.501 143.947 130.058L147.357 132.15C147.985 131.126 148.76 130.375 149.68 129.848L147.696 126.376ZM143.941 130.069C142.996 131.632 142.474 133.397 142.337 135.318L146.327 135.602C146.424 134.238 146.783 133.099 147.364 132.139L143.941 130.069ZM176.008 146.9L175.09 148.677L175.108 148.686L175.126 148.695L176.008 146.9ZM171.388 143.248L169.876 144.557L169.876 144.557L171.388 143.248ZM168.308 138.144L166.432 138.837L166.439 138.854L166.445 138.872L168.308 138.144ZM168.308 126.396L166.442 125.678L166.439 125.686L166.436 125.694L168.308 126.396ZM171.344 121.336L172.846 122.657L172.852 122.65L172.859 122.642L171.344 121.336ZM175.92 117.816L175.05 116.015L175.05 116.015L175.92 117.816ZM189.208 118.432L190.3 116.756L190.3 116.756L189.208 118.432ZM193.608 123.36L194.718 125.024L196.178 124.05L195.402 122.476L193.608 123.36ZM191.232 124.944L189.454 125.86L190.479 127.85L192.342 126.608L191.232 124.944ZM187.228 120.676L188.184 118.919L188.184 118.919L187.228 120.676ZM176.932 120.412L176.008 118.638L176.001 118.642L175.993 118.646L176.932 120.412ZM173.368 123.36L171.814 122.102L171.805 122.113L171.796 122.124L173.368 123.36ZM171.124 127.54L173.018 128.183L173.018 128.183L171.124 127.54ZM171.212 137.396L169.337 138.091L169.341 138.102L171.212 137.396ZM173.676 141.576L172.158 142.878L172.174 142.897L172.192 142.916L173.676 141.576ZM177.416 144.436L176.522 146.225L176.544 146.236L176.566 146.246L177.416 144.436ZM187.184 144.172L186.265 142.396L186.258 142.399L186.251 142.403L187.184 144.172ZM191.892 140.212L193.427 141.495L193.892 140.938V140.212H191.892ZM191.892 135.02H193.892V133.02H191.892V135.02ZM184.94 135.02H182.94V137.02H184.94V135.02ZM184.94 132.644V130.644H182.94V132.644H184.94ZM194.488 132.644H196.488V130.644H194.488V132.644ZM194.488 148V150H196.488V148H194.488ZM191.892 148H189.892V150H191.892V148ZM191.892 143.424H193.892V138.208L190.405 142.087L191.892 143.424ZM181.86 146.22C180.036 146.22 178.389 145.842 176.891 145.105L175.126 148.695C177.206 149.718 179.461 150.22 181.86 150.22V146.22ZM176.926 145.123C175.397 144.333 174.057 143.276 172.901 141.939L169.876 144.557C171.359 146.271 173.1 147.649 175.09 148.677L176.926 145.123ZM172.901 141.939C171.73 140.586 170.822 139.081 170.171 137.416L166.445 138.872C167.262 140.961 168.407 142.859 169.876 144.557L172.901 141.939ZM170.184 137.451C169.56 135.759 169.252 134.057 169.252 132.336H165.252C165.252 134.546 165.649 136.716 166.432 138.837L170.184 137.451ZM169.252 132.336C169.252 130.484 169.564 128.742 170.181 127.098L166.436 125.694C165.644 127.804 165.252 130.023 165.252 132.336H169.252ZM170.175 127.114C170.827 125.418 171.719 123.938 172.846 122.657L169.843 120.015C168.389 121.667 167.256 123.56 166.442 125.678L170.175 127.114ZM172.859 122.642C173.973 121.351 175.28 120.347 176.791 119.617L175.05 116.015C173.041 116.986 171.297 118.329 169.83 120.03L172.859 122.642ZM176.791 119.617C178.262 118.906 179.883 118.54 181.684 118.54V114.54C179.32 114.54 177.099 115.025 175.05 116.015L176.791 119.617ZM181.684 118.54C184.503 118.54 186.597 119.118 188.117 120.108L190.3 116.756C187.948 115.224 185.026 114.54 181.684 114.54V118.54ZM188.117 120.108C189.759 121.178 190.98 122.55 191.814 124.244L195.402 122.476C194.242 120.122 192.529 118.209 190.3 116.756L188.117 120.108ZM192.499 121.696L190.123 123.28L192.342 126.608L194.718 125.024L192.499 121.696ZM193.01 124.028C191.857 121.789 190.257 120.047 188.184 118.919L186.273 122.433C187.543 123.124 188.613 124.227 189.454 125.86L193.01 124.028ZM188.184 118.919C186.196 117.838 184 117.312 181.64 117.312V121.312C183.387 121.312 184.917 121.696 186.273 122.433L188.184 118.919ZM181.64 117.312C179.618 117.312 177.727 117.743 176.008 118.638L177.856 122.186C178.954 121.614 180.202 121.312 181.64 121.312V117.312ZM175.993 118.646C174.374 119.508 172.977 120.664 171.814 122.102L174.923 124.618C175.754 123.592 176.734 122.783 177.872 122.178L175.993 118.646ZM171.796 122.124C170.681 123.543 169.828 125.138 169.231 126.897L173.018 128.183C173.477 126.832 174.119 125.641 174.941 124.596L171.796 122.124ZM169.231 126.897C168.631 128.662 168.332 130.493 168.332 132.38H172.332C172.332 130.923 172.562 129.527 173.018 128.183L169.231 126.897ZM168.332 132.38C168.332 134.367 168.664 136.275 169.337 138.091L173.088 136.701C172.587 135.349 172.332 133.913 172.332 132.38H168.332ZM169.341 138.102C170.008 139.869 170.947 141.465 172.158 142.878L175.195 140.274C174.294 139.223 173.59 138.032 173.084 136.69L169.341 138.102ZM172.192 142.916C173.439 144.298 174.884 145.406 176.522 146.225L178.311 142.647C177.132 142.058 176.084 141.259 175.161 140.236L172.192 142.916ZM176.566 146.246C178.284 147.053 180.13 147.448 182.08 147.448V143.448C180.686 143.448 179.423 143.169 178.266 142.626L176.566 146.246ZM182.08 147.448C184.201 147.448 186.222 146.94 188.117 145.941L186.251 142.403C184.92 143.105 183.538 143.448 182.08 143.448V147.448ZM188.104 145.948C190.035 144.948 191.803 143.437 193.427 141.495L190.358 138.929C188.989 140.566 187.619 141.695 186.265 142.396L188.104 145.948ZM193.892 140.212V135.02H189.892V140.212H193.892ZM191.892 133.02H184.94V137.02H191.892V133.02ZM186.94 135.02V132.644H182.94V135.02H186.94ZM184.94 134.644H194.488V130.644H184.94V134.644ZM192.488 132.644V148H196.488V132.644H192.488ZM194.488 146H191.892V150H194.488V146ZM193.892 148V143.424H189.892V148H193.892ZM190.405 142.087C187.856 144.922 185.031 146.22 181.86 146.22V150.22C186.317 150.22 190.179 148.321 193.38 144.761L190.405 142.087ZM211.64 127.716L211.699 129.715L213.64 129.658V127.716H211.64ZM206.36 129.388L205.222 127.744L205.214 127.749L205.207 127.754L206.36 129.388ZM203.192 133.744L201.295 133.112L201.192 133.419V133.744H203.192ZM203.192 148V150H205.192V148H203.192ZM200.2 148H198.2V150H200.2V148ZM200.2 125.076V123.076H198.2V125.076H200.2ZM203.016 125.076H205.016V123.076H203.016V125.076ZM203.016 130.576H201.016L204.812 131.457L203.016 130.576ZM206.14 126.66L204.935 125.064L204.926 125.071L204.917 125.077L206.14 126.66ZM210.32 124.988L210.48 126.982L210.5 126.98L210.519 126.978L210.32 124.988ZM211.64 124.988H213.64V123.294L211.969 123.015L211.64 124.988ZM211.582 125.717C209.231 125.786 207.09 126.451 205.222 127.744L207.499 131.032C208.682 130.213 210.061 129.763 211.699 129.715L211.582 125.717ZM205.207 127.754C203.34 129.072 202.037 130.886 201.295 133.112L205.09 134.376C205.58 132.906 206.389 131.816 207.514 131.022L205.207 127.754ZM201.192 133.744V148H205.192V133.744H201.192ZM203.192 146H200.2V150H203.192V146ZM202.2 148V125.076H198.2V148H202.2ZM200.2 127.076H203.016V123.076H200.2V127.076ZM201.016 125.076V130.576H205.016V125.076H201.016ZM204.812 131.457C205.483 130.09 206.338 129.035 207.363 128.243L204.917 125.077C203.361 126.28 202.134 127.835 201.221 129.695L204.812 131.457ZM207.346 128.256C208.401 127.458 209.439 127.065 210.48 126.982L210.161 122.994C208.269 123.146 206.52 123.867 204.935 125.064L207.346 128.256ZM210.519 126.978C210.772 126.953 210.951 126.944 211.068 126.944V122.944C210.775 122.944 210.455 122.965 210.121 122.998L210.519 126.978ZM211.068 126.944C211.18 126.944 211.259 126.952 211.312 126.961L211.969 123.015C211.67 122.965 211.368 122.944 211.068 122.944V126.944ZM209.64 124.988V127.716H213.64V124.988H209.64ZM214.924 137.748L216.486 138.997L216.495 138.987L216.503 138.976L214.924 137.748ZM218.312 135.284L217.569 133.427L217.556 133.432L218.312 135.284ZM226.848 134.712L226.512 136.683L226.535 136.687L226.559 136.691L226.848 134.712ZM230.06 135.46L229.41 137.351L232.06 138.262V135.46H230.06ZM228.344 128.904L226.93 130.318L228.344 128.904ZM219.984 127.892L220.671 129.77L220.691 129.763L220.711 129.755L219.984 127.892ZM216.244 129.872L214.486 130.825L215.541 132.772L217.371 131.524L216.244 129.872ZM215.1 127.76L213.969 126.111L212.484 127.13L213.342 128.713L215.1 127.76ZM219.5 125.472L220.156 127.362L220.173 127.356L220.19 127.349L219.5 125.472ZM230.588 127.1L231.99 125.673L230.588 127.1ZM234.152 145.624H236.152V143.702L234.232 143.626L234.152 145.624ZM234.152 148L234.422 149.982L236.152 149.746V148H234.152ZM232.788 148.088L233.009 146.1L232.939 146.092L232.868 146.09L232.788 148.088ZM231.116 147.384L229.605 148.694L231.116 147.384ZM230.5 145.976L228.501 146.029L228.502 146.061L228.504 146.093L230.5 145.976ZM230.456 144.304L232.456 144.251L232.309 138.665L228.878 143.076L230.456 144.304ZM226.452 147.384L227.24 149.222L227.254 149.216L227.268 149.21L226.452 147.384ZM217.432 147.516L216.468 149.268L216.485 149.278L216.503 149.287L217.432 147.516ZM214.66 144.964L212.941 145.986L212.958 146.014L212.975 146.041L214.66 144.964ZM229.048 143.16L227.526 141.863L227.492 141.902L227.461 141.943L229.048 143.16ZM230.06 137.616H232.06V136.251L230.789 135.754L230.06 137.616ZM218.004 144.612L216.549 145.984L216.559 145.995L216.57 146.006L218.004 144.612ZM226.144 145.316L225.336 143.487L225.328 143.49L225.32 143.494L226.144 145.316ZM215.692 141.4C215.692 140.412 215.969 139.643 216.486 138.997L213.362 136.499C212.237 137.906 211.692 139.572 211.692 141.4H215.692ZM216.503 138.976C217.077 138.238 217.902 137.612 219.068 137.136L217.556 133.432C215.848 134.13 214.414 135.146 213.346 136.52L216.503 138.976ZM219.055 137.141C220.242 136.666 221.669 136.404 223.372 136.404V132.404C221.262 132.404 219.316 132.729 217.569 133.427L219.055 137.141ZM223.372 136.404C224.364 136.404 225.41 136.495 226.512 136.683L227.185 132.741C225.881 132.518 224.61 132.404 223.372 132.404V136.404ZM226.559 136.691C227.665 136.853 228.611 137.077 229.41 137.351L230.71 133.569C229.632 133.198 228.437 132.923 227.138 132.733L226.559 136.691ZM232.06 135.46V133.524H228.06V135.46H232.06ZM232.06 133.524C232.06 131.169 231.35 129.081 229.758 127.49L226.93 130.318C227.627 131.015 228.06 132.007 228.06 133.524H232.06ZM229.758 127.49C228.15 125.882 226.006 125.188 223.592 125.188V129.188C225.226 129.188 226.25 129.638 226.93 130.318L229.758 127.49ZM223.592 125.188C222.123 125.188 220.674 125.476 219.257 126.029L220.711 129.755C221.699 129.37 222.656 129.188 223.592 129.188V125.188ZM219.297 126.014C217.91 126.521 216.516 127.266 215.118 128.22L217.371 131.524C218.554 130.718 219.654 130.143 220.671 129.77L219.297 126.014ZM218.003 128.919L216.859 126.807L213.342 128.713L214.486 130.825L218.003 128.919ZM216.232 129.409C217.608 128.465 218.916 127.792 220.156 127.362L218.845 123.582C217.21 124.15 215.584 125.002 213.969 126.111L216.232 129.409ZM220.19 127.349C221.412 126.901 222.645 126.68 223.9 126.68V122.68C222.163 122.68 220.464 122.987 218.811 123.595L220.19 127.349ZM223.9 126.68C226.316 126.68 227.998 127.359 229.187 128.527L231.99 125.673C229.893 123.614 227.116 122.68 223.9 122.68V126.68ZM229.187 128.527C230.36 129.679 231.052 131.345 231.052 133.788H235.052C235.052 130.541 234.102 127.747 231.99 125.673L229.187 128.527ZM231.052 133.788V144.392H235.052V133.788H231.052ZM231.052 144.392C231.052 145.066 231.206 145.922 231.835 146.626C232.488 147.357 233.351 147.594 234.072 147.622L234.232 143.626C234.22 143.625 234.533 143.642 234.819 143.962C235.081 144.256 235.052 144.51 235.052 144.392H231.052ZM232.152 145.624V148H236.152V145.624H232.152ZM233.882 146.018C233.588 146.058 233.363 146.082 233.198 146.092C233.018 146.104 232.972 146.096 233.009 146.1L232.567 150.076C233.104 150.135 233.782 150.069 234.422 149.982L233.882 146.018ZM232.868 146.09C232.691 146.083 232.613 146.054 232.596 146.047C232.589 146.044 232.593 146.044 232.603 146.051C232.613 146.059 232.622 146.067 232.628 146.074L229.605 148.694C230.437 149.654 231.576 150.041 232.708 150.086L232.868 146.09ZM232.628 146.074C232.551 145.986 232.52 145.927 232.509 145.9C232.498 145.877 232.497 145.866 232.497 145.859L228.504 146.093C228.563 147.102 228.985 147.978 229.605 148.694L232.628 146.074ZM232.5 145.923L232.456 144.251L228.457 144.357L228.501 146.029L232.5 145.923ZM228.878 143.076C228.067 144.118 227.003 144.948 225.637 145.558L227.268 149.21C229.187 148.354 230.792 147.13 232.035 145.532L228.878 143.076ZM225.664 145.546C224.258 146.148 222.853 146.44 221.436 146.44V150.44C223.422 150.44 225.361 150.028 227.24 149.222L225.664 145.546ZM221.436 146.44C220.222 146.44 219.213 146.192 218.362 145.745L216.503 149.287C217.998 150.072 219.659 150.44 221.436 150.44V146.44ZM218.396 145.764C217.495 145.268 216.828 144.642 216.346 143.887L212.975 146.041C213.842 147.398 215.023 148.473 216.468 149.268L218.396 145.764ZM216.379 143.942C215.922 143.173 215.692 142.339 215.692 141.4H211.692C211.692 143.042 212.108 144.584 212.941 145.986L216.379 143.942ZM230.571 144.457C231.394 143.49 232.06 142.309 232.06 140.96H228.06C228.06 140.961 228.052 141.246 227.526 141.863L230.571 144.457ZM232.06 140.96V137.616H228.06V140.96H232.06ZM230.789 135.754C228.53 134.87 226.17 134.428 223.724 134.428V138.428C225.678 138.428 227.543 138.778 229.331 139.478L230.789 135.754ZM223.724 134.428C221.334 134.428 219.189 134.901 217.449 136.023L219.616 139.385C220.515 138.806 221.832 138.428 223.724 138.428V134.428ZM217.449 136.023C215.606 137.211 214.552 138.978 214.552 141.18H218.552C218.552 140.449 218.819 139.899 219.616 139.385L217.449 136.023ZM214.552 141.18C214.552 143.013 215.276 144.634 216.549 145.984L219.459 143.24C218.796 142.537 218.552 141.869 218.552 141.18H214.552ZM216.57 146.006C218.027 147.506 219.972 148.152 222.14 148.152V144.152C220.788 144.152 219.976 143.772 219.439 143.218L216.57 146.006ZM222.14 148.152C223.844 148.152 225.461 147.82 226.969 147.138L225.32 143.494C224.363 143.927 223.312 144.152 222.14 144.152V148.152ZM226.953 147.145C228.447 146.485 229.713 145.58 230.635 144.377L227.461 141.943C227.034 142.5 226.364 143.032 225.336 143.487L226.953 147.145ZM273.617 148V150H275.617V148H273.617ZM270.625 148H268.625V150H270.625V148ZM269.349 129.344L267.679 130.445L267.685 130.453L267.691 130.462L269.349 129.344ZM260.901 129.256L259.552 127.779L259.552 127.779L260.901 129.256ZM258.041 134.008L256.119 133.455L256.041 133.726V134.008H258.041ZM258.041 148V150H260.041V148H258.041ZM255.049 148H253.049V150H255.049V148ZM253.773 129.3L252.097 130.391L252.112 130.414L252.127 130.436L253.773 129.3ZM245.369 129.212L244.054 127.705L244.046 127.712L244.038 127.719L245.369 129.212ZM242.509 133.964L240.585 133.418L240.509 133.686V133.964H242.509ZM242.509 148V150H244.509V148H242.509ZM239.517 148H237.517V150H239.517V148ZM239.517 125.076V123.076H237.517V125.076H239.517ZM242.245 125.076H244.245V123.076H242.245V125.076ZM242.245 130.268H240.245L244.01 131.209L242.245 130.268ZM245.941 126.176L247.012 127.865L247.024 127.857L247.035 127.85L245.941 126.176ZM255.621 126.352L254.243 127.802L254.253 127.811L254.263 127.82L255.621 126.352ZM257.777 130.576L255.8 130.878L256.703 136.8L259.539 131.523L257.777 130.576ZM272.033 127.408L270.291 128.391L270.301 128.408L270.31 128.425L272.033 127.408ZM273.617 146H270.625V150H273.617V146ZM272.625 148V135.196H268.625V148H272.625ZM272.625 135.196C272.625 132.417 272.191 129.981 271.007 128.226L267.691 130.462C268.208 131.229 268.625 132.695 268.625 135.196H272.625ZM271.019 128.243C269.763 126.339 267.844 125.408 265.565 125.408V129.408C266.63 129.408 267.233 129.768 267.679 130.445L271.019 128.243ZM265.565 125.408C263.285 125.408 261.255 126.225 259.552 127.779L262.249 130.733C263.246 129.823 264.324 129.408 265.565 129.408V125.408ZM259.552 127.779C257.903 129.285 256.768 131.201 256.119 133.455L259.963 134.561C260.429 132.943 261.2 131.691 262.249 130.733L259.552 127.779ZM256.041 134.008V148H260.041V134.008H256.041ZM258.041 146H255.049V150H258.041V146ZM257.049 148V135.196H253.049V148H257.049ZM257.049 135.196C257.049 132.375 256.621 129.905 255.419 128.164L252.127 130.436C252.626 131.159 253.049 132.619 253.049 135.196H257.049ZM255.449 128.209C254.213 126.31 252.293 125.408 250.033 125.408V129.408C251.117 129.408 251.69 129.767 252.097 130.391L255.449 128.209ZM250.033 125.408C247.789 125.408 245.774 126.204 244.054 127.705L246.684 130.719C247.721 129.814 248.815 129.408 250.033 129.408V125.408ZM244.038 127.719C242.369 129.206 241.232 131.136 240.585 133.418L244.433 134.51C244.9 132.861 245.67 131.623 246.7 130.705L244.038 127.719ZM240.509 133.964V148H244.509V133.964H240.509ZM242.509 146H239.517V150H242.509V146ZM241.517 148V125.076H237.517V148H241.517ZM239.517 127.076H242.245V123.076H239.517V127.076ZM240.245 125.076V130.268H244.245V125.076H240.245ZM244.01 131.209C244.803 129.721 245.808 128.629 247.012 127.865L244.869 124.487C243.023 125.659 241.564 127.294 240.48 129.327L244.01 131.209ZM247.035 127.85C248.23 127.069 249.536 126.68 251.001 126.68V122.68C248.77 122.68 246.702 123.289 244.846 124.502L247.035 127.85ZM251.001 126.68C252.492 126.68 253.507 127.102 254.243 127.802L256.998 124.902C255.388 123.372 253.323 122.68 251.001 122.68V126.68ZM254.263 127.82C255.071 128.568 255.597 129.549 255.8 130.878L259.754 130.274C259.429 128.141 258.517 126.307 256.979 124.884L254.263 127.82ZM259.539 131.523C261.377 128.101 263.72 126.68 266.621 126.68V122.68C261.954 122.68 258.4 125.19 256.015 129.629L259.539 131.523ZM266.621 126.68C268.681 126.68 269.708 127.357 270.291 128.391L273.774 126.425C272.305 123.821 269.724 122.68 266.621 122.68V126.68ZM270.31 128.425C271.122 129.799 271.617 131.797 271.617 134.58H275.617C275.617 131.379 275.056 128.595 273.755 126.391L270.31 128.425ZM271.617 134.58V148H275.617V134.58H271.617Z" fill="black"/>
<path d="M107.445 197.614C107.085 197.218 106.605 196.894 106.005 196.642C105.405 196.378 104.721 196.246 103.953 196.246C102.825 196.246 102.003 196.462 101.487 196.894C100.971 197.314 100.713 197.89 100.713 198.622C100.713 199.126 100.839 199.522 101.091 199.81C101.343 200.098 101.727 200.338 102.243 200.53C102.771 200.71 103.443 200.89 104.259 201.07C105.171 201.262 105.957 201.49 106.617 201.754C107.277 202.018 107.787 202.378 108.147 202.834C108.507 203.278 108.687 203.884 108.687 204.652C108.687 205.432 108.489 206.08 108.093 206.596C107.697 207.112 107.151 207.496 106.455 207.748C105.759 207.988 104.967 208.108 104.079 208.108C102.087 208.108 100.377 207.49 98.949 206.254L99.579 205.228C100.035 205.708 100.659 206.122 101.451 206.47C102.255 206.818 103.143 206.992 104.115 206.992C105.123 206.992 105.915 206.806 106.491 206.434C107.067 206.062 107.355 205.51 107.355 204.778C107.355 204.25 107.211 203.83 106.923 203.518C106.635 203.194 106.203 202.93 105.627 202.726C105.051 202.522 104.343 202.324 103.503 202.132C102.615 201.928 101.865 201.7 101.253 201.448C100.653 201.196 100.197 200.866 99.885 200.458C99.573 200.05 99.417 199.498 99.417 198.802C99.417 198.01 99.609 197.344 99.993 196.804C100.389 196.252 100.929 195.838 101.613 195.562C102.297 195.274 103.083 195.13 103.971 195.13C104.811 195.13 105.567 195.262 106.239 195.526C106.911 195.778 107.517 196.138 108.057 196.606L107.445 197.614ZM118.541 208H117.317V202.762C117.317 200.638 116.597 199.576 115.157 199.576C114.689 199.576 114.233 199.696 113.789 199.936C113.345 200.164 112.949 200.482 112.601 200.89C112.265 201.286 112.025 201.742 111.881 202.258V208H110.657V194.86H111.881V200.746C112.253 200.05 112.769 199.498 113.429 199.09C114.101 198.67 114.815 198.46 115.571 198.46C116.291 198.46 116.867 198.634 117.299 198.982C117.731 199.318 118.043 199.792 118.235 200.404C118.439 201.004 118.541 201.706 118.541 202.51V208ZM120.395 205.3C120.395 204.724 120.563 204.226 120.899 203.806C121.235 203.374 121.697 203.038 122.285 202.798C122.885 202.558 123.575 202.438 124.355 202.438C124.811 202.438 125.285 202.48 125.777 202.564C126.269 202.636 126.707 202.738 127.091 202.87V202.078C127.091 201.286 126.857 200.656 126.389 200.188C125.921 199.72 125.273 199.486 124.445 199.486C123.953 199.486 123.461 199.582 122.969 199.774C122.477 199.954 121.967 200.224 121.439 200.584L120.971 199.72C121.583 199.3 122.183 198.988 122.771 198.784C123.359 198.568 123.959 198.46 124.571 198.46C125.723 198.46 126.635 198.79 127.307 199.45C127.979 200.11 128.315 201.022 128.315 202.186V206.524C128.315 206.848 128.465 207.016 128.765 207.028V208C128.501 208.036 128.315 208.048 128.207 208.036C127.907 208.024 127.679 207.928 127.523 207.748C127.367 207.568 127.283 207.376 127.271 207.172L127.253 206.488C126.833 207.028 126.287 207.448 125.615 207.748C124.943 208.036 124.259 208.18 123.563 208.18C122.951 208.18 122.405 208.054 121.925 207.802C121.445 207.538 121.067 207.19 120.791 206.758C120.527 206.314 120.395 205.828 120.395 205.3ZM126.677 206.02C126.953 205.696 127.091 205.396 127.091 205.12V203.752C126.263 203.428 125.399 203.266 124.499 203.266C123.623 203.266 122.915 203.44 122.375 203.788C121.835 204.136 121.565 204.61 121.565 205.21C121.565 205.726 121.763 206.194 122.159 206.614C122.567 207.034 123.131 207.244 123.851 207.244C124.439 207.244 124.985 207.13 125.489 206.902C126.005 206.674 126.401 206.38 126.677 206.02ZM135.639 199.702C134.823 199.726 134.103 199.954 133.479 200.386C132.867 200.818 132.435 201.412 132.183 202.168V208H130.959V198.622H132.111V200.872C132.435 200.212 132.861 199.678 133.389 199.27C133.929 198.862 134.499 198.634 135.099 198.586C135.219 198.574 135.321 198.568 135.405 198.568C135.489 198.568 135.567 198.574 135.639 198.586V199.702ZM137.27 196.66V194.86H138.494V196.66H137.27ZM137.27 208V198.622H138.494V208H137.27ZM149.074 208H147.85V202.762C147.85 201.658 147.682 200.854 147.346 200.35C147.022 199.834 146.518 199.576 145.834 199.576C145.354 199.576 144.88 199.696 144.412 199.936C143.944 200.164 143.53 200.482 143.17 200.89C142.822 201.286 142.57 201.742 142.414 202.258V208H141.19V198.622H142.306V200.746C142.678 200.062 143.224 199.51 143.944 199.09C144.664 198.67 145.444 198.46 146.284 198.46C146.98 198.46 147.532 198.628 147.94 198.964C148.348 199.288 148.636 199.756 148.804 200.368C148.984 200.968 149.074 201.682 149.074 202.51V208ZM155.446 208.126C154.798 208.126 154.204 207.994 153.664 207.73C153.136 207.466 152.674 207.112 152.278 206.668C151.894 206.212 151.594 205.696 151.378 205.12C151.162 204.544 151.054 203.95 151.054 203.338C151.054 202.462 151.24 201.658 151.612 200.926C151.984 200.182 152.494 199.588 153.142 199.144C153.802 198.688 154.558 198.46 155.41 198.46C156.214 198.46 156.91 198.664 157.498 199.072C158.098 199.48 158.602 199.984 159.01 200.584V198.622H160.108V208.036C160.108 208.912 159.898 209.644 159.478 210.232C159.058 210.82 158.5 211.264 157.804 211.564C157.108 211.864 156.346 212.014 155.518 212.014C154.438 212.014 153.568 211.822 152.908 211.438C152.26 211.054 151.726 210.538 151.306 209.89L152.062 209.296C152.434 209.884 152.926 210.322 153.538 210.61C154.162 210.898 154.822 211.042 155.518 211.042C156.13 211.042 156.688 210.928 157.192 210.7C157.708 210.484 158.116 210.154 158.416 209.71C158.728 209.266 158.884 208.708 158.884 208.036V206.182C158.524 206.77 158.032 207.244 157.408 207.604C156.784 207.952 156.13 208.126 155.446 208.126ZM155.788 207.1C156.28 207.1 156.748 206.986 157.192 206.758C157.636 206.53 158.008 206.242 158.308 205.894C158.62 205.534 158.812 205.162 158.884 204.778V201.88C158.704 201.424 158.446 201.022 158.11 200.674C157.774 200.314 157.39 200.038 156.958 199.846C156.526 199.642 156.088 199.54 155.644 199.54C154.948 199.54 154.348 199.732 153.844 200.116C153.352 200.488 152.968 200.968 152.692 201.556C152.428 202.132 152.296 202.732 152.296 203.356C152.296 204.028 152.452 204.652 152.764 205.228C153.076 205.792 153.496 206.248 154.024 206.596C154.552 206.932 155.14 207.1 155.788 207.1ZM166.643 205.3C166.643 204.724 166.811 204.226 167.147 203.806C167.483 203.374 167.945 203.038 168.533 202.798C169.133 202.558 169.823 202.438 170.603 202.438C171.059 202.438 171.533 202.48 172.025 202.564C172.517 202.636 172.955 202.738 173.339 202.87V202.078C173.339 201.286 173.105 200.656 172.637 200.188C172.169 199.72 171.521 199.486 170.693 199.486C170.201 199.486 169.709 199.582 169.217 199.774C168.725 199.954 168.215 200.224 167.687 200.584L167.219 199.72C167.831 199.3 168.431 198.988 169.019 198.784C169.607 198.568 170.207 198.46 170.819 198.46C171.971 198.46 172.883 198.79 173.555 199.45C174.227 200.11 174.563 201.022 174.563 202.186V206.524C174.563 206.848 174.713 207.016 175.013 207.028V208C174.749 208.036 174.563 208.048 174.455 208.036C174.155 208.024 173.927 207.928 173.771 207.748C173.615 207.568 173.531 207.376 173.519 207.172L173.501 206.488C173.081 207.028 172.535 207.448 171.863 207.748C171.191 208.036 170.507 208.18 169.811 208.18C169.199 208.18 168.653 208.054 168.173 207.802C167.693 207.538 167.315 207.19 167.039 206.758C166.775 206.314 166.643 205.828 166.643 205.3ZM172.925 206.02C173.201 205.696 173.339 205.396 173.339 205.12V203.752C172.511 203.428 171.647 203.266 170.747 203.266C169.871 203.266 169.163 203.44 168.623 203.788C168.083 204.136 167.813 204.61 167.813 205.21C167.813 205.726 168.011 206.194 168.407 206.614C168.815 207.034 169.379 207.244 170.099 207.244C170.687 207.244 171.233 207.13 171.737 206.902C172.253 206.674 172.649 206.38 172.925 206.02ZM185.091 208H183.867V202.762C183.867 201.658 183.699 200.854 183.363 200.35C183.039 199.834 182.535 199.576 181.851 199.576C181.371 199.576 180.897 199.696 180.429 199.936C179.961 200.164 179.547 200.482 179.187 200.89C178.839 201.286 178.587 201.742 178.431 202.258V208H177.207V198.622H178.323V200.746C178.695 200.062 179.241 199.51 179.961 199.09C180.681 198.67 181.461 198.46 182.301 198.46C182.997 198.46 183.549 198.628 183.957 198.964C184.365 199.288 184.653 199.756 184.821 200.368C185.001 200.968 185.091 201.682 185.091 202.51V208ZM187.702 196.66V194.86H188.926V196.66H187.702ZM187.702 208V198.622H188.926V208H187.702ZM205.571 208H204.347V202.762C204.347 201.682 204.173 200.884 203.825 200.368C203.477 199.84 202.961 199.576 202.277 199.576C201.557 199.576 200.921 199.828 200.369 200.332C199.817 200.836 199.427 201.484 199.199 202.276V208H197.975V202.762C197.975 201.658 197.801 200.854 197.453 200.35C197.117 199.834 196.607 199.576 195.923 199.576C195.215 199.576 194.579 199.822 194.015 200.314C193.463 200.806 193.073 201.454 192.845 202.258V208H191.621V198.622H192.737V200.746C193.121 200.026 193.625 199.468 194.249 199.072C194.873 198.664 195.563 198.46 196.319 198.46C197.099 198.46 197.729 198.688 198.209 199.144C198.689 199.588 198.983 200.164 199.091 200.872C199.955 199.264 201.161 198.46 202.709 198.46C203.765 198.46 204.503 198.832 204.923 199.576C205.355 200.308 205.571 201.286 205.571 202.51V208ZM212.213 208.18C211.313 208.18 210.509 207.958 209.801 207.514C209.093 207.07 208.535 206.476 208.127 205.732C207.719 204.988 207.515 204.172 207.515 203.284C207.515 202.408 207.713 201.604 208.109 200.872C208.517 200.14 209.075 199.558 209.783 199.126C210.491 198.682 211.295 198.46 212.195 198.46C213.119 198.46 213.929 198.682 214.625 199.126C215.321 199.57 215.861 200.158 216.245 200.89C216.641 201.61 216.839 202.402 216.839 203.266C216.839 203.458 216.833 203.62 216.821 203.752H208.793C208.853 204.424 209.045 205.024 209.369 205.552C209.693 206.068 210.107 206.482 210.611 206.794C211.115 207.094 211.667 207.244 212.267 207.244C212.879 207.244 213.455 207.088 213.995 206.776C214.535 206.464 214.919 206.056 215.147 205.552L216.209 205.84C216.017 206.296 215.717 206.704 215.309 207.064C214.913 207.412 214.451 207.688 213.923 207.892C213.395 208.084 212.825 208.18 212.213 208.18ZM208.757 202.87H215.687C215.639 202.198 215.453 201.604 215.129 201.088C214.805 200.56 214.391 200.152 213.887 199.864C213.383 199.564 212.825 199.414 212.213 199.414C211.601 199.414 211.043 199.564 210.539 199.864C210.035 200.152 209.621 200.56 209.297 201.088C208.985 201.604 208.805 202.198 208.757 202.87ZM223.315 196.66V194.86H224.539V196.66H223.315ZM223.315 208V198.622H224.539V208H223.315ZM241.185 208H239.961V202.762C239.961 201.682 239.787 200.884 239.439 200.368C239.091 199.84 238.575 199.576 237.891 199.576C237.171 199.576 236.535 199.828 235.983 200.332C235.431 200.836 235.041 201.484 234.813 202.276V208H233.589V202.762C233.589 201.658 233.415 200.854 233.067 200.35C232.731 199.834 232.221 199.576 231.537 199.576C230.829 199.576 230.193 199.822 229.629 200.314C229.077 200.806 228.687 201.454 228.459 202.258V208H227.235V198.622H228.351V200.746C228.735 200.026 229.239 199.468 229.863 199.072C230.487 198.664 231.177 198.46 231.933 198.46C232.713 198.46 233.343 198.688 233.823 199.144C234.303 199.588 234.597 200.164 234.705 200.872C235.569 199.264 236.775 198.46 238.323 198.46C239.379 198.46 240.117 198.832 240.537 199.576C240.969 200.308 241.185 201.286 241.185 202.51V208ZM243.02 205.3C243.02 204.724 243.188 204.226 243.524 203.806C243.86 203.374 244.322 203.038 244.91 202.798C245.51 202.558 246.2 202.438 246.98 202.438C247.436 202.438 247.91 202.48 248.402 202.564C248.894 202.636 249.332 202.738 249.716 202.87V202.078C249.716 201.286 249.482 200.656 249.014 200.188C248.546 199.72 247.898 199.486 247.07 199.486C246.578 199.486 246.086 199.582 245.594 199.774C245.102 199.954 244.592 200.224 244.064 200.584L243.596 199.72C244.208 199.3 244.808 198.988 245.396 198.784C245.984 198.568 246.584 198.46 247.196 198.46C248.348 198.46 249.26 198.79 249.932 199.45C250.604 200.11 250.94 201.022 250.94 202.186V206.524C250.94 206.848 251.09 207.016 251.39 207.028V208C251.126 208.036 250.94 208.048 250.832 208.036C250.532 208.024 250.304 207.928 250.148 207.748C249.992 207.568 249.908 207.376 249.896 207.172L249.878 206.488C249.458 207.028 248.912 207.448 248.24 207.748C247.568 208.036 246.884 208.18 246.188 208.18C245.576 208.18 245.03 208.054 244.55 207.802C244.07 207.538 243.692 207.19 243.416 206.758C243.152 206.314 243.02 205.828 243.02 205.3ZM249.302 206.02C249.578 205.696 249.716 205.396 249.716 205.12V203.752C248.888 203.428 248.024 203.266 247.124 203.266C246.248 203.266 245.54 203.44 245 203.788C244.46 204.136 244.19 204.61 244.19 205.21C244.19 205.726 244.388 206.194 244.784 206.614C245.192 207.034 245.756 207.244 246.476 207.244C247.064 207.244 247.61 207.13 248.114 206.902C248.63 206.674 249.026 206.38 249.302 206.02ZM257.346 208.126C256.698 208.126 256.104 207.994 255.564 207.73C255.036 207.466 254.574 207.112 254.178 206.668C253.794 206.212 253.494 205.696 253.278 205.12C253.062 204.544 252.954 203.95 252.954 203.338C252.954 202.462 253.14 201.658 253.512 200.926C253.884 200.182 254.394 199.588 255.042 199.144C255.702 198.688 256.458 198.46 257.31 198.46C258.114 198.46 258.81 198.664 259.398 199.072C259.998 199.48 260.502 199.984 260.91 200.584V198.622H262.008V208.036C262.008 208.912 261.798 209.644 261.378 210.232C260.958 210.82 260.4 211.264 259.704 211.564C259.008 211.864 258.246 212.014 257.418 212.014C256.338 212.014 255.468 211.822 254.808 211.438C254.16 211.054 253.626 210.538 253.206 209.89L253.962 209.296C254.334 209.884 254.826 210.322 255.438 210.61C256.062 210.898 256.722 211.042 257.418 211.042C258.03 211.042 258.588 210.928 259.092 210.7C259.608 210.484 260.016 210.154 260.316 209.71C260.628 209.266 260.784 208.708 260.784 208.036V206.182C260.424 206.77 259.932 207.244 259.308 207.604C258.684 207.952 258.03 208.126 257.346 208.126ZM257.688 207.1C258.18 207.1 258.648 206.986 259.092 206.758C259.536 206.53 259.908 206.242 260.208 205.894C260.52 205.534 260.712 205.162 260.784 204.778V201.88C260.604 201.424 260.346 201.022 260.01 200.674C259.674 200.314 259.29 200.038 258.858 199.846C258.426 199.642 257.988 199.54 257.544 199.54C256.848 199.54 256.248 199.732 255.744 200.116C255.252 200.488 254.868 200.968 254.592 201.556C254.328 202.132 254.196 202.732 254.196 203.356C254.196 204.028 254.352 204.652 254.664 205.228C254.976 205.792 255.396 206.248 255.924 206.596C256.452 206.932 257.04 207.1 257.688 207.1ZM268.761 208.18C267.861 208.18 267.057 207.958 266.349 207.514C265.641 207.07 265.083 206.476 264.675 205.732C264.267 204.988 264.063 204.172 264.063 203.284C264.063 202.408 264.261 201.604 264.657 200.872C265.065 200.14 265.623 199.558 266.331 199.126C267.039 198.682 267.843 198.46 268.743 198.46C269.667 198.46 270.477 198.682 271.173 199.126C271.869 199.57 272.409 200.158 272.793 200.89C273.189 201.61 273.387 202.402 273.387 203.266C273.387 203.458 273.381 203.62 273.369 203.752H265.341C265.401 204.424 265.593 205.024 265.917 205.552C266.241 206.068 266.655 206.482 267.159 206.794C267.663 207.094 268.215 207.244 268.815 207.244C269.427 207.244 270.003 207.088 270.543 206.776C271.083 206.464 271.467 206.056 271.695 205.552L272.757 205.84C272.565 206.296 272.265 206.704 271.857 207.064C271.461 207.412 270.999 207.688 270.471 207.892C269.943 208.084 269.373 208.18 268.761 208.18ZM265.305 202.87H272.235C272.187 202.198 272.001 201.604 271.677 201.088C271.353 200.56 270.939 200.152 270.435 199.864C269.931 199.564 269.373 199.414 268.761 199.414C268.149 199.414 267.591 199.564 267.087 199.864C266.583 200.152 266.169 200.56 265.845 201.088C265.533 201.604 265.353 202.198 265.305 202.87ZM278.354 208.18C277.586 208.18 276.872 208.054 276.212 207.802C275.564 207.538 274.994 207.154 274.502 206.65L275.006 205.786C275.534 206.278 276.062 206.638 276.59 206.866C277.13 207.082 277.7 207.19 278.3 207.19C279.02 207.19 279.608 207.046 280.064 206.758C280.532 206.458 280.766 206.032 280.766 205.48C280.766 205.108 280.652 204.826 280.424 204.634C280.208 204.43 279.89 204.268 279.47 204.148C279.062 204.028 278.57 203.89 277.994 203.734C277.346 203.554 276.8 203.368 276.356 203.176C275.924 202.972 275.594 202.72 275.366 202.42C275.15 202.108 275.042 201.706 275.042 201.214C275.042 200.614 275.192 200.11 275.492 199.702C275.804 199.294 276.224 198.988 276.752 198.784C277.292 198.568 277.892 198.46 278.552 198.46C279.272 198.46 279.908 198.574 280.46 198.802C281.012 199.03 281.462 199.348 281.81 199.756L281.216 200.584C280.892 200.2 280.49 199.918 280.01 199.738C279.542 199.546 279.032 199.45 278.48 199.45C278.096 199.45 277.73 199.504 277.382 199.612C277.034 199.708 276.746 199.876 276.518 200.116C276.302 200.344 276.194 200.662 276.194 201.07C276.194 201.574 276.38 201.922 276.752 202.114C277.124 202.306 277.688 202.51 278.444 202.726C279.152 202.918 279.77 203.11 280.298 203.302C280.826 203.494 281.234 203.752 281.522 204.076C281.81 204.388 281.954 204.826 281.954 205.39C281.954 206.266 281.624 206.95 280.964 207.442C280.304 207.934 279.434 208.18 278.354 208.18ZM101.872 219.622H103.078L99.0459 229H97.9839L96.0219 224.338L94.0779 229H93.0159L88.9839 219.622H90.1719L93.5919 227.74L95.3199 223.51L93.7359 219.64H94.8339L96.0219 222.682L97.2279 219.64H98.3079L96.7419 223.51L98.4699 227.74L101.872 219.622ZM104.706 217.66V215.86H105.93V217.66H104.706ZM104.706 229V219.622H105.93V229H104.706ZM113.126 228.55C112.982 228.61 112.718 228.718 112.334 228.874C111.95 229.03 111.506 229.108 111.002 229.108C110.474 229.108 110.012 228.958 109.616 228.658C109.22 228.358 109.022 227.908 109.022 227.308V220.594H107.726V219.622H109.022V216.454H110.246V219.622H112.406V220.594H110.246V226.966C110.27 227.314 110.39 227.572 110.606 227.74C110.834 227.896 111.092 227.974 111.38 227.974C111.716 227.974 112.016 227.92 112.28 227.812C112.556 227.692 112.73 227.608 112.802 227.56L113.126 228.55ZM122.54 229H121.316V223.762C121.316 221.638 120.596 220.576 119.156 220.576C118.688 220.576 118.232 220.696 117.788 220.936C117.344 221.164 116.948 221.482 116.6 221.89C116.264 222.286 116.024 222.742 115.88 223.258V229H114.656V215.86H115.88V221.746C116.252 221.05 116.768 220.498 117.428 220.09C118.1 219.67 118.814 219.46 119.57 219.46C120.29 219.46 120.866 219.634 121.298 219.982C121.73 220.318 122.042 220.792 122.234 221.404C122.438 222.004 122.54 222.706 122.54 223.51V229ZM129.792 215.86H131.016V226.876C131.016 227.344 131.094 227.65 131.25 227.794C131.418 227.938 131.628 228.01 131.88 228.01C132.096 228.01 132.312 227.986 132.528 227.938C132.756 227.89 132.942 227.842 133.086 227.794L133.302 228.784C133.074 228.88 132.792 228.958 132.456 229.018C132.132 229.078 131.85 229.108 131.61 229.108C131.058 229.108 130.614 228.946 130.278 228.622C129.954 228.298 129.792 227.854 129.792 227.29V215.86ZM134.642 217.66V215.86H135.866V217.66H134.642ZM134.642 229V219.622H135.866V229H134.642ZM145.258 229L141.784 224.194L139.786 226.066V229H138.562V215.86H139.786V224.752L145.096 219.64H146.446L142.612 223.474L146.59 229H145.258ZM151.665 229.18C150.765 229.18 149.961 228.958 149.253 228.514C148.545 228.07 147.987 227.476 147.579 226.732C147.171 225.988 146.967 225.172 146.967 224.284C146.967 223.408 147.165 222.604 147.561 221.872C147.969 221.14 148.527 220.558 149.235 220.126C149.943 219.682 150.747 219.46 151.647 219.46C152.571 219.46 153.381 219.682 154.077 220.126C154.773 220.57 155.313 221.158 155.697 221.89C156.093 222.61 156.291 223.402 156.291 224.266C156.291 224.458 156.285 224.62 156.273 224.752H148.245C148.305 225.424 148.497 226.024 148.821 226.552C149.145 227.068 149.559 227.482 150.063 227.794C150.567 228.094 151.119 228.244 151.719 228.244C152.331 228.244 152.907 228.088 153.447 227.776C153.987 227.464 154.371 227.056 154.599 226.552L155.661 226.84C155.469 227.296 155.169 227.704 154.761 228.064C154.365 228.412 153.903 228.688 153.375 228.892C152.847 229.084 152.277 229.18 151.665 229.18ZM148.209 223.87H155.139C155.091 223.198 154.905 222.604 154.581 222.088C154.257 221.56 153.843 221.152 153.339 220.864C152.835 220.564 152.277 220.414 151.665 220.414C151.053 220.414 150.495 220.564 149.991 220.864C149.487 221.152 149.073 221.56 148.749 222.088C148.437 222.604 148.257 223.198 148.209 223.87ZM176.717 229H175.493V223.762C175.493 222.682 175.319 221.884 174.971 221.368C174.623 220.84 174.107 220.576 173.423 220.576C172.703 220.576 172.067 220.828 171.515 221.332C170.963 221.836 170.573 222.484 170.345 223.276V229H169.121V223.762C169.121 222.658 168.947 221.854 168.599 221.35C168.263 220.834 167.753 220.576 167.069 220.576C166.361 220.576 165.725 220.822 165.161 221.314C164.609 221.806 164.219 222.454 163.991 223.258V229H162.767V219.622H163.883V221.746C164.267 221.026 164.771 220.468 165.395 220.072C166.019 219.664 166.709 219.46 167.465 219.46C168.245 219.46 168.875 219.688 169.355 220.144C169.835 220.588 170.129 221.164 170.237 221.872C171.101 220.264 172.307 219.46 173.855 219.46C174.911 219.46 175.649 219.832 176.069 220.576C176.501 221.308 176.717 222.286 176.717 223.51V229ZM179.308 217.66V215.86H180.532V217.66H179.308ZM179.308 229V219.622H180.532V229H179.308ZM191.112 229H189.888V223.762C189.888 222.658 189.72 221.854 189.384 221.35C189.06 220.834 188.556 220.576 187.872 220.576C187.392 220.576 186.918 220.696 186.45 220.936C185.982 221.164 185.568 221.482 185.208 221.89C184.86 222.286 184.608 222.742 184.452 223.258V229H183.228V219.622H184.344V221.746C184.716 221.062 185.262 220.51 185.982 220.09C186.702 219.67 187.482 219.46 188.322 219.46C189.018 219.46 189.57 219.628 189.978 219.964C190.386 220.288 190.674 220.756 190.842 221.368C191.022 221.968 191.112 222.682 191.112 223.51V229ZM193.092 224.338C193.092 223.45 193.272 222.64 193.632 221.908C194.004 221.164 194.514 220.57 195.162 220.126C195.81 219.682 196.548 219.46 197.376 219.46C198.156 219.46 198.852 219.67 199.464 220.09C200.088 220.498 200.574 220.996 200.922 221.584V215.86H202.146V227.524C202.146 227.848 202.29 228.016 202.578 228.028V229C202.338 229.036 202.152 229.048 202.02 229.036C201.756 229.024 201.528 228.928 201.336 228.748C201.156 228.556 201.066 228.34 201.066 228.1V227.182C200.694 227.794 200.19 228.28 199.554 228.64C198.918 229 198.258 229.18 197.574 229.18C196.926 229.18 196.326 229.048 195.774 228.784C195.222 228.52 194.742 228.16 194.334 227.704C193.938 227.248 193.632 226.732 193.416 226.156C193.2 225.568 193.092 224.962 193.092 224.338ZM200.922 225.778V222.88C200.766 222.448 200.514 222.058 200.166 221.71C199.818 221.35 199.422 221.068 198.978 220.864C198.546 220.648 198.114 220.54 197.682 220.54C197.01 220.54 196.422 220.726 195.918 221.098C195.426 221.458 195.042 221.932 194.766 222.52C194.49 223.096 194.352 223.702 194.352 224.338C194.352 225.01 194.502 225.634 194.802 226.21C195.114 226.786 195.534 227.248 196.062 227.596C196.59 227.932 197.184 228.1 197.844 228.1C198.252 228.1 198.678 227.998 199.122 227.794C199.578 227.578 199.974 227.296 200.31 226.948C200.658 226.6 200.862 226.21 200.922 225.778ZM208.969 229.18C208.069 229.18 207.265 228.958 206.557 228.514C205.849 228.07 205.291 227.476 204.883 226.732C204.475 225.988 204.271 225.172 204.271 224.284C204.271 223.408 204.469 222.604 204.865 221.872C205.273 221.14 205.831 220.558 206.539 220.126C207.247 219.682 208.051 219.46 208.951 219.46C209.875 219.46 210.685 219.682 211.381 220.126C212.077 220.57 212.617 221.158 213.001 221.89C213.397 222.61 213.595 223.402 213.595 224.266C213.595 224.458 213.589 224.62 213.577 224.752H205.549C205.609 225.424 205.801 226.024 206.125 226.552C206.449 227.068 206.863 227.482 207.367 227.794C207.871 228.094 208.423 228.244 209.023 228.244C209.635 228.244 210.211 228.088 210.751 227.776C211.291 227.464 211.675 227.056 211.903 226.552L212.965 226.84C212.773 227.296 212.473 227.704 212.065 228.064C211.669 228.412 211.207 228.688 210.679 228.892C210.151 229.084 209.581 229.18 208.969 229.18ZM205.513 223.87H212.443C212.395 223.198 212.209 222.604 211.885 222.088C211.561 221.56 211.147 221.152 210.643 220.864C210.139 220.564 209.581 220.414 208.969 220.414C208.357 220.414 207.799 220.564 207.295 220.864C206.791 221.152 206.377 221.56 206.053 222.088C205.741 222.604 205.561 223.198 205.513 223.87ZM214.854 224.338C214.854 223.45 215.034 222.64 215.394 221.908C215.766 221.164 216.276 220.57 216.924 220.126C217.572 219.682 218.31 219.46 219.138 219.46C219.918 219.46 220.614 219.67 221.226 220.09C221.85 220.498 222.336 220.996 222.684 221.584V215.86H223.908V227.524C223.908 227.848 224.052 228.016 224.34 228.028V229C224.1 229.036 223.914 229.048 223.782 229.036C223.518 229.024 223.29 228.928 223.098 228.748C222.918 228.556 222.828 228.34 222.828 228.1V227.182C222.456 227.794 221.952 228.28 221.316 228.64C220.68 229 220.02 229.18 219.336 229.18C218.688 229.18 218.088 229.048 217.536 228.784C216.984 228.52 216.504 228.16 216.096 227.704C215.7 227.248 215.394 226.732 215.178 226.156C214.962 225.568 214.854 224.962 214.854 224.338ZM222.684 225.778V222.88C222.528 222.448 222.276 222.058 221.928 221.71C221.58 221.35 221.184 221.068 220.74 220.864C220.308 220.648 219.876 220.54 219.444 220.54C218.772 220.54 218.184 220.726 217.68 221.098C217.188 221.458 216.804 221.932 216.528 222.52C216.252 223.096 216.114 223.702 216.114 224.338C216.114 225.01 216.264 225.634 216.564 226.21C216.876 226.786 217.296 227.248 217.824 227.596C218.352 227.932 218.946 228.1 219.606 228.1C220.014 228.1 220.44 227.998 220.884 227.794C221.34 227.578 221.736 227.296 222.072 226.948C222.42 226.6 222.624 226.21 222.684 225.778ZM236.057 229.18C235.277 229.18 234.575 228.976 233.951 228.568C233.339 228.16 232.853 227.656 232.493 227.056V232.834H231.269V219.622H232.367V221.44C232.739 220.852 233.231 220.378 233.843 220.018C234.467 219.646 235.139 219.46 235.859 219.46C236.507 219.46 237.101 219.598 237.641 219.874C238.181 220.138 238.649 220.498 239.045 220.954C239.453 221.41 239.765 221.932 239.981 222.52C240.197 223.096 240.305 223.696 240.305 224.32C240.305 225.196 240.125 226.006 239.765 226.75C239.417 227.482 238.919 228.07 238.271 228.514C237.635 228.958 236.897 229.18 236.057 229.18ZM235.715 228.1C236.399 228.1 236.987 227.92 237.479 227.56C237.983 227.188 238.373 226.714 238.649 226.138C238.925 225.562 239.063 224.956 239.063 224.32C239.063 223.648 238.907 223.024 238.595 222.448C238.283 221.872 237.863 221.41 237.335 221.062C236.819 220.714 236.231 220.54 235.571 220.54C235.163 220.54 234.731 220.648 234.275 220.864C233.831 221.068 233.435 221.35 233.087 221.71C232.751 222.058 232.553 222.442 232.493 222.862V225.742C232.769 226.402 233.201 226.96 233.789 227.416C234.377 227.872 235.019 228.1 235.715 228.1ZM246.428 229.18C245.528 229.18 244.724 228.958 244.016 228.514C243.308 228.07 242.75 227.476 242.342 226.732C241.934 225.988 241.73 225.172 241.73 224.284C241.73 223.408 241.928 222.604 242.324 221.872C242.732 221.14 243.29 220.558 243.998 220.126C244.706 219.682 245.51 219.46 246.41 219.46C247.334 219.46 248.144 219.682 248.84 220.126C249.536 220.57 250.076 221.158 250.46 221.89C250.856 222.61 251.054 223.402 251.054 224.266C251.054 224.458 251.048 224.62 251.036 224.752H243.008C243.068 225.424 243.26 226.024 243.584 226.552C243.908 227.068 244.322 227.482 244.826 227.794C245.33 228.094 245.882 228.244 246.482 228.244C247.094 228.244 247.67 228.088 248.21 227.776C248.75 227.464 249.134 227.056 249.362 226.552L250.424 226.84C250.232 227.296 249.932 227.704 249.524 228.064C249.128 228.412 248.666 228.688 248.138 228.892C247.61 229.084 247.04 229.18 246.428 229.18ZM242.972 223.87H249.902C249.854 223.198 249.668 222.604 249.344 222.088C249.02 221.56 248.606 221.152 248.102 220.864C247.598 220.564 247.04 220.414 246.428 220.414C245.816 220.414 245.258 220.564 244.754 220.864C244.25 221.152 243.836 221.56 243.512 222.088C243.2 222.604 243.02 223.198 242.972 223.87ZM256.939 229.18C256.039 229.18 255.235 228.958 254.527 228.514C253.831 228.07 253.285 227.482 252.889 226.75C252.493 226.006 252.295 225.202 252.295 224.338C252.295 223.462 252.493 222.658 252.889 221.926C253.297 221.182 253.849 220.588 254.545 220.144C255.253 219.688 256.051 219.46 256.939 219.46C257.839 219.46 258.637 219.688 259.333 220.144C260.041 220.588 260.593 221.182 260.989 221.926C261.397 222.658 261.601 223.462 261.601 224.338C261.601 225.202 261.403 226.006 261.007 226.75C260.611 227.482 260.059 228.07 259.351 228.514C258.655 228.958 257.851 229.18 256.939 229.18ZM253.537 224.356C253.537 225.052 253.687 225.688 253.987 226.264C254.299 226.828 254.713 227.278 255.229 227.614C255.745 227.938 256.315 228.1 256.939 228.1C257.563 228.1 258.133 227.932 258.649 227.596C259.165 227.26 259.579 226.804 259.891 226.228C260.203 225.652 260.359 225.016 260.359 224.32C260.359 223.624 260.203 222.988 259.891 222.412C259.579 221.836 259.165 221.38 258.649 221.044C258.133 220.708 257.563 220.54 256.939 220.54C256.327 220.54 255.763 220.714 255.247 221.062C254.731 221.398 254.317 221.854 254.005 222.43C253.693 223.006 253.537 223.648 253.537 224.356ZM268.436 229.18C267.656 229.18 266.954 228.976 266.33 228.568C265.718 228.16 265.232 227.656 264.872 227.056V232.834H263.648V219.622H264.746V221.44C265.118 220.852 265.61 220.378 266.222 220.018C266.846 219.646 267.518 219.46 268.238 219.46C268.886 219.46 269.48 219.598 270.02 219.874C270.56 220.138 271.028 220.498 271.424 220.954C271.832 221.41 272.144 221.932 272.36 222.52C272.576 223.096 272.684 223.696 272.684 224.32C272.684 225.196 272.504 226.006 272.144 226.75C271.796 227.482 271.298 228.07 270.65 228.514C270.014 228.958 269.276 229.18 268.436 229.18ZM268.094 228.1C268.778 228.1 269.366 227.92 269.858 227.56C270.362 227.188 270.752 226.714 271.028 226.138C271.304 225.562 271.442 224.956 271.442 224.32C271.442 223.648 271.286 223.024 270.974 222.448C270.662 221.872 270.242 221.41 269.714 221.062C269.198 220.714 268.61 220.54 267.95 220.54C267.542 220.54 267.11 220.648 266.654 220.864C266.21 221.068 265.814 221.35 265.466 221.71C265.13 222.058 264.932 222.442 264.872 222.862V225.742C265.148 226.402 265.58 226.96 266.168 227.416C266.756 227.872 267.398 228.1 268.094 228.1ZM274.811 215.86H276.035V226.876C276.035 227.344 276.113 227.65 276.269 227.794C276.437 227.938 276.647 228.01 276.899 228.01C277.115 228.01 277.331 227.986 277.547 227.938C277.775 227.89 277.961 227.842 278.105 227.794L278.321 228.784C278.093 228.88 277.811 228.958 277.475 229.018C277.151 229.078 276.869 229.108 276.629 229.108C276.077 229.108 275.633 228.946 275.297 228.622C274.973 228.298 274.811 227.854 274.811 227.29V215.86ZM283.712 229.18C282.812 229.18 282.008 228.958 281.3 228.514C280.592 228.07 280.034 227.476 279.626 226.732C279.218 225.988 279.014 225.172 279.014 224.284C279.014 223.408 279.212 222.604 279.608 221.872C280.016 221.14 280.574 220.558 281.282 220.126C281.99 219.682 282.794 219.46 283.694 219.46C284.618 219.46 285.428 219.682 286.124 220.126C286.82 220.57 287.36 221.158 287.744 221.89C288.14 222.61 288.338 223.402 288.338 224.266C288.338 224.458 288.332 224.62 288.32 224.752H280.292C280.352 225.424 280.544 226.024 280.868 226.552C281.192 227.068 281.606 227.482 282.11 227.794C282.614 228.094 283.166 228.244 283.766 228.244C284.378 228.244 284.954 228.088 285.494 227.776C286.034 227.464 286.418 227.056 286.646 226.552L287.708 226.84C287.516 227.296 287.216 227.704 286.808 228.064C286.412 228.412 285.95 228.688 285.422 228.892C284.894 229.084 284.324 229.18 283.712 229.18ZM280.256 223.87H287.186C287.138 223.198 286.952 222.604 286.628 222.088C286.304 221.56 285.89 221.152 285.386 220.864C284.882 220.564 284.324 220.414 283.712 220.414C283.1 220.414 282.542 220.564 282.038 220.864C281.534 221.152 281.12 221.56 280.796 222.088C280.484 222.604 280.304 223.198 280.256 223.87ZM290.046 229V227.236H291.108V229H290.046Z" fill="black"/>
</g>
<defs>
<linearGradient id="paint0_linear" x1="350" y1="0" x2="350" y2="300" gradientUnits="userSpaceOnUse">
<stop stop-color="#0CB9E4"/>
<stop offset="1" stop-color="#FF6584"/>
</linearGradient>
<linearGradient id="paint1_linear" x1="481.843" y1="54.0713" x2="481.843" y2="255.291" gradientUnits="userSpaceOnUse">
<stop stop-color="#F2F2F2"/>
<stop offset="1" stop-color="#F2F2F2" stop-opacity="0"/>
</linearGradient>
<clipPath id="clip0">
<rect width="700" height="300" rx="12" fill="white"/>
</clipPath>
</defs>
</svg>
