<svg width="50" height="50" viewBox="0 0 50 50" fill="none" xmlns="http://www.w3.org/2000/svg">
<path d="M25.7125 19.4781C25.8453 19.4344 25.9828 19.3937 26.1187 19.3547C25.8609 18.7703 25.5781 18.1844 25.2844 17.6062C19.9859 19.1922 14.9016 19.0781 14.7188 19.0719C14.7156 19.1828 14.7109 19.2891 14.7109 19.4C14.7109 22.0437 15.7078 24.4547 17.3469 26.275C17.3422 26.2703 20.1594 21.2734 25.7125 19.4781Z" fill="black"/>
<path d="M24.4297 16.0219C22.6484 12.8578 20.7453 10.275 20.6078 10.0922C17.7375 11.4469 15.5969 14.0922 14.9281 17.2781C15.2016 17.2797 19.4891 17.3344 24.4297 16.0219Z" fill="black"/>
<path d="M26.75 21.0828C20.6781 23.1984 18.6953 27.4641 18.675 27.5109C20.4219 28.8703 22.6125 29.6891 25 29.6891C26.425 29.6891 27.7828 29.3984 29.0172 28.8719C28.8656 27.9719 28.2672 24.8219 26.8188 21.0578C26.7953 21.0687 26.7734 21.075 26.75 21.0828Z" fill="black"/>
<path d="M31.7953 11.6766C29.9844 10.0797 27.6047 9.10937 25 9.10937C24.1641 9.10937 23.3516 9.21093 22.575 9.39843C22.7297 9.60468 24.6609 12.1687 26.4219 15.4C30.3047 13.9453 31.7703 11.7141 31.7953 11.6766Z" fill="black"/>
<path d="M5.03125 0.00468445V38.7937H18.8203L24.9109 49.9953L31.0016 38.7937H44.9719V0.00468445H5.03125ZM36.8047 21.825C36.6453 22.6 36.4109 23.3625 36.1016 24.0906C35.8 24.8047 35.4266 25.4937 34.9906 26.1375C34.5609 26.7766 34.0656 27.375 33.5203 27.9203C32.975 28.4625 32.375 28.9578 31.7375 29.3922C31.0938 29.8266 30.4047 30.1984 29.6906 30.5031C28.9625 30.8109 28.2016 31.0453 27.4266 31.2047C26.6313 31.3687 25.8156 31.4516 25 31.4516C24.1828 31.4516 23.3656 31.3687 22.5734 31.2047C21.7984 31.0453 21.0359 30.8109 20.3094 30.5031C19.5953 30.2 18.9063 29.8266 18.2609 29.3922C17.6234 28.9594 17.0234 28.4641 16.4797 27.9203C15.9344 27.3734 15.4391 26.775 15.0078 26.1375C14.5734 25.4953 14.1984 24.8047 13.8969 24.0906C13.5891 23.3625 13.3531 22.6016 13.1922 21.825C13.0312 21.0312 12.9484 20.2156 12.9484 19.4C12.9484 18.5828 13.0312 17.7656 13.1922 16.9734C13.3516 16.1984 13.5875 15.4359 13.8953 14.7094C14.1984 13.9937 14.5719 13.3047 15.0063 12.6609C15.4359 12.0219 15.9328 11.4234 16.4781 10.8781C17.0219 10.3344 17.6219 9.84062 18.2594 9.40937C18.9031 8.97343 19.5922 8.6 20.3078 8.29687C21.0344 7.98906 21.7969 7.75312 22.5719 7.59531C23.3656 7.43281 24.1813 7.35 24.9984 7.35C25.8141 7.35 26.6313 7.43281 27.425 7.59531C28.1984 7.75312 28.9609 7.98906 29.6891 8.29687C30.4031 8.6 31.0922 8.97343 31.7359 9.40937C32.3734 9.84062 32.9734 10.3344 33.5188 10.8781C34.0625 11.425 34.5594 12.0219 34.9891 12.6609C35.4266 13.3031 35.8 13.9922 36.1 14.7094C36.4094 15.4359 36.6438 16.1984 36.8031 16.9734C36.9656 17.7656 37.05 18.5828 37.05 19.4C37.05 20.2156 36.9672 21.0312 36.8047 21.825Z" fill="black"/>
<path d="M28.7484 20.5828C30.0984 24.2922 30.6469 27.3125 30.7516 27.9328C33.0625 26.3734 34.7031 23.8984 35.1609 21.0297C34.9469 20.9625 32.0687 20.0516 28.7484 20.5828Z" fill="black"/>
<path d="M27.2141 16.9344C27.4531 17.425 27.6844 17.925 27.8984 18.4266C27.975 18.6062 28.0484 18.7828 28.1203 18.9594C31.6563 18.5141 35.1375 19.2625 35.2875 19.2937C35.2641 16.8547 34.3906 14.6156 32.9469 12.8625C32.9281 12.8906 31.2766 15.275 27.2141 16.9344Z" fill="black"/>
</svg>
