<?xml version="1.0" ?><svg id="Layer_1" style="enable-background:new 0 0 128 128;" version="1.1" viewBox="0 0 128 128" xml:space="preserve" xmlns="http://www.w3.org/2000/svg" xmlns:xlink="http://www.w3.org/1999/xlink"><style type="text/css">
	.st0{opacity:0.2;fill-rule:evenodd;clip-rule:evenodd;}
	.st1{fill-rule:evenodd;clip-rule:evenodd;fill:#F0556A;}
	.st2{fill-rule:evenodd;clip-rule:evenodd;fill:#FB8292;}
	.st3{fill-rule:evenodd;clip-rule:evenodd;fill:url(#SVGID_1_);}
	.st4{fill-rule:evenodd;clip-rule:evenodd;fill:#FFFFFF;}
</style><g><path class="st0" d="M34,79.7l93,4.4c1.2,0.1,1.4,1,0.4,2.1l-27,32.8c-0.9,1.1-2.6,2.1-3.8,1.9L5.5,109.7c-1.1-0.1-1.4-1.1-0.4-2.1   l25.2-25.9C31.2,80.6,32.8,79.7,34,79.7z"/><polygon class="st1" points="1.6,10 3.6,8 4,7.6 4.5,7.4 4.9,7.1 5.4,7 5.9,6.8 6.4,6.8 7,6.8 7.5,6.8 97.6,18.1 98.1,18.2    98.7,18.4 99.2,18.6 99.7,18.8 100.2,19.1 100.6,19.5 101.1,19.9 101.5,20.3 101.8,20.7 102.1,21.2 102.4,21.7 102.6,22.2    102.8,22.7 102.9,23.3 103,23.8 103.1,24.4 103.1,114.3 103,114.8 102.9,115.4 102.8,115.9 102.6,116.4 102.4,116.8 102.1,117.3    101.8,117.7 99.8,119.7 100.1,119.3 100.4,118.9 100.6,118.4 100.8,117.9 100.9,117.4 101,116.9 101,116.3 101,26.4 101,25.9    100.9,25.3 100.8,24.7 100.6,24.2 100.4,23.7 100.1,23.2 99.8,22.7 99.4,22.3 99,21.9 98.6,21.5 98.2,21.2 97.7,20.9 97.2,20.6    96.6,20.4 96.1,20.3 95.5,20.2 5.5,8.8 4.9,8.8 4.4,8.8 3.9,8.9 3.4,9 2.9,9.2 2.4,9.4 2,9.7  "/><polygon class="st2" points="1.6,10 2.6,9 3,8.7 3.4,8.4 3.9,8.2 4.4,8 4.9,7.9 5.4,7.8 5.9,7.8 6.5,7.8 96.6,19.2 97.1,19.3    97.7,19.4 98.2,19.6 98.7,19.9 99.2,20.2 99.6,20.5 100,20.9 100.4,21.3 100.8,21.7 101.1,22.2 101.4,22.7 101.6,23.2 101.8,23.7    101.9,24.3 102,24.8 102,25.4 102,115.3 102,115.9 101.9,116.4 101.8,116.9 101.6,117.4 101.4,117.9 101.1,118.3 100.8,118.7    99.8,119.7 100.1,119.3 100.4,118.9 100.6,118.4 100.8,117.9 100.9,117.4 101,116.9 101,116.3 101,26.4 101,25.9 100.9,25.3    100.8,24.7 100.6,24.2 100.4,23.7 100.1,23.2 99.8,22.7 99.4,22.3 99,21.9 98.6,21.5 98.2,21.2 97.7,20.9 97.2,20.6 96.6,20.4    96.1,20.3 95.5,20.2 5.5,8.8 4.9,8.8 4.4,8.8 3.9,8.9 3.4,9 2.9,9.2 2.4,9.4 2,9.7  "/><linearGradient gradientUnits="userSpaceOnUse" id="SVGID_1_" x1="57.8531" x2="43.1738" y1="12.7872" y2="117.2359"><stop offset="0" style="stop-color:#EE368E"/><stop offset="0.23" style="stop-color:#ED328D"/><stop offset="0.46" style="stop-color:#ED0579"/><stop offset="1" style="stop-color:#ED1556"/></linearGradient><path class="st3" d="M5.5,8.8l90.1,11.3c3,0.4,5.5,3.2,5.5,6.3v89.9c0,3.1-2.5,5.3-5.5,4.9L5.5,109.9c-3-0.4-5.5-3.2-5.5-6.3V13.7   C0,10.7,2.5,8.5,5.5,8.8z"/><path class="st4" d="M50.5,106.4C27.7,103.6,9.1,82.6,9.1,59.8c0-22.8,18.6-39.1,41.4-36.2c22.8,2.9,41.4,23.8,41.4,46.6   C91.9,93.1,73.4,109.3,50.5,106.4L50.5,106.4z M85.5,75.1c-1.2-0.5-11-4.7-22-4.3c4.6,13.3,6.5,23.9,6.9,26.1   C78.2,92.5,83.9,84.7,85.5,75.1L85.5,75.1z M64.3,99.4c-0.5-3.2-2.6-14.2-7.6-27.8l-0.2,0.1c-20,4.4-27.1,17.4-27.8,18.6   c6,5.4,13.5,9.2,21.7,10.2C55.4,101.1,60.1,100.7,64.3,99.4L64.3,99.4z M24.2,85.4C25,84.2,34.7,69.3,53,65.7   c0.5-0.1,0.9-0.2,1.4-0.2c-0.9-2.1-1.9-4.3-2.9-6.4c-17.7,3.1-34.8,0.7-36.4,0.5c0,0.4,0,0.7,0,1.1C15.1,69.7,18.6,78.4,24.2,85.4   L24.2,85.4z M15.9,53.5c1.6,0.2,16.2,2.1,32.7-0.2c-5.9-11.2-12.2-20.7-13.1-22.1C25.6,34.6,18.2,42.8,15.9,53.5L15.9,53.5z    M42.2,29.6c1,1.4,7.4,11,13.2,22.4C68,48.9,73.3,42.4,74,41.6c-6.2-6.3-14.5-10.7-23.5-11.9C47.7,29.3,44.9,29.3,42.2,29.6   L42.2,29.6z M77.9,46.1c-0.7,0.9-6.7,7.8-19.8,11.5c0.8,1.8,1.6,3.6,2.4,5.4c0.3,0.6,0.5,1.3,0.8,1.9c11.8,0,23.5,3.8,24.6,4.2   C85.8,60.8,82.8,52.8,77.9,46.1z"/></g></svg>