<?xml version="1.0" ?><svg enable-background="new 0 0 32 32" version="1.1" viewBox="0 0 32 32" xml:space="preserve" xmlns="http://www.w3.org/2000/svg" xmlns:xlink="http://www.w3.org/1999/xlink"><g id="Glyph"><g><path d="M16.456,12.466c0.085-0.028,0.173-0.054,0.26-0.079c-0.165-0.374-0.346-0.749-0.534-1.119    c-3.391,1.015-6.645,0.942-6.762,0.938c-0.002,0.071-0.005,0.139-0.005,0.21c0,1.692,0.638,3.235,1.687,4.4    C11.099,16.813,12.902,13.615,16.456,12.466z"/><path d="M15.635,10.254c-1.14-2.025-2.358-3.678-2.446-3.795c-1.837,0.867-3.207,2.56-3.635,4.599    C9.729,11.059,12.473,11.094,15.635,10.254z"/><path d="M17.12,13.493c-3.886,1.354-5.155,4.084-5.168,4.114c1.118,0.87,2.52,1.394,4.048,1.394c0.912,0,1.781-0.186,2.571-0.523    c-0.097-0.576-0.48-2.592-1.407-5.001C17.149,13.484,17.135,13.488,17.12,13.493z"/><path d="M20.349,7.473C19.19,6.451,17.667,5.83,16,5.83c-0.535,0-1.055,0.065-1.552,0.185c0.099,0.132,1.335,1.773,2.462,3.841    C19.395,8.925,20.333,7.497,20.349,7.473z"/><path d="M3.22,0.003v24.825h8.825l3.898,7.169l3.898-7.169h8.941V0.003H3.22z M23.555,13.968c-0.102,0.496-0.252,0.984-0.45,1.45    c-0.193,0.457-0.432,0.898-0.711,1.31c-0.275,0.409-0.592,0.792-0.941,1.141c-0.349,0.347-0.733,0.664-1.141,0.942    c-0.412,0.278-0.853,0.516-1.31,0.711c-0.466,0.197-0.953,0.347-1.449,0.449c-0.509,0.105-1.031,0.158-1.553,0.158    c-0.523,0-1.046-0.053-1.553-0.158c-0.496-0.102-0.984-0.252-1.449-0.449c-0.457-0.194-0.898-0.433-1.311-0.711    c-0.408-0.277-0.792-0.594-1.14-0.942c-0.349-0.35-0.666-0.733-0.942-1.141c-0.278-0.411-0.518-0.853-0.711-1.31    c-0.197-0.466-0.348-0.953-0.451-1.45c-0.103-0.508-0.156-1.03-0.156-1.552c0-0.523,0.053-1.046,0.156-1.553    c0.102-0.496,0.253-0.984,0.45-1.449c0.194-0.458,0.433-0.899,0.711-1.311c0.275-0.409,0.593-0.792,0.942-1.141    c0.348-0.348,0.732-0.664,1.14-0.94c0.412-0.279,0.853-0.518,1.311-0.712c0.465-0.197,0.953-0.348,1.449-0.449    c0.508-0.104,1.03-0.157,1.553-0.157c0.522,0,1.045,0.053,1.553,0.157c0.495,0.101,0.983,0.252,1.449,0.449    c0.457,0.194,0.898,0.433,1.31,0.712c0.408,0.276,0.792,0.592,1.141,0.94c0.348,0.35,0.666,0.732,0.941,1.141    c0.28,0.411,0.519,0.852,0.711,1.311c0.198,0.465,0.348,0.953,0.45,1.449c0.104,0.507,0.158,1.03,0.158,1.553    C23.712,12.938,23.659,13.46,23.555,13.968z"/><path d="M18.399,13.173c0.864,2.374,1.215,4.307,1.282,4.704c1.479-0.998,2.529-2.582,2.822-4.418    C22.366,13.416,20.524,12.833,18.399,13.173z"/><path d="M17.417,10.838c0.153,0.314,0.301,0.634,0.438,0.955c0.049,0.115,0.096,0.228,0.142,0.341    c2.263-0.285,4.491,0.194,4.587,0.214c-0.015-1.561-0.574-2.994-1.498-4.116C21.074,8.25,20.017,9.776,17.417,10.838z"/></g></g></svg>