<svg width="60" height="60" viewBox="0 0 60 60" fill="none" xmlns="http://www.w3.org/2000/svg">
<g clip-path="url(#clip0)">
<path fill-rule="evenodd" clip-rule="evenodd" d="M0 54.5193V5.48069C0 2.45781 2.4549 0 5.47977 0H54.5202C57.5426 0 60 2.45781 60 5.48069V54.5193C60 57.5447 57.5426 60 54.5202 60H5.47977C2.4549 60 0 57.5447 0 54.5193ZM58.1251 54.5193V5.48069C58.1251 3.49544 56.5051 1.87524 54.5202 1.87524H5.47977C3.49235 1.87524 1.87492 3.49544 1.87492 5.48069V54.5193C1.87492 56.5071 3.49235 58.1248 5.47977 58.1248H54.5202C56.5051 58.1248 58.1251 56.5071 58.1251 54.5193Z" fill="black"/>
<path fill-rule="evenodd" clip-rule="evenodd" d="M9.36961 30.0038C9.36961 18.6173 18.6092 9.37368 29.9988 9.37368C41.3858 9.37368 50.6279 18.6173 50.6279 30.0038C50.6279 41.3927 41.3858 50.6338 29.9988 50.6338C18.6092 50.6338 9.36961 41.3927 9.36961 30.0038ZM38.8784 46.5233C38.2584 41.6202 37.2035 37.2372 35.7435 33.2392C28.7713 34.4793 23.354 39.1149 20.8666 46.3883C23.569 47.8985 26.6839 48.7586 29.9988 48.7586C33.2086 48.7586 36.2335 47.951 38.8784 46.5233ZM48.248 34.3318C44.5057 33.1291 40.9308 32.7041 37.6484 32.9891C38.9984 36.7771 40.0033 40.8976 40.6308 45.4532C44.3932 42.8554 47.1655 38.9199 48.248 34.3318ZM35.061 31.4689C34.2811 29.5512 33.4036 27.7235 32.4337 25.9658C26.7814 29.3487 19.3617 30.0813 11.387 27.681C11.292 28.4436 11.2445 29.2187 11.2445 30.0038C11.2445 36.3546 14.4044 41.9728 19.2392 45.3657C21.9916 37.7422 27.7688 32.8866 35.061 31.4689ZM48.753 30.0038C48.753 23.9105 45.8356 18.4873 41.3233 15.0619C39.7633 19.2399 37.231 22.5653 34.0036 24.9281C35.1085 26.9159 36.0985 28.9911 36.9685 31.1814C40.5783 30.7864 44.5081 31.1914 48.5905 32.4716C48.698 31.664 48.753 30.8414 48.753 30.0038ZM31.4987 24.3456C29.1013 20.3526 26.2014 16.7296 22.8541 13.2642C22.7141 13.1241 22.6316 12.9491 22.6016 12.7666C17.1668 15.1069 13.0545 19.94 11.712 25.8207C19.3367 28.171 26.2739 27.4959 31.4987 24.3456ZM39.7233 13.9718C36.886 12.244 33.5586 11.2489 29.9988 11.2489C28.0288 11.2489 26.1314 11.554 24.349 12.1165C27.7039 15.607 30.6262 19.2674 33.0561 23.2954C36.041 21.0551 38.3434 17.9022 39.7233 13.9718Z" fill="black"/>
</g>
<defs>
<clipPath id="clip0">
<rect width="60" height="60" fill="white"/>
</clipPath>
</defs>
</svg>
