<svg width="50" height="50" viewBox="0 0 50 50" fill="none" xmlns="http://www.w3.org/2000/svg">
<path d="M8.75 50L41.25 50C46.0825 50 50 46.0825 50 41.25L50 8.75C50 3.91751 46.0825 0 41.25 0L8.75 0C3.91751 0 0 3.91751 0 8.75L0 41.25C0 46.0825 3.91751 50 8.75 50Z" fill="url(#paint0_radial)"/>
<path d="M34.375 43.75H15.625C13.1386 43.75 10.754 42.7623 8.99587 41.0041C7.23772 39.246 6.25 36.8614 6.25 34.375V15.625C6.25 13.1386 7.23772 10.754 8.99587 8.99587C10.754 7.23772 13.1386 6.25 15.625 6.25H34.375C36.8614 6.25 39.246 7.23772 41.0041 8.99587C42.7623 10.754 43.75 13.1386 43.75 15.625V34.375C43.75 36.8614 42.7623 39.246 41.0041 41.0041C39.246 42.7623 36.8614 43.75 34.375 43.75V43.75ZM15.625 10C14.1338 10.0021 12.7043 10.5954 11.6498 11.6498C10.5954 12.7043 10.0021 14.1338 10 15.625V34.375C10.0021 35.8662 10.5954 37.2957 11.6498 38.3502C12.7043 39.4046 14.1338 39.9979 15.625 40H34.375C35.8662 39.9979 37.2957 39.4046 38.3502 38.3502C39.4046 37.2957 39.9979 35.8662 40 34.375V15.625C39.9979 14.1338 39.4046 12.7043 38.3502 11.6498C37.2957 10.5954 35.8662 10.0021 34.375 10H15.625Z" fill="white"/>
<path d="M25 35.625C22.8986 35.625 20.8443 35.0019 19.0971 33.8344C17.3498 32.6669 15.988 31.0075 15.1838 29.066C14.3796 27.1246 14.1692 24.9882 14.5792 22.9272C14.9891 20.8661 16.0011 18.9729 17.487 17.487C18.9729 16.0011 20.8661 14.9891 22.9272 14.5792C24.9882 14.1692 27.1246 14.3796 29.066 15.1838C31.0075 15.988 32.6669 17.3498 33.8344 19.0971C35.0019 20.8443 35.625 22.8986 35.625 25C35.6229 27.8173 34.5029 30.5186 32.5107 32.5107C30.5186 34.5029 27.8173 35.6229 25 35.625V35.625ZM25 18.125C23.6403 18.125 22.311 18.5282 21.1805 19.2837C20.0499 20.0391 19.1687 21.1128 18.6483 22.3691C18.128 23.6253 17.9918 25.0076 18.2571 26.3412C18.5224 27.6749 19.1772 28.8999 20.1386 29.8614C21.1001 30.8228 22.3251 31.4776 23.6588 31.7429C24.9924 32.0082 26.3747 31.872 27.631 31.3517C28.8872 30.8313 29.9609 29.9501 30.7164 28.8196C31.4718 27.689 31.875 26.3598 31.875 25C31.8729 23.1773 31.1479 21.4298 29.8591 20.1409C28.5702 18.8521 26.8227 18.1271 25 18.125V18.125Z" fill="white"/>
<path d="M35.625 16.875C36.6605 16.875 37.5 16.0355 37.5 15C37.5 13.9645 36.6605 13.125 35.625 13.125C34.5895 13.125 33.75 13.9645 33.75 15C33.75 16.0355 34.5895 16.875 35.625 16.875Z" fill="white"/>
<defs>
<radialGradient id="paint0_radial" cx="0" cy="0" r="1" gradientUnits="userSpaceOnUse" gradientTransform="translate(-1.00586 48.9844) rotate(180) scale(115.465)">
<stop stop-color="#F9ED32"/>
<stop offset="0.36" stop-color="#EE2A7B"/>
<stop offset="0.44" stop-color="#D22A8A"/>
<stop offset="0.6" stop-color="#8B2AB2"/>
<stop offset="0.83" stop-color="#1B2AF0"/>
<stop offset="0.88" stop-color="#002AFF"/>
</radialGradient>
</defs>
</svg>
