<svg width="700" height="300" viewBox="0 0 700 300" fill="none" xmlns="http://www.w3.org/2000/svg">
<g clip-path="url(#clip0)">
<rect width="700" height="300" rx="12" fill="url(#paint0_linear)"/>
<path d="M425.589 54.0713L402.442 100.753H407.115V138.82H383.566L370 166.179L538.097 255.291L593.686 143.182L425.589 54.0713Z" fill="url(#paint1_linear)"/>
<path d="M403.609 106.191H375.558V135.194H403.609V106.191Z" fill="#3F3D56"/>
<path d="M495.965 131.569H496.088V129.756H495.881L495.76 127.178C495.747 126.892 495.624 126.622 495.418 126.429C495.213 126.236 494.942 126.136 494.664 126.15L485.32 126.617C485.183 126.624 485.048 126.658 484.924 126.719C484.8 126.78 484.688 126.865 484.596 126.97C484.504 127.075 484.432 127.198 484.386 127.332C484.339 127.466 484.319 127.608 484.326 127.75L485.255 147.621C485.268 147.908 485.391 148.177 485.597 148.37C485.802 148.563 486.073 148.663 486.35 148.649L495.695 148.182C495.832 148.175 495.966 148.141 496.091 148.08C496.215 148.019 496.326 147.934 496.419 147.829C496.511 147.724 496.583 147.601 496.629 147.467C496.675 147.333 496.696 147.191 496.689 147.049L495.965 131.569Z" fill="#2F2E41"/>
<path d="M490.649 136.926C491.912 136.863 492.89 135.839 492.834 134.639C492.778 133.44 491.709 132.518 490.446 132.581C489.183 132.645 488.204 133.668 488.261 134.868C488.317 136.068 489.386 136.989 490.649 136.926Z" fill="#0CB9E4"/>
<path d="M539.478 262.538C584.501 262.538 621 259.088 621 254.834C621 250.579 584.501 247.13 539.478 247.13C494.455 247.13 457.956 250.579 457.956 254.834C457.956 259.088 494.455 262.538 539.478 262.538Z" fill="#3F3D56"/>
<path d="M469.096 241.846C471.156 249.72 478.212 254.596 478.212 254.596C478.212 254.596 481.928 246.707 479.868 238.833C477.808 230.96 470.752 226.084 470.752 226.084C470.752 226.084 467.036 233.973 469.096 241.846Z" fill="#3F3D56"/>
<path d="M472.123 240.154C477.775 245.844 478.466 254.59 478.466 254.59C478.466 254.59 469.992 254.111 464.339 248.422C458.687 242.732 457.996 233.987 457.996 233.987C457.996 233.987 466.47 234.465 472.123 240.154Z" fill="#0CB9E4"/>
<path d="M525.342 55.1191C525.342 55.1191 525.948 57.2103 522.51 59.0923C519.072 60.9743 518.061 68.0842 522.106 70.1753C526.151 72.2664 527.364 74.9849 525.342 76.8669C523.319 78.7489 519.679 83.7676 524.533 85.0223C529.387 86.277 529.993 88.7864 528.578 89.8319C527.162 90.8775 531.814 87.9499 531.814 87.9499C531.814 87.9499 532.623 92.9686 536.87 91.7139C541.117 90.4593 553.049 66.6203 546.982 63.2745C540.914 59.9287 525.342 55.1191 525.342 55.1191Z" fill="#2F2E41"/>
<path d="M541.012 232.401L539.697 245.09L545.395 248.716L550.655 247.809L548.025 232.401H541.012Z" fill="#9F616A"/>
<path d="M536.629 80.133C543.407 80.133 548.901 74.4519 548.901 67.444C548.901 60.436 543.407 54.755 536.629 54.755C529.852 54.755 524.357 60.436 524.357 67.444C524.357 74.4519 529.852 80.133 536.629 80.133Z" fill="#9F616A"/>
<path d="M532.466 73.5619C532.466 73.5619 531.37 92.822 530.055 92.822C528.74 92.822 545.395 91.9157 545.395 91.9157C545.395 91.9157 538.382 79.2267 541.889 75.1481C545.395 71.0695 532.466 73.5619 532.466 73.5619Z" fill="#9F616A"/>
<path d="M550.655 175.301L544.957 197.96L549.34 236.48L539.259 235.573L535.314 175.301H550.655Z" fill="#2F2E41"/>
<path opacity="0.2" d="M550.655 175.301L544.957 197.96L549.34 236.48L539.259 235.573L535.314 175.301H550.655Z" fill="black"/>
<path d="M541.889 242.824C541.889 242.824 541.451 240.105 537.068 242.824C532.685 245.543 514.277 254.154 523.919 255.966C533.561 257.779 553.284 253.701 553.284 252.341C553.284 250.981 553.723 242.371 551.969 243.277C550.216 244.184 544.519 250.075 541.889 242.824Z" fill="#2F2E41"/>
<path d="M547.587 239.652C547.587 239.652 554.599 250.981 555.037 254.154C555.476 257.326 562.05 246.903 562.05 246.903L555.914 235.12L547.587 239.652Z" fill="#9F616A"/>
<path d="M524.357 177.113L532.246 204.304C532.246 204.304 546.272 242.824 547.148 242.371C548.025 241.918 558.544 239.199 558.982 237.839C559.42 236.48 545.833 199.772 545.833 199.772L544.08 176.207L524.357 177.113Z" fill="#2F2E41"/>
<path d="M563.365 245.09C562.168 245.005 560.976 245.309 559.954 245.959C558.933 246.609 558.133 247.573 557.667 248.716C555.914 252.794 553.723 253.247 553.284 253.701C552.846 254.154 554.599 263.67 553.284 264.577C551.969 265.483 550.655 275 555.037 275C559.42 275 566.433 270.015 565.995 269.109C565.556 268.202 565.556 261.858 566.871 259.139C568.186 256.42 570.378 251.888 566.871 249.169C563.365 246.45 563.365 245.09 563.365 245.09Z" fill="#2F2E41"/>
<path d="M521.728 134.968L520.851 143.125C520.851 143.125 514.277 149.923 512.085 158.08C509.894 166.237 491.924 179.832 497.183 181.645C502.443 183.458 508.579 184.364 523.919 181.645C539.259 178.926 563.365 184.817 563.365 169.862C563.365 169.862 566.433 165.784 568.624 171.675C570.168 175.699 571.924 179.633 573.884 183.458C573.884 183.458 579.143 173.941 577.39 169.862C575.637 165.784 577.39 166.237 575.199 161.705C573.007 157.173 562.05 140.406 557.667 139.499C553.284 138.593 544.957 126.81 545.395 125.451C545.833 124.091 521.728 134.968 521.728 134.968Z" fill="#0CB9E4"/>
<path d="M545.395 84.2116C545.395 84.2116 527.425 88.2902 526.549 91.0093C526.056 92.5388 523.76 95.3587 521.845 97.5335C518.613 101.15 516.464 105.659 515.659 110.512C515.202 113.403 517.124 116.003 518.002 119.333C520.632 129.303 522.604 126.81 519.974 134.061C517.345 141.312 533.123 144.031 539.259 140.859C545.395 137.687 552.189 118.88 552.189 116.614C552.189 114.348 558.106 88.7434 553.284 86.9307C548.463 85.1179 545.395 84.2116 545.395 84.2116Z" fill="#575A88"/>
<path d="M520.413 105.964L515.153 129.983L497.841 137.913C497.841 137.913 484.692 134.741 484.254 139.726C483.968 142.981 499.156 144.258 499.156 144.258L524.357 134.061L530.055 111.856L520.413 105.964Z" fill="#9F616A"/>
<path d="M526.549 96.9006C526.549 96.9006 515.591 103.698 518.221 107.324C520.851 110.949 527.425 116.841 529.178 116.841C530.932 116.841 532.246 105.964 532.246 102.792C532.246 99.6197 526.549 96.9006 526.549 96.9006Z" fill="#575A88"/>
<path d="M537.512 50.9667C537.512 50.9667 538.184 53.2832 534.376 55.3681C530.567 57.453 529.447 65.3293 533.928 67.6459C538.408 69.9624 539.753 72.974 537.512 75.0589C535.272 77.1438 531.239 82.7035 536.616 84.0934C541.993 85.4834 542.665 88.2632 541.097 89.4215C539.529 90.5798 544.682 87.3366 544.682 87.3366C544.682 87.3366 545.578 92.8963 550.283 91.5064C554.988 90.1165 559.682 64.8507 554.437 58.3433C549.561 52.2926 537.512 50.9667 537.512 50.9667Z" fill="#2F2E41"/>
<path d="M536.081 48.5823C536.082 45.1884 545.902 47.627 550.113 52.3656C553.028 55.6471 557.456 60.5838 553.746 64.0638C550.035 67.5437 560.106 72.1056 562.808 73.4887C565.509 74.8718 570.842 79.1014 566.026 81.9388C561.211 84.7763 561.288 87.6406 563.101 88.3188C564.913 88.997 559.105 87.3104 559.105 87.3104C559.105 87.3104 559.692 92.9141 554.799 92.8873C549.906 92.8605 535.868 65.0557 539.221 57.3271C542.339 50.141 536.081 48.5823 536.081 48.5823Z" fill="#2F2E41"/>
<path d="M538.208 47.8384C525.076 47.0208 523.758 57.2416 523.758 57.2416C523.849 63.1564 532.933 60.2744 535.456 61.1561C538.5 58.892 544.368 54.608 548.564 51.5507C545.518 49.3327 541.929 48.0462 538.208 47.8384Z" fill="#2F2E41"/>
<path d="M481.391 105.685L480.13 105.258C475.628 103.688 472.67 102.686 471.616 100.23C471.408 99.7668 471.292 99.2647 471.274 98.7539C471.257 98.243 471.339 97.7337 471.515 97.2562C471.692 96.7786 471.959 96.3425 472.301 95.9737C472.643 95.6049 473.054 95.3108 473.508 95.1089C474.043 94.8672 474.622 94.7487 475.205 94.7616C475.788 94.7745 476.362 94.9185 476.886 95.1836C477.047 94.604 477.329 94.0677 477.711 93.6119C478.093 93.1561 478.567 92.7918 479.099 92.5442C479.548 92.3316 480.035 92.2144 480.529 92.1995C481.023 92.1846 481.515 92.2724 481.976 92.4577C482.437 92.643 482.857 92.9219 483.211 93.2781C483.566 93.6342 483.848 94.0603 484.041 94.5311C485.094 96.9866 483.828 99.9266 481.932 104.431L481.391 105.685Z" fill="#FF6584"/>
<path d="M493.289 115.121L492.431 114.83C489.366 113.762 487.353 113.08 486.636 111.408C486.494 111.093 486.415 110.751 486.403 110.403C486.391 110.055 486.447 109.709 486.567 109.384C486.687 109.059 486.869 108.762 487.102 108.511C487.335 108.26 487.614 108.06 487.923 107.922C488.287 107.758 488.681 107.677 489.078 107.686C489.475 107.695 489.866 107.793 490.223 107.973C490.333 107.578 490.524 107.213 490.784 106.903C491.045 106.593 491.367 106.345 491.729 106.176C492.035 106.032 492.366 105.952 492.702 105.942C493.039 105.932 493.374 105.991 493.687 106.117C494.001 106.244 494.287 106.433 494.528 106.676C494.77 106.918 494.962 107.208 495.093 107.529C495.81 109.2 494.948 111.201 493.657 114.268L493.289 115.121Z" fill="#FF6584"/>
<path d="M485.792 73.9106L484.978 73.1309C482.086 70.3134 480.176 68.4842 480.204 66.2378C480.202 65.8103 480.283 65.3867 480.442 64.9921C480.601 64.5976 480.836 64.2401 481.131 63.9408C481.426 63.6414 481.776 63.4064 482.161 63.2496C482.546 63.0928 482.957 63.0173 483.37 63.0277C483.858 63.0369 484.338 63.1558 484.777 63.3761C485.216 63.5964 485.603 63.9128 485.912 64.3034C486.231 63.9212 486.626 63.6151 487.07 63.4066C487.514 63.1981 487.997 63.0921 488.485 63.0959C488.899 63.0965 489.308 63.1829 489.688 63.3499C490.069 63.5169 490.413 63.7612 490.701 64.0683C490.989 64.3753 491.214 64.739 491.363 65.1376C491.513 65.5363 491.583 65.9619 491.57 66.3892C491.542 68.6357 489.588 70.4134 486.626 73.1529L485.792 73.9106Z" fill="#FF6584"/>
<path d="M591.117 236.591H574.964V255.246H591.117V236.591Z" fill="#2F2E41"/>
<path d="M595.414 225.173L603.81 240.209L612.206 255.246H595.414H578.622L587.018 240.209L595.414 225.173Z" fill="#3F3D56"/>
<path d="M117.189 139V107.76H120.269V139H117.189ZM161.588 139H158.596V126.196C158.596 123.556 158.17 121.605 157.32 120.344C156.469 119.053 155.208 118.408 153.536 118.408C151.776 118.408 150.221 119.024 148.872 120.256C147.522 121.488 146.569 123.072 146.012 125.008V139H143.02V126.196C143.02 123.497 142.594 121.532 141.744 120.3C140.922 119.039 139.676 118.408 138.004 118.408C136.273 118.408 134.718 119.009 133.34 120.212C131.99 121.415 131.037 122.999 130.48 124.964V139H127.488V116.076H130.216V121.268C131.154 119.508 132.386 118.144 133.912 117.176C135.437 116.179 137.124 115.68 138.972 115.68C140.878 115.68 142.418 116.237 143.592 117.352C144.765 118.437 145.484 119.845 145.748 121.576C147.86 117.645 150.808 115.68 154.592 115.68C157.173 115.68 158.977 116.589 160.004 118.408C161.06 120.197 161.588 122.588 161.588 125.58V139ZM166.073 132.4C166.073 130.992 166.484 129.775 167.305 128.748C168.126 127.692 169.256 126.871 170.693 126.284C172.16 125.697 173.846 125.404 175.753 125.404C176.868 125.404 178.026 125.507 179.229 125.712C180.432 125.888 181.502 126.137 182.441 126.46V124.524C182.441 122.588 181.869 121.048 180.725 119.904C179.581 118.76 177.997 118.188 175.973 118.188C174.77 118.188 173.568 118.423 172.365 118.892C171.162 119.332 169.916 119.992 168.625 120.872L167.481 118.76C168.977 117.733 170.444 116.971 171.881 116.472C173.318 115.944 174.785 115.68 176.281 115.68C179.097 115.68 181.326 116.487 182.969 118.1C184.612 119.713 185.433 121.943 185.433 124.788V135.392C185.433 136.184 185.8 136.595 186.533 136.624V139C185.888 139.088 185.433 139.117 185.169 139.088C184.436 139.059 183.878 138.824 183.497 138.384C183.116 137.944 182.91 137.475 182.881 136.976L182.837 135.304C181.81 136.624 180.476 137.651 178.833 138.384C177.19 139.088 175.518 139.44 173.817 139.44C172.321 139.44 170.986 139.132 169.813 138.516C168.64 137.871 167.716 137.02 167.041 135.964C166.396 134.879 166.073 133.691 166.073 132.4ZM181.429 134.16C182.104 133.368 182.441 132.635 182.441 131.96V128.616C180.417 127.824 178.305 127.428 176.105 127.428C173.964 127.428 172.233 127.853 170.913 128.704C169.593 129.555 168.933 130.713 168.933 132.18C168.933 133.441 169.417 134.585 170.385 135.612C171.382 136.639 172.761 137.152 174.521 137.152C175.958 137.152 177.293 136.873 178.525 136.316C179.786 135.759 180.754 135.04 181.429 134.16ZM201.094 139.308C199.51 139.308 198.058 138.985 196.738 138.34C195.447 137.695 194.318 136.829 193.35 135.744C192.411 134.629 191.678 133.368 191.15 131.96C190.622 130.552 190.358 129.1 190.358 127.604C190.358 125.463 190.812 123.497 191.722 121.708C192.631 119.889 193.878 118.437 195.462 117.352C197.075 116.237 198.923 115.68 201.006 115.68C202.971 115.68 204.672 116.179 206.11 117.176C207.576 118.173 208.808 119.405 209.806 120.872V116.076H212.49V139.088C212.49 141.229 211.976 143.019 210.95 144.456C209.923 145.893 208.559 146.979 206.858 147.712C205.156 148.445 203.294 148.812 201.27 148.812C198.63 148.812 196.503 148.343 194.89 147.404C193.306 146.465 192 145.204 190.974 143.62L192.822 142.168C193.731 143.605 194.934 144.676 196.43 145.38C197.955 146.084 199.568 146.436 201.27 146.436C202.766 146.436 204.13 146.157 205.362 145.6C206.623 145.072 207.62 144.265 208.354 143.18C209.116 142.095 209.498 140.731 209.498 139.088V134.556C208.618 135.993 207.415 137.152 205.89 138.032C204.364 138.883 202.766 139.308 201.094 139.308ZM201.93 136.8C203.132 136.8 204.276 136.521 205.362 135.964C206.447 135.407 207.356 134.703 208.09 133.852C208.852 132.972 209.322 132.063 209.498 131.124V124.04C209.058 122.925 208.427 121.943 207.606 121.092C206.784 120.212 205.846 119.537 204.79 119.068C203.734 118.569 202.663 118.32 201.578 118.32C199.876 118.32 198.41 118.789 197.178 119.728C195.975 120.637 195.036 121.811 194.362 123.248C193.716 124.656 193.394 126.123 193.394 127.648C193.394 129.291 193.775 130.816 194.538 132.224C195.3 133.603 196.327 134.717 197.618 135.568C198.908 136.389 200.346 136.8 201.93 136.8ZM228.997 139.44C226.797 139.44 224.832 138.897 223.101 137.812C221.37 136.727 220.006 135.275 219.009 133.456C218.012 131.637 217.513 129.643 217.513 127.472C217.513 125.331 217.997 123.365 218.965 121.576C219.962 119.787 221.326 118.364 223.057 117.308C224.788 116.223 226.753 115.68 228.953 115.68C231.212 115.68 233.192 116.223 234.893 117.308C236.594 118.393 237.914 119.831 238.853 121.62C239.821 123.38 240.305 125.316 240.305 127.428C240.305 127.897 240.29 128.293 240.261 128.616H220.637C220.784 130.259 221.253 131.725 222.045 133.016C222.837 134.277 223.849 135.289 225.081 136.052C226.313 136.785 227.662 137.152 229.129 137.152C230.625 137.152 232.033 136.771 233.353 136.008C234.673 135.245 235.612 134.248 236.169 133.016L238.765 133.72C238.296 134.835 237.562 135.832 236.565 136.712C235.597 137.563 234.468 138.237 233.177 138.736C231.886 139.205 230.493 139.44 228.997 139.44ZM220.549 126.46H237.489C237.372 124.817 236.917 123.365 236.125 122.104C235.333 120.813 234.321 119.816 233.089 119.112C231.857 118.379 230.493 118.012 228.997 118.012C227.501 118.012 226.137 118.379 224.905 119.112C223.673 119.816 222.661 120.813 221.869 122.104C221.106 123.365 220.666 124.817 220.549 126.46ZM245.053 106.88H248.045V133.808C248.045 134.952 248.236 135.7 248.617 136.052C249.028 136.404 249.541 136.58 250.157 136.58C250.685 136.58 251.213 136.521 251.741 136.404C252.298 136.287 252.753 136.169 253.105 136.052L253.633 138.472C253.076 138.707 252.386 138.897 251.565 139.044C250.773 139.191 250.084 139.264 249.497 139.264C248.148 139.264 247.062 138.868 246.241 138.076C245.449 137.284 245.053 136.199 245.053 134.82V106.88ZM257.499 146.04C257.91 146.069 258.306 146.084 258.687 146.084C259.068 146.113 259.347 146.099 259.523 146.04C259.875 146.011 260.198 145.805 260.491 145.424C260.814 145.072 261.195 144.397 261.635 143.4C262.104 142.432 262.735 140.965 263.527 139L253.539 116.076H256.707L265.111 135.92L272.855 116.076H275.847L263.967 145.644C263.644 146.495 263.102 147.228 262.339 147.844C261.576 148.46 260.564 148.783 259.303 148.812C259.039 148.841 258.76 148.841 258.467 148.812C258.174 148.812 257.851 148.783 257.499 148.724V146.04Z" fill="black"/>
<path d="M117.189 139H115.189V141H117.189V139ZM117.189 107.76V105.76H115.189V107.76H117.189ZM120.269 107.76H122.269V105.76H120.269V107.76ZM120.269 139V141H122.269V139H120.269ZM119.189 139V107.76H115.189V139H119.189ZM117.189 109.76H120.269V105.76H117.189V109.76ZM118.269 107.76V139H122.269V107.76H118.269ZM120.269 137H117.189V141H120.269V137ZM161.588 139V141H163.588V139H161.588ZM158.596 139H156.596V141H158.596V139ZM157.32 120.344L155.65 121.445L155.655 121.453L155.661 121.462L157.32 120.344ZM148.872 120.256L147.523 118.779L148.872 120.256ZM146.011 125.008L144.09 124.455L144.011 124.726V125.008H146.011ZM146.011 139V141H148.011V139H146.011ZM143.02 139H141.02V141H143.02V139ZM141.743 120.3L140.068 121.391L140.082 121.414L140.098 121.436L141.743 120.3ZM133.34 120.212L132.025 118.705L132.017 118.712L132.009 118.719L133.34 120.212ZM130.479 124.964L128.555 124.418L128.479 124.686V124.964H130.479ZM130.479 139V141H132.479V139H130.479ZM127.487 139H125.487V141H127.487V139ZM127.487 116.076V114.076H125.487V116.076H127.487ZM130.215 116.076H132.215V114.076H130.215V116.076ZM130.215 121.268H128.215L131.98 122.209L130.215 121.268ZM133.911 117.176L134.983 118.865L134.995 118.857L135.006 118.85L133.911 117.176ZM143.591 117.352L142.214 118.802L142.224 118.811L142.233 118.82L143.591 117.352ZM145.747 121.576L143.77 121.878L144.674 127.8L147.509 122.523L145.747 121.576ZM160.004 118.408L158.262 119.391L158.271 119.408L158.281 119.425L160.004 118.408ZM161.588 137H158.596V141H161.588V137ZM160.596 139V126.196H156.596V139H160.596ZM160.596 126.196C160.596 123.417 160.162 120.981 158.978 119.226L155.661 121.462C156.179 122.229 156.596 123.695 156.596 126.196H160.596ZM158.989 119.243C157.734 117.339 155.815 116.408 153.535 116.408V120.408C154.6 120.408 155.203 120.768 155.65 121.445L158.989 119.243ZM153.535 116.408C151.256 116.408 149.225 117.225 147.523 118.779L150.22 121.733C151.216 120.823 152.295 120.408 153.535 120.408V116.408ZM147.523 118.779C145.873 120.285 144.738 122.201 144.09 124.455L147.933 125.561C148.399 123.943 149.171 122.691 150.22 121.733L147.523 118.779ZM144.011 125.008V139H148.011V125.008H144.011ZM146.011 137H143.02V141H146.011V137ZM145.02 139V126.196H141.02V139H145.02ZM145.02 126.196C145.02 123.375 144.592 120.905 143.389 119.164L140.098 121.436C140.597 122.159 141.02 123.619 141.02 126.196H145.02ZM143.419 119.209C142.183 117.31 140.263 116.408 138.004 116.408V120.408C139.088 120.408 139.661 120.767 140.068 121.391L143.419 119.209ZM138.004 116.408C135.76 116.408 133.745 117.204 132.025 118.705L134.654 121.719C135.691 120.814 136.785 120.408 138.004 120.408V116.408ZM132.009 118.719C130.34 120.206 129.203 122.136 128.555 124.418L132.404 125.51C132.871 123.861 133.64 122.623 134.67 121.705L132.009 118.719ZM128.479 124.964V139H132.479V124.964H128.479ZM130.479 137H127.487V141H130.479V137ZM129.487 139V116.076H125.487V139H129.487ZM127.487 118.076H130.215V114.076H127.487V118.076ZM128.215 116.076V121.268H132.215V116.076H128.215ZM131.98 122.209C132.774 120.721 133.779 119.629 134.983 118.865L132.84 115.487C130.993 116.659 129.535 118.294 128.451 120.327L131.98 122.209ZM135.006 118.85C136.201 118.069 137.506 117.68 138.972 117.68V113.68C136.741 113.68 134.673 114.289 132.817 115.502L135.006 118.85ZM138.972 117.68C140.463 117.68 141.478 118.102 142.214 118.802L144.969 115.902C143.359 114.372 141.293 113.68 138.972 113.68V117.68ZM142.233 118.82C143.042 119.568 143.568 120.549 143.77 121.878L147.725 121.274C147.399 119.141 146.488 117.307 144.95 115.884L142.233 118.82ZM147.509 122.523C149.348 119.101 151.69 117.68 154.591 117.68V113.68C149.925 113.68 146.371 116.19 143.986 120.629L147.509 122.523ZM154.591 117.68C156.651 117.68 157.678 118.357 158.262 119.391L161.745 117.425C160.275 114.821 157.694 113.68 154.591 113.68V117.68ZM158.281 119.425C159.092 120.799 159.588 122.797 159.588 125.58H163.588C163.588 122.379 163.027 119.595 161.726 117.391L158.281 119.425ZM159.588 125.58V139H163.588V125.58H159.588ZM167.305 128.748L168.867 129.997L168.875 129.987L168.884 129.976L167.305 128.748ZM170.693 126.284L169.95 124.427L169.937 124.432L170.693 126.284ZM179.229 125.712L178.893 127.683L178.916 127.687L178.939 127.691L179.229 125.712ZM182.441 126.46L181.791 128.351L184.441 129.262V126.46H182.441ZM180.725 119.904L179.311 121.318L180.725 119.904ZM172.365 118.892L173.052 120.77L173.072 120.763L173.092 120.755L172.365 118.892ZM168.625 120.872L166.867 121.825L167.922 123.772L169.752 122.524L168.625 120.872ZM167.481 118.76L166.349 117.111L164.865 118.13L165.723 119.713L167.481 118.76ZM171.881 116.472L172.537 118.362L172.554 118.356L172.571 118.349L171.881 116.472ZM182.969 118.1L184.371 116.673L182.969 118.1ZM186.533 136.624H188.533V134.702L186.613 134.626L186.533 136.624ZM186.533 139L186.803 140.982L188.533 140.746V139H186.533ZM185.169 139.088L185.39 137.1L185.32 137.092L185.249 137.09L185.169 139.088ZM183.497 138.384L181.986 139.694L183.497 138.384ZM182.881 136.976L180.882 137.029L180.883 137.061L180.885 137.093L182.881 136.976ZM182.837 135.304L184.836 135.251L184.689 129.665L181.258 134.076L182.837 135.304ZM178.833 138.384L179.621 140.222L179.635 140.216L179.648 140.21L178.833 138.384ZM169.813 138.516L168.849 140.268L168.866 140.278L168.883 140.287L169.813 138.516ZM167.041 135.964L165.322 136.986L165.338 137.014L165.356 137.041L167.041 135.964ZM181.429 134.16L179.907 132.863L179.873 132.902L179.842 132.943L181.429 134.16ZM182.441 128.616H184.441V127.251L183.17 126.754L182.441 128.616ZM170.385 135.612L168.93 136.984L168.94 136.995L168.951 137.006L170.385 135.612ZM178.525 136.316L177.717 134.487L177.709 134.49L177.701 134.494L178.525 136.316ZM168.073 132.4C168.073 131.412 168.35 130.643 168.867 129.997L165.743 127.499C164.617 128.906 164.073 130.572 164.073 132.4H168.073ZM168.884 129.976C169.458 129.238 170.283 128.612 171.449 128.136L169.937 124.432C168.228 125.13 166.795 126.146 165.726 127.52L168.884 129.976ZM171.436 128.141C172.623 127.666 174.05 127.404 175.753 127.404V123.404C173.643 123.404 171.697 123.729 169.95 124.427L171.436 128.141ZM175.753 127.404C176.745 127.404 177.791 127.495 178.893 127.683L179.566 123.741C178.262 123.518 176.991 123.404 175.753 123.404V127.404ZM178.939 127.691C180.046 127.853 180.992 128.077 181.791 128.351L183.091 124.569C182.013 124.198 180.818 123.923 179.519 123.733L178.939 127.691ZM184.441 126.46V124.524H180.441V126.46H184.441ZM184.441 124.524C184.441 122.169 183.731 120.081 182.139 118.49L179.311 121.318C180.008 122.015 180.441 123.007 180.441 124.524H184.441ZM182.139 118.49C180.531 116.882 178.387 116.188 175.973 116.188V120.188C177.607 120.188 178.631 120.638 179.311 121.318L182.139 118.49ZM175.973 116.188C174.504 116.188 173.055 116.476 171.638 117.029L173.092 120.755C174.08 120.37 175.037 120.188 175.973 120.188V116.188ZM171.678 117.014C170.29 117.521 168.897 118.266 167.498 119.22L169.752 122.524C170.935 121.718 172.034 121.143 173.052 120.77L171.678 117.014ZM170.384 119.919L169.24 117.807L165.723 119.713L166.867 121.825L170.384 119.919ZM168.613 120.409C169.989 119.465 171.297 118.792 172.537 118.362L171.226 114.582C169.591 115.15 167.965 116.002 166.349 117.111L168.613 120.409ZM172.571 118.349C173.792 117.901 175.026 117.68 176.281 117.68V113.68C174.544 113.68 172.844 113.987 171.191 114.595L172.571 118.349ZM176.281 117.68C178.697 117.68 180.379 118.359 181.568 119.527L184.371 116.673C182.274 114.614 179.497 113.68 176.281 113.68V117.68ZM181.568 119.527C182.741 120.679 183.433 122.345 183.433 124.788H187.433C187.433 121.541 186.482 118.747 184.371 116.673L181.568 119.527ZM183.433 124.788V135.392H187.433V124.788H183.433ZM183.433 135.392C183.433 136.066 183.587 136.922 184.216 137.626C184.869 138.357 185.732 138.594 186.453 138.622L186.613 134.626C186.601 134.625 186.914 134.642 187.2 134.962C187.462 135.256 187.433 135.51 187.433 135.392H183.433ZM184.533 136.624V139H188.533V136.624H184.533ZM186.263 137.018C185.969 137.058 185.744 137.082 185.579 137.092C185.399 137.104 185.352 137.096 185.39 137.1L184.948 141.076C185.485 141.135 186.163 141.069 186.803 140.982L186.263 137.018ZM185.249 137.09C185.072 137.083 184.993 137.054 184.977 137.047C184.97 137.044 184.973 137.044 184.983 137.051C184.994 137.059 185.002 137.067 185.008 137.074L181.986 139.694C182.818 140.654 183.957 141.041 185.089 141.086L185.249 137.09ZM185.008 137.074C184.932 136.986 184.901 136.927 184.889 136.9C184.879 136.877 184.878 136.866 184.878 136.859L180.885 137.093C180.944 138.102 181.365 138.978 181.986 139.694L185.008 137.074ZM184.88 136.923L184.836 135.251L180.838 135.357L180.882 137.029L184.88 136.923ZM181.258 134.076C180.448 135.118 179.384 135.948 178.018 136.558L179.648 140.21C181.567 139.354 183.173 138.13 184.416 136.532L181.258 134.076ZM178.045 136.546C176.639 137.148 175.234 137.44 173.817 137.44V141.44C175.803 141.44 177.742 141.028 179.621 140.222L178.045 136.546ZM173.817 137.44C172.603 137.44 171.594 137.192 170.743 136.745L168.883 140.287C170.379 141.072 172.039 141.44 173.817 141.44V137.44ZM170.777 136.764C169.876 136.268 169.209 135.642 168.726 134.887L165.356 137.041C166.223 138.398 167.403 139.473 168.849 140.268L170.777 136.764ZM168.76 134.942C168.303 134.173 168.073 133.339 168.073 132.4H164.073C164.073 134.042 164.489 135.584 165.322 136.986L168.76 134.942ZM182.952 135.457C183.775 134.49 184.441 133.309 184.441 131.96H180.441C180.441 131.961 180.433 132.246 179.907 132.863L182.952 135.457ZM184.441 131.96V128.616H180.441V131.96H184.441ZM183.17 126.754C180.911 125.87 178.551 125.428 176.105 125.428V129.428C178.059 129.428 179.923 129.778 181.712 130.478L183.17 126.754ZM176.105 125.428C173.715 125.428 171.57 125.901 169.83 127.023L171.996 130.385C172.896 129.806 174.213 129.428 176.105 129.428V125.428ZM169.83 127.023C167.987 128.211 166.933 129.978 166.933 132.18H170.933C170.933 131.449 171.2 130.899 171.996 130.385L169.83 127.023ZM166.933 132.18C166.933 134.013 167.657 135.634 168.93 136.984L171.84 134.24C171.177 133.537 170.933 132.869 170.933 132.18H166.933ZM168.951 137.006C170.408 138.506 172.353 139.152 174.521 139.152V135.152C173.169 135.152 172.357 134.772 171.82 134.218L168.951 137.006ZM174.521 139.152C176.224 139.152 177.842 138.82 179.349 138.138L177.701 134.494C176.744 134.927 175.692 135.152 174.521 135.152V139.152ZM179.333 138.145C180.828 137.485 182.094 136.58 183.016 135.377L179.842 132.943C179.415 133.5 178.745 134.032 177.717 134.487L179.333 138.145ZM196.738 138.34L195.843 140.129L195.851 140.133L195.859 140.137L196.738 138.34ZM193.35 135.744L191.82 137.032L191.838 137.054L191.857 137.075L193.35 135.744ZM191.15 131.96L193.022 131.258L191.15 131.96ZM191.722 121.708L193.505 122.614L193.511 122.602L191.722 121.708ZM195.462 117.352L196.592 119.002L196.599 118.997L195.462 117.352ZM206.11 117.176L204.969 118.819L204.977 118.825L204.985 118.83L206.11 117.176ZM209.806 120.872L208.152 121.997L211.806 127.37V120.872H209.806ZM209.806 116.076V114.076H207.806V116.076H209.806ZM212.49 116.076H214.49V114.076H212.49V116.076ZM210.95 144.456L209.322 143.294V143.294L210.95 144.456ZM206.858 147.712L207.649 149.549L206.858 147.712ZM194.89 147.404L193.87 149.125L193.877 149.129L193.884 149.133L194.89 147.404ZM190.974 143.62L189.738 142.047L188.302 143.176L189.295 144.708L190.974 143.62ZM192.822 142.168L194.512 141.099L193.328 139.227L191.586 140.595L192.822 142.168ZM196.43 145.38L195.578 147.19L195.585 147.193L195.592 147.196L196.43 145.38ZM205.362 145.6L204.589 143.755L204.563 143.766L204.537 143.778L205.362 145.6ZM208.354 143.18L206.717 142.03L206.707 142.045L206.696 142.06L208.354 143.18ZM209.498 134.556H211.498V127.459L207.792 133.512L209.498 134.556ZM205.89 138.032L206.864 139.779L206.877 139.772L206.889 139.764L205.89 138.032ZM205.362 135.964L204.448 134.185L205.362 135.964ZM208.09 133.852L206.578 132.542L206.575 132.546L208.09 133.852ZM209.498 131.124L211.463 131.493L211.498 131.31V131.124H209.498ZM209.498 124.04H211.498V123.66L211.358 123.306L209.498 124.04ZM207.606 121.092L206.144 122.457L206.155 122.469L206.167 122.481L207.606 121.092ZM204.79 119.068L203.936 120.876L203.956 120.886L203.977 120.896L204.79 119.068ZM197.178 119.728L198.384 121.323L198.39 121.319L197.178 119.728ZM194.362 123.248L192.551 122.398L192.547 122.406L192.544 122.415L194.362 123.248ZM194.538 132.224L192.779 133.177L192.783 133.184L192.788 133.192L194.538 132.224ZM197.618 135.568L196.517 137.238L196.53 137.247L196.544 137.255L197.618 135.568ZM201.094 137.308C199.79 137.308 198.642 137.045 197.616 136.543L195.859 140.137C197.474 140.926 199.229 141.308 201.094 141.308V137.308ZM197.632 136.551C196.57 136.02 195.643 135.311 194.842 134.413L191.857 137.075C192.992 138.348 194.324 139.369 195.843 140.129L197.632 136.551ZM194.879 134.456C194.092 133.521 193.473 132.459 193.022 131.258L189.277 132.662C189.882 134.277 190.73 135.738 191.82 137.032L194.879 134.456ZM193.022 131.258C192.578 130.073 192.358 128.859 192.358 127.604H188.358C188.358 129.341 188.665 131.031 189.277 132.662L193.022 131.258ZM192.358 127.604C192.358 125.756 192.747 124.104 193.505 122.614L189.939 120.802C188.877 122.891 188.358 125.169 188.358 127.604H192.358ZM193.511 122.602C194.277 121.069 195.305 119.884 196.592 119.002L194.331 115.702C192.451 116.991 190.985 118.71 189.933 120.814L193.511 122.602ZM196.599 118.997C197.856 118.128 199.303 117.68 201.006 117.68V113.68C198.543 113.68 196.294 114.346 194.325 115.707L196.599 118.997ZM201.006 117.68C202.616 117.68 203.908 118.082 204.969 118.819L207.25 115.533C205.437 114.275 203.326 113.68 201.006 113.68V117.68ZM204.985 118.83C206.244 119.686 207.296 120.738 208.152 121.997L211.46 119.747C210.321 118.073 208.909 116.661 207.234 115.522L204.985 118.83ZM211.806 120.872V116.076H207.806V120.872H211.806ZM209.806 118.076H212.49V114.076H209.806V118.076ZM210.49 116.076V139.088H214.49V116.076H210.49ZM210.49 139.088C210.49 140.903 210.059 142.262 209.322 143.294L212.577 145.618C213.894 143.775 214.49 141.556 214.49 139.088H210.49ZM209.322 143.294C208.518 144.419 207.45 145.279 206.066 145.875L207.649 149.549C209.668 148.678 211.328 147.367 212.577 145.618L209.322 143.294ZM206.066 145.875C204.637 146.491 203.047 146.812 201.27 146.812V150.812C203.541 150.812 205.676 150.399 207.649 149.549L206.066 145.875ZM201.27 146.812C198.844 146.812 197.102 146.378 195.895 145.675L193.884 149.133C195.904 150.308 198.415 150.812 201.27 150.812V146.812ZM195.909 145.683C194.598 144.906 193.515 143.864 192.652 142.532L189.295 144.708C190.485 146.544 192.014 148.025 193.87 149.125L195.909 145.683ZM192.209 145.193L194.057 143.741L191.586 140.595L189.738 142.047L192.209 145.193ZM191.132 143.237C192.238 144.986 193.728 146.319 195.578 147.19L197.281 143.57C196.14 143.033 195.224 142.224 194.512 141.099L191.132 143.237ZM195.592 147.196C197.383 148.023 199.283 148.436 201.27 148.436V144.436C199.854 144.436 198.527 144.145 197.268 143.564L195.592 147.196ZM201.27 148.436C203.019 148.436 204.669 148.109 206.186 147.422L204.537 143.778C203.591 144.206 202.512 144.436 201.27 144.436V148.436ZM206.134 147.445C207.738 146.773 209.05 145.722 210.011 144.3L206.696 142.06C206.191 142.808 205.508 143.371 204.589 143.755L206.134 147.445ZM209.99 144.33C211.041 142.835 211.498 141.043 211.498 139.088H207.498C207.498 140.418 207.192 141.354 206.717 142.03L209.99 144.33ZM211.498 139.088V134.556H207.498V139.088H211.498ZM207.792 133.512C207.094 134.651 206.14 135.579 204.89 136.3L206.889 139.764C208.69 138.725 210.141 137.335 211.203 135.6L207.792 133.512ZM204.916 136.285C203.674 136.978 202.409 137.308 201.094 137.308V141.308C203.122 141.308 205.054 140.788 206.864 139.779L204.916 136.285ZM201.93 138.8C203.455 138.8 204.912 138.443 206.275 137.743L204.448 134.185C203.641 134.599 202.81 134.8 201.93 134.8V138.8ZM206.275 137.743C207.57 137.078 208.689 136.22 209.604 135.158L206.575 132.546C206.024 133.186 205.324 133.735 204.448 134.185L206.275 137.743ZM209.601 135.162C210.545 134.073 211.209 132.849 211.463 131.493L207.532 130.755C207.434 131.277 207.16 131.871 206.578 132.542L209.601 135.162ZM211.498 131.124V124.04H207.498V131.124H211.498ZM211.358 123.306C210.823 121.951 210.05 120.745 209.044 119.703L206.167 122.481C206.804 123.141 207.292 123.9 207.637 124.774L211.358 123.306ZM209.068 119.727C208.071 118.659 206.914 117.823 205.602 117.24L203.977 120.896C204.778 121.251 205.498 121.765 206.144 122.457L209.068 119.727ZM205.644 117.26C204.341 116.644 202.98 116.32 201.578 116.32V120.32C202.346 120.32 203.126 120.494 203.936 120.876L205.644 117.26ZM201.578 116.32C199.484 116.32 197.581 116.907 195.966 118.137L198.39 121.319C199.239 120.672 200.269 120.32 201.578 120.32V116.32ZM195.971 118.133C194.496 119.248 193.356 120.683 192.551 122.398L196.172 124.098C196.716 122.938 197.454 122.026 198.384 121.323L195.971 118.133ZM192.544 122.415C191.78 124.08 191.394 125.831 191.394 127.648H195.394C195.394 126.415 195.652 125.232 196.18 124.081L192.544 122.415ZM191.394 127.648C191.394 129.614 191.854 131.468 192.779 133.177L196.296 131.271C195.696 130.164 195.394 128.967 195.394 127.648H191.394ZM192.788 133.192C193.704 134.848 194.951 136.206 196.517 137.238L198.718 133.898C197.703 133.229 196.897 132.357 196.288 131.256L192.788 133.192ZM196.544 137.255C198.167 138.288 199.979 138.8 201.93 138.8V134.8C200.712 134.8 199.649 134.49 198.691 133.881L196.544 137.255ZM223.101 137.812L222.038 139.506L223.101 137.812ZM219.009 133.456L217.255 134.418L219.009 133.456ZM218.965 121.576L217.218 120.602L217.212 120.613L217.206 120.624L218.965 121.576ZM223.057 117.308L224.099 119.015L224.109 119.009L224.119 119.002L223.057 117.308ZM238.853 121.62L237.082 122.549L237.091 122.567L237.1 122.584L238.853 121.62ZM240.261 128.616V130.616H242.087L242.253 128.797L240.261 128.616ZM220.637 128.616V126.616H218.45L218.645 128.794L220.637 128.616ZM222.045 133.016L220.34 134.062L220.346 134.071L220.351 134.08L222.045 133.016ZM225.081 136.052L224.028 137.753L224.043 137.762L224.058 137.771L225.081 136.052ZM233.353 136.008L232.352 134.276L233.353 136.008ZM236.169 133.016L236.692 131.086L235.049 130.64L234.347 132.192L236.169 133.016ZM238.765 133.72L240.608 134.496L241.496 132.388L239.288 131.79L238.765 133.72ZM236.565 136.712L237.885 138.214L237.888 138.212L236.565 136.712ZM233.177 138.736L233.86 140.616L233.879 140.609L233.898 140.602L233.177 138.736ZM220.549 126.46L218.554 126.318L218.401 128.46H220.549V126.46ZM237.489 126.46V128.46H239.637L239.484 126.318L237.489 126.46ZM236.125 122.104L234.42 123.15L234.426 123.159L234.431 123.168L236.125 122.104ZM233.089 119.112L232.066 120.831L232.081 120.84L232.097 120.848L233.089 119.112ZM224.905 119.112L225.897 120.848L225.913 120.84L225.928 120.831L224.905 119.112ZM221.869 122.104L220.164 121.058L220.157 121.069L221.869 122.104ZM228.997 137.44C227.143 137.44 225.551 136.988 224.163 136.118L222.038 139.506C224.112 140.807 226.451 141.44 228.997 141.44V137.44ZM224.163 136.118C222.726 135.216 221.598 134.019 220.762 132.494L217.255 134.418C218.414 136.531 220.014 138.237 222.038 139.506L224.163 136.118ZM220.762 132.494C219.934 130.984 219.513 129.323 219.513 127.472H215.513C215.513 129.963 216.089 132.29 217.255 134.418L220.762 132.494ZM219.513 127.472C219.513 125.645 219.922 124.009 220.724 122.528L217.206 120.624C216.071 122.721 215.513 125.016 215.513 127.472H219.513ZM220.712 122.55C221.543 121.058 222.666 119.89 224.099 119.015L222.015 115.601C219.987 116.838 218.381 118.515 217.218 120.602L220.712 122.55ZM224.119 119.002C225.507 118.132 227.099 117.68 228.953 117.68V113.68C226.407 113.68 224.068 114.313 221.994 115.614L224.119 119.002ZM228.953 117.68C230.877 117.68 232.475 118.138 233.817 118.994L235.969 115.622C233.908 114.308 231.546 113.68 228.953 113.68V117.68ZM233.817 118.994C235.224 119.892 236.305 121.068 237.082 122.549L240.624 120.691C239.524 118.593 237.964 116.895 235.969 115.622L233.817 118.994ZM237.1 122.584C237.898 124.033 238.305 125.635 238.305 127.428H242.305C242.305 124.997 241.744 122.727 240.605 120.656L237.1 122.584ZM238.305 127.428C238.305 127.861 238.291 128.193 238.269 128.435L242.253 128.797C242.289 128.394 242.305 127.934 242.305 127.428H238.305ZM240.261 126.616H220.637V130.616H240.261V126.616ZM218.645 128.794C218.816 130.716 219.373 132.485 220.34 134.062L223.75 131.97C223.133 130.965 222.751 129.801 222.629 128.438L218.645 128.794ZM220.351 134.08C221.301 135.592 222.529 136.825 224.028 137.753L226.134 134.351C225.168 133.754 224.373 132.963 223.739 131.952L220.351 134.08ZM224.058 137.771C225.607 138.693 227.311 139.152 229.129 139.152V135.152C228.014 135.152 227.019 134.878 226.104 134.333L224.058 137.771ZM229.129 139.152C230.983 139.152 232.735 138.675 234.353 137.74L232.352 134.276C231.33 134.867 230.267 135.152 229.129 135.152V139.152ZM234.353 137.74C235.987 136.796 237.24 135.501 237.991 133.84L234.347 132.192C233.983 132.995 233.358 133.695 232.352 134.276L234.353 137.74ZM235.645 134.946L238.241 135.65L239.288 131.79L236.692 131.086L235.645 134.946ZM236.922 132.944C236.58 133.755 236.036 134.511 235.242 135.212L237.888 138.212C239.088 137.153 240.011 135.915 240.608 134.496L236.922 132.944ZM235.245 135.21C234.466 135.894 233.543 136.45 232.456 136.87L233.898 140.602C235.392 140.024 236.728 139.232 237.885 138.214L235.245 135.21ZM232.493 136.856C231.441 137.239 230.281 137.44 228.997 137.44V141.44C230.705 141.44 232.332 141.171 233.86 140.616L232.493 136.856ZM220.549 128.46H237.489V124.46H220.549V128.46ZM239.484 126.318C239.346 124.383 238.803 122.608 237.819 121.04L234.431 123.168C235.031 124.123 235.397 125.252 235.494 126.602L239.484 126.318ZM237.83 121.058C236.874 119.501 235.624 118.257 234.081 117.376L232.097 120.848C233.017 121.375 233.792 122.126 234.42 123.15L237.83 121.058ZM234.112 117.393C232.557 116.468 230.837 116.012 228.997 116.012V120.012C230.149 120.012 231.157 120.29 232.066 120.831L234.112 117.393ZM228.997 116.012C227.157 116.012 225.437 116.468 223.882 117.393L225.928 120.831C226.837 120.29 227.845 120.012 228.997 120.012V116.012ZM223.913 117.376C222.369 118.257 221.12 119.501 220.164 121.058L223.574 123.15C224.202 122.126 224.976 121.375 225.897 120.848L223.913 117.376ZM220.157 121.069C219.213 122.632 218.691 124.397 218.554 126.318L222.544 126.602C222.641 125.238 223 124.099 223.58 123.139L220.157 121.069ZM245.053 106.88V104.88H243.053V106.88H245.053ZM248.045 106.88H250.045V104.88H248.045V106.88ZM248.617 136.052L247.261 137.522L247.288 137.547L247.316 137.571L248.617 136.052ZM251.741 136.404L251.329 134.447L251.318 134.449L251.307 134.452L251.741 136.404ZM253.105 136.052L255.059 135.626L254.585 133.451L252.473 134.155L253.105 136.052ZM253.633 138.472L254.409 140.315L255.942 139.67L255.587 138.046L253.633 138.472ZM251.565 139.044L251.214 137.075L251.201 137.077L251.565 139.044ZM246.241 138.076L244.827 139.49L244.84 139.503L244.853 139.516L246.241 138.076ZM245.053 108.88H248.045V104.88H245.053V108.88ZM246.045 106.88V133.808H250.045V106.88H246.045ZM246.045 133.808C246.045 134.475 246.099 135.128 246.25 135.721C246.397 136.298 246.679 136.985 247.261 137.522L249.974 134.582C250.174 134.767 250.17 134.904 250.126 134.733C250.087 134.578 250.045 134.285 250.045 133.808H246.045ZM247.316 137.571C248.139 138.276 249.134 138.58 250.157 138.58V134.58C250.04 134.58 249.981 134.564 249.959 134.556C249.941 134.55 249.931 134.544 249.919 134.533L247.316 137.571ZM250.157 138.58C250.835 138.58 251.508 138.505 252.175 138.356L251.307 134.452C250.918 134.538 250.536 134.58 250.157 134.58V138.58ZM252.153 138.361C252.75 138.235 253.286 138.1 253.738 137.949L252.473 134.155C252.22 134.239 251.847 134.338 251.329 134.447L252.153 138.361ZM251.151 136.478L251.679 138.898L255.587 138.046L255.059 135.626L251.151 136.478ZM252.857 136.629C252.477 136.789 251.94 136.945 251.214 137.075L251.917 141.013C252.833 140.849 253.675 140.624 254.409 140.315L252.857 136.629ZM251.201 137.077C250.488 137.209 249.926 137.264 249.497 137.264V141.264C250.242 141.264 251.058 141.172 251.929 141.011L251.201 137.077ZM249.497 137.264C248.564 137.264 248.011 137.004 247.629 136.636L244.853 139.516C246.114 140.732 247.731 141.264 249.497 141.264V137.264ZM247.655 136.662C247.321 136.328 247.053 135.798 247.053 134.82H243.053C243.053 136.599 243.577 138.24 244.827 139.49L247.655 136.662ZM247.053 134.82V106.88H243.053V134.82H247.053ZM257.499 146.04L257.641 144.045L255.499 143.892V146.04H257.499ZM258.687 146.084L258.84 144.09L258.764 144.084H258.687V146.084ZM259.523 146.04L259.357 144.047L259.118 144.067L258.89 144.143L259.523 146.04ZM260.491 145.424L259.017 144.073L258.958 144.136L258.906 144.205L260.491 145.424ZM261.635 143.4L259.835 142.527L259.82 142.56L259.805 142.593L261.635 143.4ZM263.527 139L265.382 139.748L265.695 138.97L265.36 138.201L263.527 139ZM253.539 116.076V114.076H250.486L251.705 116.875L253.539 116.076ZM256.707 116.076L258.549 115.296L258.032 114.076H256.707V116.076ZM265.111 135.92L263.269 136.7L265.187 141.227L266.974 136.647L265.111 135.92ZM272.855 116.076V114.076H271.488L270.992 115.349L272.855 116.076ZM275.847 116.076L277.703 116.822L278.806 114.076H275.847V116.076ZM263.967 145.644L262.111 144.898L262.104 144.916L262.097 144.935L263.967 145.644ZM262.339 147.844L261.082 146.288V146.288L262.339 147.844ZM259.303 148.812L259.256 146.813L259.169 146.815L259.082 146.824L259.303 148.812ZM258.467 148.812L258.666 146.822L258.567 146.812H258.467V148.812ZM257.499 148.724H255.499V150.418L257.17 150.697L257.499 148.724ZM257.356 148.035C257.811 148.067 258.254 148.084 258.687 148.084V144.084C258.357 144.084 258.008 144.071 257.641 144.045L257.356 148.035ZM258.534 148.078C258.958 148.111 259.577 148.13 260.155 147.937L258.89 144.143C258.931 144.129 258.966 144.12 258.992 144.114C259.018 144.107 259.039 144.104 259.053 144.101C259.08 144.097 259.089 144.097 259.077 144.098C259.065 144.098 259.039 144.099 258.998 144.098C258.957 144.097 258.905 144.095 258.84 144.09L258.534 148.078ZM259.689 148.033C260.783 147.942 261.569 147.303 262.076 146.643L258.906 144.205C258.866 144.256 258.877 144.227 258.955 144.177C259.044 144.12 259.184 144.061 259.357 144.047L259.689 148.033ZM261.965 146.775C262.53 146.16 263.02 145.214 263.465 144.207L259.805 142.593C259.602 143.053 259.426 143.408 259.278 143.67C259.204 143.8 259.143 143.898 259.094 143.968C259.07 144.003 259.051 144.029 259.037 144.047C259.023 144.065 259.016 144.073 259.017 144.073L261.965 146.775ZM263.435 144.273C263.935 143.241 264.586 141.723 265.382 139.748L261.672 138.252C260.884 140.208 260.274 141.623 259.835 142.527L263.435 144.273ZM265.36 138.201L255.372 115.277L251.705 116.875L261.693 139.799L265.36 138.201ZM253.539 118.076H256.707V114.076H253.539V118.076ZM254.865 116.856L263.269 136.7L266.953 135.14L258.549 115.296L254.865 116.856ZM266.974 136.647L274.718 116.803L270.992 115.349L263.248 135.193L266.974 136.647ZM272.855 118.076H275.847V114.076H272.855V118.076ZM273.991 115.33L262.111 144.898L265.823 146.39L277.703 116.822L273.991 115.33ZM262.097 144.935C261.91 145.428 261.591 145.877 261.082 146.288L263.596 149.4C264.612 148.579 265.379 147.561 265.837 146.353L262.097 144.935ZM261.082 146.288C260.751 146.556 260.204 146.791 259.256 146.813L259.349 150.811C260.924 150.775 262.402 150.364 263.596 149.4L261.082 146.288ZM259.082 146.824C258.972 146.836 258.835 146.839 258.666 146.822L258.268 150.802C258.686 150.844 259.106 150.846 259.524 150.8L259.082 146.824ZM258.467 146.812C258.304 146.812 258.093 146.795 257.828 146.751L257.17 150.697C257.608 150.77 258.043 150.812 258.467 150.812V146.812ZM259.499 148.724V146.04H255.499V148.724H259.499Z" fill="black"/>
<path d="M99.4741 211V198.22H107.862V199.336H100.734V204.034H106.746V205.078H100.734V211H99.4741ZM113.816 202.702C113 202.726 112.28 202.954 111.656 203.386C111.044 203.818 110.612 204.412 110.36 205.168V211H109.136V201.622H110.288V203.872C110.612 203.212 111.038 202.678 111.566 202.27C112.106 201.862 112.676 201.634 113.276 201.586C113.396 201.574 113.498 201.568 113.582 201.568C113.666 201.568 113.744 201.574 113.816 201.586V202.702ZM119.215 211.18C118.315 211.18 117.511 210.958 116.803 210.514C116.095 210.07 115.537 209.476 115.129 208.732C114.721 207.988 114.517 207.172 114.517 206.284C114.517 205.408 114.715 204.604 115.111 203.872C115.519 203.14 116.077 202.558 116.785 202.126C117.493 201.682 118.297 201.46 119.197 201.46C120.121 201.46 120.931 201.682 121.627 202.126C122.323 202.57 122.863 203.158 123.247 203.89C123.643 204.61 123.841 205.402 123.841 206.266C123.841 206.458 123.835 206.62 123.823 206.752H115.795C115.855 207.424 116.047 208.024 116.371 208.552C116.695 209.068 117.109 209.482 117.613 209.794C118.117 210.094 118.669 210.244 119.269 210.244C119.881 210.244 120.457 210.088 120.997 209.776C121.537 209.464 121.921 209.056 122.149 208.552L123.211 208.84C123.019 209.296 122.719 209.704 122.311 210.064C121.915 210.412 121.453 210.688 120.925 210.892C120.397 211.084 119.827 211.18 119.215 211.18ZM115.759 205.87H122.689C122.641 205.198 122.455 204.604 122.131 204.088C121.807 203.56 121.393 203.152 120.889 202.864C120.385 202.564 119.827 202.414 119.215 202.414C118.603 202.414 118.045 202.564 117.541 202.864C117.037 203.152 116.623 203.56 116.299 204.088C115.987 204.604 115.807 205.198 115.759 205.87ZM129.78 211.18C128.88 211.18 128.076 210.958 127.368 210.514C126.66 210.07 126.102 209.476 125.694 208.732C125.286 207.988 125.082 207.172 125.082 206.284C125.082 205.408 125.28 204.604 125.676 203.872C126.084 203.14 126.642 202.558 127.35 202.126C128.058 201.682 128.862 201.46 129.762 201.46C130.686 201.46 131.496 201.682 132.192 202.126C132.888 202.57 133.428 203.158 133.812 203.89C134.208 204.61 134.406 205.402 134.406 206.266C134.406 206.458 134.4 206.62 134.388 206.752H126.36C126.42 207.424 126.612 208.024 126.936 208.552C127.26 209.068 127.674 209.482 128.178 209.794C128.682 210.094 129.234 210.244 129.834 210.244C130.446 210.244 131.022 210.088 131.562 209.776C132.102 209.464 132.486 209.056 132.714 208.552L133.776 208.84C133.584 209.296 133.284 209.704 132.876 210.064C132.48 210.412 132.018 210.688 131.49 210.892C130.962 211.084 130.392 211.18 129.78 211.18ZM126.324 205.87H133.254C133.206 205.198 133.02 204.604 132.696 204.088C132.372 203.56 131.958 203.152 131.454 202.864C130.95 202.564 130.392 202.414 129.78 202.414C129.168 202.414 128.61 202.564 128.106 202.864C127.602 203.152 127.188 203.56 126.864 204.088C126.552 204.604 126.372 205.198 126.324 205.87ZM148.766 211H147.542V205.762C147.542 203.638 146.822 202.576 145.382 202.576C144.914 202.576 144.458 202.696 144.014 202.936C143.57 203.164 143.174 203.482 142.826 203.89C142.49 204.286 142.25 204.742 142.106 205.258V211H140.882V197.86H142.106V203.746C142.478 203.05 142.994 202.498 143.654 202.09C144.326 201.67 145.04 201.46 145.796 201.46C146.516 201.46 147.092 201.634 147.524 201.982C147.956 202.318 148.268 202.792 148.46 203.404C148.664 204.004 148.766 204.706 148.766 205.51V211ZM151.376 199.66V197.86H152.6V199.66H151.376ZM151.376 211V201.622H152.6V211H151.376ZM159.058 211.126C158.41 211.126 157.816 210.994 157.276 210.73C156.748 210.466 156.286 210.112 155.89 209.668C155.506 209.212 155.206 208.696 154.99 208.12C154.774 207.544 154.666 206.95 154.666 206.338C154.666 205.462 154.852 204.658 155.224 203.926C155.596 203.182 156.106 202.588 156.754 202.144C157.414 201.688 158.17 201.46 159.022 201.46C159.826 201.46 160.522 201.664 161.11 202.072C161.71 202.48 162.214 202.984 162.622 203.584V201.622H163.72V211.036C163.72 211.912 163.51 212.644 163.09 213.232C162.67 213.82 162.112 214.264 161.416 214.564C160.72 214.864 159.958 215.014 159.13 215.014C158.05 215.014 157.18 214.822 156.52 214.438C155.872 214.054 155.338 213.538 154.918 212.89L155.674 212.296C156.046 212.884 156.538 213.322 157.15 213.61C157.774 213.898 158.434 214.042 159.13 214.042C159.742 214.042 160.3 213.928 160.804 213.7C161.32 213.484 161.728 213.154 162.028 212.71C162.34 212.266 162.496 211.708 162.496 211.036V209.182C162.136 209.77 161.644 210.244 161.02 210.604C160.396 210.952 159.742 211.126 159.058 211.126ZM159.4 210.1C159.892 210.1 160.36 209.986 160.804 209.758C161.248 209.53 161.62 209.242 161.92 208.894C162.232 208.534 162.424 208.162 162.496 207.778V204.88C162.316 204.424 162.058 204.022 161.722 203.674C161.386 203.314 161.002 203.038 160.57 202.846C160.138 202.642 159.7 202.54 159.256 202.54C158.56 202.54 157.96 202.732 157.456 203.116C156.964 203.488 156.58 203.968 156.304 204.556C156.04 205.132 155.908 205.732 155.908 206.356C155.908 207.028 156.064 207.652 156.376 208.228C156.688 208.792 157.108 209.248 157.636 209.596C158.164 209.932 158.752 210.1 159.4 210.1ZM174.307 211H173.083V205.762C173.083 203.638 172.363 202.576 170.923 202.576C170.455 202.576 169.999 202.696 169.555 202.936C169.111 203.164 168.715 203.482 168.367 203.89C168.031 204.286 167.791 204.742 167.647 205.258V211H166.423V197.86H167.647V203.746C168.019 203.05 168.535 202.498 169.195 202.09C169.867 201.67 170.581 201.46 171.337 201.46C172.057 201.46 172.633 201.634 173.065 201.982C173.497 202.318 173.809 202.792 174.001 203.404C174.205 204.004 174.307 204.706 174.307 205.51V211ZM185.123 211.18C184.271 211.18 183.527 210.952 182.891 210.496C182.255 210.04 181.757 209.446 181.397 208.714C181.049 207.97 180.875 207.172 180.875 206.32C180.875 205.66 180.989 205.042 181.217 204.466C181.445 203.878 181.757 203.362 182.153 202.918C182.561 202.462 183.035 202.108 183.575 201.856C184.115 201.592 184.703 201.46 185.339 201.46C186.071 201.46 186.743 201.652 187.355 202.036C187.979 202.408 188.465 202.882 188.813 203.458V201.622H189.911V214.834H188.687V209.056C187.763 210.472 186.575 211.18 185.123 211.18ZM185.501 210.1C186.233 210.1 186.863 209.884 187.391 209.452C187.931 209.008 188.363 208.486 188.687 207.886V204.988C188.627 204.556 188.429 204.154 188.093 203.782C187.769 203.41 187.379 203.11 186.923 202.882C186.467 202.654 186.017 202.54 185.573 202.54C184.901 202.54 184.301 202.726 183.773 203.098C183.257 203.458 182.849 203.932 182.549 204.52C182.261 205.096 182.117 205.702 182.117 206.338C182.117 207.022 182.261 207.652 182.549 208.228C182.837 208.792 183.233 209.248 183.737 209.596C184.253 209.932 184.841 210.1 185.501 210.1ZM192.525 207.13V201.622H193.749V206.914C193.749 209.038 194.475 210.1 195.927 210.1C196.647 210.1 197.319 209.866 197.943 209.398C198.579 208.93 199.035 208.306 199.311 207.526V201.622H200.535V209.524C200.535 209.848 200.679 210.016 200.967 210.028V211C200.823 211.024 200.709 211.036 200.625 211.036C200.553 211.036 200.475 211.036 200.391 211.036C200.139 211.012 199.923 210.916 199.743 210.748C199.575 210.58 199.491 210.376 199.491 210.136L199.455 208.876C199.047 209.608 198.489 210.178 197.781 210.586C197.085 210.982 196.329 211.18 195.513 211.18C193.521 211.18 192.525 209.83 192.525 207.13ZM202.546 208.3C202.546 207.724 202.714 207.226 203.05 206.806C203.386 206.374 203.848 206.038 204.436 205.798C205.036 205.558 205.726 205.438 206.506 205.438C206.962 205.438 207.436 205.48 207.928 205.564C208.42 205.636 208.858 205.738 209.242 205.87V205.078C209.242 204.286 209.008 203.656 208.54 203.188C208.072 202.72 207.424 202.486 206.596 202.486C206.104 202.486 205.612 202.582 205.12 202.774C204.628 202.954 204.118 203.224 203.59 203.584L203.122 202.72C203.734 202.3 204.334 201.988 204.922 201.784C205.51 201.568 206.11 201.46 206.722 201.46C207.874 201.46 208.786 201.79 209.458 202.45C210.13 203.11 210.466 204.022 210.466 205.186V209.524C210.466 209.848 210.616 210.016 210.916 210.028V211C210.652 211.036 210.466 211.048 210.358 211.036C210.058 211.024 209.83 210.928 209.674 210.748C209.518 210.568 209.434 210.376 209.422 210.172L209.404 209.488C208.984 210.028 208.438 210.448 207.766 210.748C207.094 211.036 206.41 211.18 205.714 211.18C205.102 211.18 204.556 211.054 204.076 210.802C203.596 210.538 203.218 210.19 202.942 209.758C202.678 209.314 202.546 208.828 202.546 208.3ZM208.828 209.02C209.104 208.696 209.242 208.396 209.242 208.12V206.752C208.414 206.428 207.55 206.266 206.65 206.266C205.774 206.266 205.066 206.44 204.526 206.788C203.986 207.136 203.716 207.61 203.716 208.21C203.716 208.726 203.914 209.194 204.31 209.614C204.718 210.034 205.282 210.244 206.002 210.244C206.59 210.244 207.136 210.13 207.64 209.902C208.156 209.674 208.552 209.38 208.828 209.02ZM213.165 197.86H214.389V208.876C214.389 209.344 214.467 209.65 214.623 209.794C214.791 209.938 215.001 210.01 215.253 210.01C215.469 210.01 215.685 209.986 215.901 209.938C216.129 209.89 216.315 209.842 216.459 209.794L216.675 210.784C216.447 210.88 216.165 210.958 215.829 211.018C215.505 211.078 215.223 211.108 214.983 211.108C214.431 211.108 213.987 210.946 213.651 210.622C213.327 210.298 213.165 209.854 213.165 209.29V197.86ZM218.015 199.66V197.86H219.239V199.66H218.015ZM218.015 211V201.622H219.239V211H218.015ZM226.435 210.55C226.291 210.61 226.027 210.718 225.643 210.874C225.259 211.03 224.815 211.108 224.311 211.108C223.783 211.108 223.321 210.958 222.925 210.658C222.529 210.358 222.331 209.908 222.331 209.308V202.594H221.035V201.622H222.331V198.454H223.555V201.622H225.715V202.594H223.555V208.966C223.579 209.314 223.699 209.572 223.915 209.74C224.143 209.896 224.401 209.974 224.689 209.974C225.025 209.974 225.325 209.92 225.589 209.812C225.865 209.692 226.039 209.608 226.111 209.56L226.435 210.55ZM228.504 213.88C228.672 213.892 228.834 213.898 228.99 213.898C229.146 213.91 229.26 213.904 229.332 213.88C229.476 213.868 229.608 213.784 229.728 213.628C229.86 213.484 230.016 213.208 230.196 212.8C230.388 212.404 230.646 211.804 230.97 211L226.884 201.622H228.18L231.618 209.74L234.786 201.622H236.01L231.15 213.718C231.018 214.066 230.796 214.366 230.484 214.618C230.172 214.87 229.758 215.002 229.242 215.014C229.134 215.026 229.02 215.026 228.9 215.014C228.78 215.014 228.648 215.002 228.504 214.978V213.88ZM241.816 199.66V197.86H243.04V199.66H241.816ZM241.816 211V201.622H243.04V211H241.816ZM259.686 211H258.462V205.762C258.462 204.682 258.288 203.884 257.94 203.368C257.592 202.84 257.076 202.576 256.392 202.576C255.672 202.576 255.036 202.828 254.484 203.332C253.932 203.836 253.542 204.484 253.314 205.276V211H252.09V205.762C252.09 204.658 251.916 203.854 251.568 203.35C251.232 202.834 250.722 202.576 250.038 202.576C249.33 202.576 248.694 202.822 248.13 203.314C247.578 203.806 247.188 204.454 246.96 205.258V211H245.736V201.622H246.852V203.746C247.236 203.026 247.74 202.468 248.364 202.072C248.988 201.664 249.678 201.46 250.434 201.46C251.214 201.46 251.844 201.688 252.324 202.144C252.804 202.588 253.098 203.164 253.206 203.872C254.07 202.264 255.276 201.46 256.824 201.46C257.88 201.46 258.618 201.832 259.038 202.576C259.47 203.308 259.686 204.286 259.686 205.51V211ZM261.521 208.3C261.521 207.724 261.689 207.226 262.025 206.806C262.361 206.374 262.823 206.038 263.411 205.798C264.011 205.558 264.701 205.438 265.481 205.438C265.937 205.438 266.411 205.48 266.903 205.564C267.395 205.636 267.833 205.738 268.217 205.87V205.078C268.217 204.286 267.983 203.656 267.515 203.188C267.047 202.72 266.399 202.486 265.571 202.486C265.079 202.486 264.587 202.582 264.095 202.774C263.603 202.954 263.093 203.224 262.565 203.584L262.097 202.72C262.709 202.3 263.309 201.988 263.897 201.784C264.485 201.568 265.085 201.46 265.697 201.46C266.849 201.46 267.761 201.79 268.433 202.45C269.105 203.11 269.441 204.022 269.441 205.186V209.524C269.441 209.848 269.591 210.016 269.891 210.028V211C269.627 211.036 269.441 211.048 269.333 211.036C269.033 211.024 268.805 210.928 268.649 210.748C268.493 210.568 268.409 210.376 268.397 210.172L268.379 209.488C267.959 210.028 267.413 210.448 266.741 210.748C266.069 211.036 265.385 211.18 264.689 211.18C264.077 211.18 263.531 211.054 263.051 210.802C262.571 210.538 262.193 210.19 261.917 209.758C261.653 209.314 261.521 208.828 261.521 208.3ZM267.803 209.02C268.079 208.696 268.217 208.396 268.217 208.12V206.752C267.389 206.428 266.525 206.266 265.625 206.266C264.749 206.266 264.041 206.44 263.501 206.788C262.961 207.136 262.691 207.61 262.691 208.21C262.691 208.726 262.889 209.194 263.285 209.614C263.693 210.034 264.257 210.244 264.977 210.244C265.565 210.244 266.111 210.13 266.615 209.902C267.131 209.674 267.527 209.38 267.803 209.02ZM275.847 211.126C275.199 211.126 274.605 210.994 274.065 210.73C273.537 210.466 273.075 210.112 272.679 209.668C272.295 209.212 271.995 208.696 271.779 208.12C271.563 207.544 271.455 206.95 271.455 206.338C271.455 205.462 271.641 204.658 272.013 203.926C272.385 203.182 272.895 202.588 273.543 202.144C274.203 201.688 274.959 201.46 275.811 201.46C276.615 201.46 277.311 201.664 277.899 202.072C278.499 202.48 279.003 202.984 279.411 203.584V201.622H280.509V211.036C280.509 211.912 280.299 212.644 279.879 213.232C279.459 213.82 278.901 214.264 278.205 214.564C277.509 214.864 276.747 215.014 275.919 215.014C274.839 215.014 273.969 214.822 273.309 214.438C272.661 214.054 272.127 213.538 271.707 212.89L272.463 212.296C272.835 212.884 273.327 213.322 273.939 213.61C274.563 213.898 275.223 214.042 275.919 214.042C276.531 214.042 277.089 213.928 277.593 213.7C278.109 213.484 278.517 213.154 278.817 212.71C279.129 212.266 279.285 211.708 279.285 211.036V209.182C278.925 209.77 278.433 210.244 277.809 210.604C277.185 210.952 276.531 211.126 275.847 211.126ZM276.189 210.1C276.681 210.1 277.149 209.986 277.593 209.758C278.037 209.53 278.409 209.242 278.709 208.894C279.021 208.534 279.213 208.162 279.285 207.778V204.88C279.105 204.424 278.847 204.022 278.511 203.674C278.175 203.314 277.791 203.038 277.359 202.846C276.927 202.642 276.489 202.54 276.045 202.54C275.349 202.54 274.749 202.732 274.245 203.116C273.753 203.488 273.369 203.968 273.093 204.556C272.829 205.132 272.697 205.732 272.697 206.356C272.697 207.028 272.853 207.652 273.165 208.228C273.477 208.792 273.897 209.248 274.425 209.596C274.953 209.932 275.541 210.1 276.189 210.1ZM287.262 211.18C286.362 211.18 285.558 210.958 284.85 210.514C284.142 210.07 283.584 209.476 283.176 208.732C282.768 207.988 282.564 207.172 282.564 206.284C282.564 205.408 282.762 204.604 283.158 203.872C283.566 203.14 284.124 202.558 284.832 202.126C285.54 201.682 286.344 201.46 287.244 201.46C288.168 201.46 288.978 201.682 289.674 202.126C290.37 202.57 290.91 203.158 291.294 203.89C291.69 204.61 291.888 205.402 291.888 206.266C291.888 206.458 291.882 206.62 291.87 206.752H283.842C283.902 207.424 284.094 208.024 284.418 208.552C284.742 209.068 285.156 209.482 285.66 209.794C286.164 210.094 286.716 210.244 287.316 210.244C287.928 210.244 288.504 210.088 289.044 209.776C289.584 209.464 289.968 209.056 290.196 208.552L291.258 208.84C291.066 209.296 290.766 209.704 290.358 210.064C289.962 210.412 289.5 210.688 288.972 210.892C288.444 211.084 287.874 211.18 287.262 211.18ZM283.806 205.87H290.736C290.688 205.198 290.502 204.604 290.178 204.088C289.854 203.56 289.44 203.152 288.936 202.864C288.432 202.564 287.874 202.414 287.262 202.414C286.65 202.414 286.092 202.564 285.588 202.864C285.084 203.152 284.67 203.56 284.346 204.088C284.034 204.604 283.854 205.198 283.806 205.87ZM296.855 211.18C296.087 211.18 295.373 211.054 294.713 210.802C294.065 210.538 293.495 210.154 293.003 209.65L293.507 208.786C294.035 209.278 294.563 209.638 295.091 209.866C295.631 210.082 296.201 210.19 296.801 210.19C297.521 210.19 298.109 210.046 298.565 209.758C299.033 209.458 299.267 209.032 299.267 208.48C299.267 208.108 299.153 207.826 298.925 207.634C298.709 207.43 298.391 207.268 297.971 207.148C297.563 207.028 297.071 206.89 296.495 206.734C295.847 206.554 295.301 206.368 294.857 206.176C294.425 205.972 294.095 205.72 293.867 205.42C293.651 205.108 293.543 204.706 293.543 204.214C293.543 203.614 293.693 203.11 293.993 202.702C294.305 202.294 294.725 201.988 295.253 201.784C295.793 201.568 296.393 201.46 297.053 201.46C297.773 201.46 298.409 201.574 298.961 201.802C299.513 202.03 299.963 202.348 300.311 202.756L299.717 203.584C299.393 203.2 298.991 202.918 298.511 202.738C298.043 202.546 297.533 202.45 296.981 202.45C296.597 202.45 296.231 202.504 295.883 202.612C295.535 202.708 295.247 202.876 295.019 203.116C294.803 203.344 294.695 203.662 294.695 204.07C294.695 204.574 294.881 204.922 295.253 205.114C295.625 205.306 296.189 205.51 296.945 205.726C297.653 205.918 298.271 206.11 298.799 206.302C299.327 206.494 299.735 206.752 300.023 207.076C300.311 207.388 300.455 207.826 300.455 208.39C300.455 209.266 300.125 209.95 299.465 210.442C298.805 210.934 297.935 211.18 296.855 211.18ZM106.248 234.88C106.416 234.892 106.578 234.898 106.734 234.898C106.89 234.91 107.004 234.904 107.076 234.88C107.22 234.868 107.352 234.784 107.472 234.628C107.604 234.484 107.76 234.208 107.94 233.8C108.132 233.404 108.39 232.804 108.714 232L104.628 222.622H105.924L109.362 230.74L112.53 222.622H113.754L108.894 234.718C108.762 235.066 108.54 235.366 108.228 235.618C107.916 235.87 107.502 236.002 106.986 236.014C106.878 236.026 106.764 236.026 106.644 236.014C106.524 236.014 106.392 236.002 106.248 235.978V234.88ZM119.126 232.18C118.226 232.18 117.422 231.958 116.714 231.514C116.018 231.07 115.472 230.482 115.076 229.75C114.68 229.006 114.482 228.202 114.482 227.338C114.482 226.462 114.68 225.658 115.076 224.926C115.484 224.182 116.036 223.588 116.732 223.144C117.44 222.688 118.238 222.46 119.126 222.46C120.026 222.46 120.824 222.688 121.52 223.144C122.228 223.588 122.78 224.182 123.176 224.926C123.584 225.658 123.788 226.462 123.788 227.338C123.788 228.202 123.59 229.006 123.194 229.75C122.798 230.482 122.246 231.07 121.538 231.514C120.842 231.958 120.038 232.18 119.126 232.18ZM115.724 227.356C115.724 228.052 115.874 228.688 116.174 229.264C116.486 229.828 116.9 230.278 117.416 230.614C117.932 230.938 118.502 231.1 119.126 231.1C119.75 231.1 120.32 230.932 120.836 230.596C121.352 230.26 121.766 229.804 122.078 229.228C122.39 228.652 122.546 228.016 122.546 227.32C122.546 226.624 122.39 225.988 122.078 225.412C121.766 224.836 121.352 224.38 120.836 224.044C120.32 223.708 119.75 223.54 119.126 223.54C118.514 223.54 117.95 223.714 117.434 224.062C116.918 224.398 116.504 224.854 116.192 225.43C115.88 226.006 115.724 226.648 115.724 227.356ZM125.745 228.13V222.622H126.969V227.914C126.969 230.038 127.695 231.1 129.147 231.1C129.867 231.1 130.539 230.866 131.163 230.398C131.799 229.93 132.255 229.306 132.531 228.526V222.622H133.755V230.524C133.755 230.848 133.899 231.016 134.187 231.028V232C134.043 232.024 133.929 232.036 133.845 232.036C133.773 232.036 133.695 232.036 133.611 232.036C133.359 232.012 133.143 231.916 132.963 231.748C132.795 231.58 132.711 231.376 132.711 231.136L132.675 229.876C132.267 230.608 131.709 231.178 131.001 231.586C130.305 231.982 129.549 232.18 128.733 232.18C126.741 232.18 125.745 230.83 125.745 228.13ZM145.179 232.18C144.267 232.18 143.457 231.958 142.749 231.514C142.041 231.058 141.483 230.464 141.075 229.732C140.667 228.988 140.463 228.172 140.463 227.284C140.463 226.396 140.661 225.592 141.057 224.872C141.453 224.14 142.005 223.558 142.713 223.126C143.421 222.682 144.237 222.46 145.161 222.46C146.037 222.46 146.805 222.664 147.465 223.072C148.137 223.468 148.641 224.008 148.977 224.692L147.789 225.07C147.525 224.59 147.153 224.218 146.673 223.954C146.205 223.678 145.683 223.54 145.107 223.54C144.471 223.54 143.895 223.702 143.379 224.026C142.875 224.35 142.467 224.8 142.155 225.376C141.855 225.94 141.705 226.576 141.705 227.284C141.705 227.992 141.861 228.634 142.173 229.21C142.485 229.786 142.899 230.248 143.415 230.596C143.931 230.932 144.501 231.1 145.125 231.1C145.533 231.1 145.929 231.028 146.313 230.884C146.697 230.74 147.027 230.548 147.303 230.308C147.579 230.056 147.765 229.786 147.861 229.498L149.067 229.858C148.899 230.302 148.623 230.704 148.239 231.064C147.855 231.412 147.399 231.688 146.871 231.892C146.343 232.084 145.779 232.18 145.179 232.18ZM150.234 229.3C150.234 228.724 150.402 228.226 150.738 227.806C151.074 227.374 151.536 227.038 152.124 226.798C152.724 226.558 153.414 226.438 154.194 226.438C154.65 226.438 155.124 226.48 155.616 226.564C156.108 226.636 156.546 226.738 156.93 226.87V226.078C156.93 225.286 156.696 224.656 156.228 224.188C155.76 223.72 155.112 223.486 154.284 223.486C153.792 223.486 153.3 223.582 152.808 223.774C152.316 223.954 151.806 224.224 151.278 224.584L150.81 223.72C151.422 223.3 152.022 222.988 152.61 222.784C153.198 222.568 153.798 222.46 154.41 222.46C155.562 222.46 156.474 222.79 157.146 223.45C157.818 224.11 158.154 225.022 158.154 226.186V230.524C158.154 230.848 158.304 231.016 158.604 231.028V232C158.34 232.036 158.154 232.048 158.046 232.036C157.746 232.024 157.518 231.928 157.362 231.748C157.206 231.568 157.122 231.376 157.11 231.172L157.092 230.488C156.672 231.028 156.126 231.448 155.454 231.748C154.782 232.036 154.098 232.18 153.402 232.18C152.79 232.18 152.244 232.054 151.764 231.802C151.284 231.538 150.906 231.19 150.63 230.758C150.366 230.314 150.234 229.828 150.234 229.3ZM156.516 230.02C156.792 229.696 156.93 229.396 156.93 229.12V227.752C156.102 227.428 155.238 227.266 154.338 227.266C153.462 227.266 152.754 227.44 152.214 227.788C151.674 228.136 151.404 228.61 151.404 229.21C151.404 229.726 151.602 230.194 151.998 230.614C152.406 231.034 152.97 231.244 153.69 231.244C154.278 231.244 154.824 231.13 155.328 230.902C155.844 230.674 156.24 230.38 156.516 230.02ZM168.682 232H167.458V226.762C167.458 225.658 167.29 224.854 166.954 224.35C166.63 223.834 166.126 223.576 165.442 223.576C164.962 223.576 164.488 223.696 164.02 223.936C163.552 224.164 163.138 224.482 162.778 224.89C162.43 225.286 162.178 225.742 162.022 226.258V232H160.798V222.622H161.914V224.746C162.286 224.062 162.832 223.51 163.552 223.09C164.272 222.67 165.052 222.46 165.892 222.46C166.588 222.46 167.14 222.628 167.548 222.964C167.956 223.288 168.244 223.756 168.412 224.368C168.592 224.968 168.682 225.682 168.682 226.51V232ZM175.79 228.13V222.622H177.014V227.914C177.014 230.038 177.74 231.1 179.192 231.1C179.912 231.1 180.584 230.866 181.208 230.398C181.844 229.93 182.3 229.306 182.576 228.526V222.622H183.8V230.524C183.8 230.848 183.944 231.016 184.232 231.028V232C184.088 232.024 183.974 232.036 183.89 232.036C183.818 232.036 183.74 232.036 183.656 232.036C183.404 232.012 183.188 231.916 183.008 231.748C182.84 231.58 182.756 231.376 182.756 231.136L182.72 229.876C182.312 230.608 181.754 231.178 181.046 231.586C180.35 231.982 179.594 232.18 178.778 232.18C176.786 232.18 175.79 230.83 175.79 228.13ZM189.646 232.18C188.878 232.18 188.164 232.054 187.504 231.802C186.856 231.538 186.286 231.154 185.794 230.65L186.298 229.786C186.826 230.278 187.354 230.638 187.882 230.866C188.422 231.082 188.992 231.19 189.592 231.19C190.312 231.19 190.9 231.046 191.356 230.758C191.824 230.458 192.058 230.032 192.058 229.48C192.058 229.108 191.944 228.826 191.716 228.634C191.5 228.43 191.182 228.268 190.762 228.148C190.354 228.028 189.862 227.89 189.286 227.734C188.638 227.554 188.092 227.368 187.648 227.176C187.216 226.972 186.886 226.72 186.658 226.42C186.442 226.108 186.334 225.706 186.334 225.214C186.334 224.614 186.484 224.11 186.784 223.702C187.096 223.294 187.516 222.988 188.044 222.784C188.584 222.568 189.184 222.46 189.844 222.46C190.564 222.46 191.2 222.574 191.752 222.802C192.304 223.03 192.754 223.348 193.102 223.756L192.508 224.584C192.184 224.2 191.782 223.918 191.302 223.738C190.834 223.546 190.324 223.45 189.772 223.45C189.388 223.45 189.022 223.504 188.674 223.612C188.326 223.708 188.038 223.876 187.81 224.116C187.594 224.344 187.486 224.662 187.486 225.07C187.486 225.574 187.672 225.922 188.044 226.114C188.416 226.306 188.98 226.51 189.736 226.726C190.444 226.918 191.062 227.11 191.59 227.302C192.118 227.494 192.526 227.752 192.814 228.076C193.102 228.388 193.246 228.826 193.246 229.39C193.246 230.266 192.916 230.95 192.256 231.442C191.596 231.934 190.726 232.18 189.646 232.18ZM199.319 232.18C198.419 232.18 197.615 231.958 196.907 231.514C196.199 231.07 195.641 230.476 195.233 229.732C194.825 228.988 194.621 228.172 194.621 227.284C194.621 226.408 194.819 225.604 195.215 224.872C195.623 224.14 196.181 223.558 196.889 223.126C197.597 222.682 198.401 222.46 199.301 222.46C200.225 222.46 201.035 222.682 201.731 223.126C202.427 223.57 202.967 224.158 203.351 224.89C203.747 225.61 203.945 226.402 203.945 227.266C203.945 227.458 203.939 227.62 203.927 227.752H195.899C195.959 228.424 196.151 229.024 196.475 229.552C196.799 230.068 197.213 230.482 197.717 230.794C198.221 231.094 198.773 231.244 199.373 231.244C199.985 231.244 200.561 231.088 201.101 230.776C201.641 230.464 202.025 230.056 202.253 229.552L203.315 229.84C203.123 230.296 202.823 230.704 202.415 231.064C202.019 231.412 201.557 231.688 201.029 231.892C200.501 232.084 199.931 232.18 199.319 232.18ZM195.863 226.87H202.793C202.745 226.198 202.559 225.604 202.235 225.088C201.911 224.56 201.497 224.152 200.993 223.864C200.489 223.564 199.931 223.414 199.319 223.414C198.707 223.414 198.149 223.564 197.645 223.864C197.141 224.152 196.727 224.56 196.403 225.088C196.091 225.604 195.911 226.198 195.863 226.87ZM209.665 229.3C209.665 228.724 209.833 228.226 210.169 227.806C210.505 227.374 210.967 227.038 211.555 226.798C212.155 226.558 212.845 226.438 213.625 226.438C214.081 226.438 214.555 226.48 215.047 226.564C215.539 226.636 215.977 226.738 216.361 226.87V226.078C216.361 225.286 216.127 224.656 215.659 224.188C215.191 223.72 214.543 223.486 213.715 223.486C213.223 223.486 212.731 223.582 212.239 223.774C211.747 223.954 211.237 224.224 210.709 224.584L210.241 223.72C210.853 223.3 211.453 222.988 212.041 222.784C212.629 222.568 213.229 222.46 213.841 222.46C214.993 222.46 215.905 222.79 216.577 223.45C217.249 224.11 217.585 225.022 217.585 226.186V230.524C217.585 230.848 217.735 231.016 218.035 231.028V232C217.771 232.036 217.585 232.048 217.477 232.036C217.177 232.024 216.949 231.928 216.793 231.748C216.637 231.568 216.553 231.376 216.541 231.172L216.523 230.488C216.103 231.028 215.557 231.448 214.885 231.748C214.213 232.036 213.529 232.18 212.833 232.18C212.221 232.18 211.675 232.054 211.195 231.802C210.715 231.538 210.337 231.19 210.061 230.758C209.797 230.314 209.665 229.828 209.665 229.3ZM215.947 230.02C216.223 229.696 216.361 229.396 216.361 229.12V227.752C215.533 227.428 214.669 227.266 213.769 227.266C212.893 227.266 212.185 227.44 211.645 227.788C211.105 228.136 210.835 228.61 210.835 229.21C210.835 229.726 211.033 230.194 211.429 230.614C211.837 231.034 212.401 231.244 213.121 231.244C213.709 231.244 214.255 231.13 214.759 230.902C215.275 230.674 215.671 230.38 215.947 230.02ZM228.114 232H226.89V226.762C226.89 225.658 226.722 224.854 226.386 224.35C226.062 223.834 225.558 223.576 224.874 223.576C224.394 223.576 223.92 223.696 223.452 223.936C222.984 224.164 222.57 224.482 222.21 224.89C221.862 225.286 221.61 225.742 221.454 226.258V232H220.23V222.622H221.346V224.746C221.718 224.062 222.264 223.51 222.984 223.09C223.704 222.67 224.484 222.46 225.324 222.46C226.02 222.46 226.572 222.628 226.98 222.964C227.388 223.288 227.676 223.756 227.844 224.368C228.024 224.968 228.114 225.682 228.114 226.51V232ZM231.071 234.88C231.239 234.892 231.401 234.898 231.557 234.898C231.713 234.91 231.827 234.904 231.899 234.88C232.043 234.868 232.175 234.784 232.295 234.628C232.427 234.484 232.583 234.208 232.763 233.8C232.955 233.404 233.213 232.804 233.537 232L229.451 222.622H230.747L234.185 230.74L237.353 222.622H238.577L233.717 234.718C233.585 235.066 233.363 235.366 233.051 235.618C232.739 235.87 232.325 236.002 231.809 236.014C231.701 236.026 231.587 236.026 231.467 236.014C231.347 236.014 231.215 236.002 231.071 235.978V234.88ZM252.095 222.622H253.301L249.269 232H248.207L246.245 227.338L244.301 232H243.239L239.207 222.622H240.395L243.815 230.74L245.543 226.51L243.959 222.64H245.057L246.245 225.682L247.451 222.64H248.531L246.965 226.51L248.693 230.74L252.095 222.622ZM262.813 232H261.589V226.762C261.589 224.638 260.869 223.576 259.429 223.576C258.961 223.576 258.505 223.696 258.061 223.936C257.617 224.164 257.221 224.482 256.873 224.89C256.537 225.286 256.297 225.742 256.153 226.258V232H254.929V218.86H256.153V224.746C256.525 224.05 257.041 223.498 257.701 223.09C258.373 222.67 259.087 222.46 259.843 222.46C260.563 222.46 261.139 222.634 261.571 222.982C262.003 223.318 262.315 223.792 262.507 224.404C262.711 225.004 262.813 225.706 262.813 226.51V232ZM269.473 232.18C268.573 232.18 267.769 231.958 267.061 231.514C266.353 231.07 265.795 230.476 265.387 229.732C264.979 228.988 264.775 228.172 264.775 227.284C264.775 226.408 264.973 225.604 265.369 224.872C265.777 224.14 266.335 223.558 267.043 223.126C267.751 222.682 268.555 222.46 269.455 222.46C270.379 222.46 271.189 222.682 271.885 223.126C272.581 223.57 273.121 224.158 273.505 224.89C273.901 225.61 274.099 226.402 274.099 227.266C274.099 227.458 274.093 227.62 274.081 227.752H266.053C266.113 228.424 266.305 229.024 266.629 229.552C266.953 230.068 267.367 230.482 267.871 230.794C268.375 231.094 268.927 231.244 269.527 231.244C270.139 231.244 270.715 231.088 271.255 230.776C271.795 230.464 272.179 230.056 272.407 229.552L273.469 229.84C273.277 230.296 272.977 230.704 272.569 231.064C272.173 231.412 271.711 231.688 271.183 231.892C270.655 232.084 270.085 232.18 269.473 232.18ZM266.017 226.87H272.947C272.899 226.198 272.713 225.604 272.389 225.088C272.065 224.56 271.651 224.152 271.147 223.864C270.643 223.564 270.085 223.414 269.473 223.414C268.861 223.414 268.303 223.564 267.799 223.864C267.295 224.152 266.881 224.56 266.557 225.088C266.245 225.604 266.065 226.198 266.017 226.87ZM280.668 223.702C279.852 223.726 279.132 223.954 278.508 224.386C277.896 224.818 277.464 225.412 277.212 226.168V232H275.988V222.622H277.14V224.872C277.464 224.212 277.89 223.678 278.418 223.27C278.958 222.862 279.528 222.634 280.128 222.586C280.248 222.574 280.35 222.568 280.434 222.568C280.518 222.568 280.596 222.574 280.668 222.586V223.702ZM286.067 232.18C285.167 232.18 284.363 231.958 283.655 231.514C282.947 231.07 282.389 230.476 281.981 229.732C281.573 228.988 281.369 228.172 281.369 227.284C281.369 226.408 281.567 225.604 281.963 224.872C282.371 224.14 282.929 223.558 283.637 223.126C284.345 222.682 285.149 222.46 286.049 222.46C286.973 222.46 287.783 222.682 288.479 223.126C289.175 223.57 289.715 224.158 290.099 224.89C290.495 225.61 290.693 226.402 290.693 227.266C290.693 227.458 290.687 227.62 290.675 227.752H282.647C282.707 228.424 282.899 229.024 283.223 229.552C283.547 230.068 283.961 230.482 284.465 230.794C284.969 231.094 285.521 231.244 286.121 231.244C286.733 231.244 287.309 231.088 287.849 230.776C288.389 230.464 288.773 230.056 289.001 229.552L290.063 229.84C289.871 230.296 289.571 230.704 289.163 231.064C288.767 231.412 288.305 231.688 287.777 231.892C287.249 232.084 286.679 232.18 286.067 232.18ZM282.611 226.87H289.541C289.493 226.198 289.307 225.604 288.983 225.088C288.659 224.56 288.245 224.152 287.741 223.864C287.237 223.564 286.679 223.414 286.067 223.414C285.455 223.414 284.897 223.564 284.393 223.864C283.889 224.152 283.475 224.56 283.151 225.088C282.839 225.604 282.659 226.198 282.611 226.87ZM292.401 232V230.236H293.463V232H292.401Z" fill="black"/>
<path d="M534.37 25V12.22H539.662C540.214 12.22 540.718 12.334 541.174 12.562C541.642 12.79 542.044 13.102 542.38 13.498C542.728 13.882 542.992 14.314 543.172 14.794C543.364 15.262 543.46 15.742 543.46 16.234C543.46 16.93 543.304 17.59 542.992 18.214C542.68 18.826 542.248 19.324 541.696 19.708C541.144 20.092 540.502 20.284 539.77 20.284H535.63V25H534.37ZM535.63 19.168H539.716C540.22 19.168 540.658 19.03 541.03 18.754C541.402 18.478 541.69 18.118 541.894 17.674C542.098 17.23 542.2 16.75 542.2 16.234C542.2 15.706 542.08 15.226 541.84 14.794C541.6 14.35 541.282 13.996 540.886 13.732C540.502 13.468 540.076 13.336 539.608 13.336H535.63V19.168ZM549.135 25.18C548.235 25.18 547.431 24.958 546.723 24.514C546.027 24.07 545.481 23.482 545.085 22.75C544.689 22.006 544.491 21.202 544.491 20.338C544.491 19.462 544.689 18.658 545.085 17.926C545.493 17.182 546.045 16.588 546.741 16.144C547.449 15.688 548.247 15.46 549.135 15.46C550.035 15.46 550.833 15.688 551.529 16.144C552.237 16.588 552.789 17.182 553.185 17.926C553.593 18.658 553.797 19.462 553.797 20.338C553.797 21.202 553.599 22.006 553.203 22.75C552.807 23.482 552.255 24.07 551.547 24.514C550.851 24.958 550.047 25.18 549.135 25.18ZM545.733 20.356C545.733 21.052 545.883 21.688 546.183 22.264C546.495 22.828 546.909 23.278 547.425 23.614C547.941 23.938 548.511 24.1 549.135 24.1C549.759 24.1 550.329 23.932 550.845 23.596C551.361 23.26 551.775 22.804 552.087 22.228C552.399 21.652 552.555 21.016 552.555 20.32C552.555 19.624 552.399 18.988 552.087 18.412C551.775 17.836 551.361 17.38 550.845 17.044C550.329 16.708 549.759 16.54 549.135 16.54C548.523 16.54 547.959 16.714 547.443 17.062C546.927 17.398 546.513 17.854 546.201 18.43C545.889 19.006 545.733 19.648 545.733 20.356ZM567.336 15.622H568.542L564.51 25H563.448L561.486 20.338L559.542 25H558.48L554.448 15.622H555.636L559.056 23.74L560.784 19.51L559.2 15.64H560.298L561.486 18.682L562.692 15.64H563.772L562.206 19.51L563.934 23.74L567.336 15.622ZM573.904 25.18C573.004 25.18 572.2 24.958 571.492 24.514C570.784 24.07 570.226 23.476 569.818 22.732C569.41 21.988 569.206 21.172 569.206 20.284C569.206 19.408 569.404 18.604 569.8 17.872C570.208 17.14 570.766 16.558 571.474 16.126C572.182 15.682 572.986 15.46 573.886 15.46C574.81 15.46 575.62 15.682 576.316 16.126C577.012 16.57 577.552 17.158 577.936 17.89C578.332 18.61 578.53 19.402 578.53 20.266C578.53 20.458 578.524 20.62 578.512 20.752H570.484C570.544 21.424 570.736 22.024 571.06 22.552C571.384 23.068 571.798 23.482 572.302 23.794C572.806 24.094 573.358 24.244 573.958 24.244C574.57 24.244 575.146 24.088 575.686 23.776C576.226 23.464 576.61 23.056 576.838 22.552L577.9 22.84C577.708 23.296 577.408 23.704 577 24.064C576.604 24.412 576.142 24.688 575.614 24.892C575.086 25.084 574.516 25.18 573.904 25.18ZM570.448 19.87H577.378C577.33 19.198 577.144 18.604 576.82 18.088C576.496 17.56 576.082 17.152 575.578 16.864C575.074 16.564 574.516 16.414 573.904 16.414C573.292 16.414 572.734 16.564 572.23 16.864C571.726 17.152 571.312 17.56 570.988 18.088C570.676 18.604 570.496 19.198 570.448 19.87ZM585.098 16.702C584.282 16.726 583.562 16.954 582.938 17.386C582.326 17.818 581.894 18.412 581.642 19.168V25H580.418V15.622H581.57V17.872C581.894 17.212 582.32 16.678 582.848 16.27C583.388 15.862 583.958 15.634 584.558 15.586C584.678 15.574 584.78 15.568 584.864 15.568C584.948 15.568 585.026 15.574 585.098 15.586V16.702ZM590.498 25.18C589.598 25.18 588.794 24.958 588.086 24.514C587.378 24.07 586.82 23.476 586.412 22.732C586.004 21.988 585.8 21.172 585.8 20.284C585.8 19.408 585.998 18.604 586.394 17.872C586.802 17.14 587.36 16.558 588.068 16.126C588.776 15.682 589.58 15.46 590.48 15.46C591.404 15.46 592.214 15.682 592.91 16.126C593.606 16.57 594.146 17.158 594.53 17.89C594.926 18.61 595.124 19.402 595.124 20.266C595.124 20.458 595.118 20.62 595.106 20.752H587.078C587.138 21.424 587.33 22.024 587.654 22.552C587.978 23.068 588.392 23.482 588.896 23.794C589.4 24.094 589.952 24.244 590.552 24.244C591.164 24.244 591.74 24.088 592.28 23.776C592.82 23.464 593.204 23.056 593.432 22.552L594.494 22.84C594.302 23.296 594.002 23.704 593.594 24.064C593.198 24.412 592.736 24.688 592.208 24.892C591.68 25.084 591.11 25.18 590.498 25.18ZM587.042 19.87H593.972C593.924 19.198 593.738 18.604 593.414 18.088C593.09 17.56 592.676 17.152 592.172 16.864C591.668 16.564 591.11 16.414 590.498 16.414C589.886 16.414 589.328 16.564 588.824 16.864C588.32 17.152 587.906 17.56 587.582 18.088C587.27 18.604 587.09 19.198 587.042 19.87ZM596.382 20.338C596.382 19.45 596.562 18.64 596.922 17.908C597.294 17.164 597.804 16.57 598.452 16.126C599.1 15.682 599.838 15.46 600.666 15.46C601.446 15.46 602.142 15.67 602.754 16.09C603.378 16.498 603.864 16.996 604.212 17.584V11.86H605.436V23.524C605.436 23.848 605.58 24.016 605.868 24.028V25C605.628 25.036 605.442 25.048 605.31 25.036C605.046 25.024 604.818 24.928 604.626 24.748C604.446 24.556 604.356 24.34 604.356 24.1V23.182C603.984 23.794 603.48 24.28 602.844 24.64C602.208 25 601.548 25.18 600.864 25.18C600.216 25.18 599.616 25.048 599.064 24.784C598.512 24.52 598.032 24.16 597.624 23.704C597.228 23.248 596.922 22.732 596.706 22.156C596.49 21.568 596.382 20.962 596.382 20.338ZM604.212 21.778V18.88C604.056 18.448 603.804 18.058 603.456 17.71C603.108 17.35 602.712 17.068 602.268 16.864C601.836 16.648 601.404 16.54 600.972 16.54C600.3 16.54 599.712 16.726 599.208 17.098C598.716 17.458 598.332 17.932 598.056 18.52C597.78 19.096 597.642 19.702 597.642 20.338C597.642 21.01 597.792 21.634 598.092 22.21C598.404 22.786 598.824 23.248 599.352 23.596C599.88 23.932 600.474 24.1 601.134 24.1C601.542 24.1 601.968 23.998 602.412 23.794C602.868 23.578 603.264 23.296 603.6 22.948C603.948 22.6 604.152 22.21 604.212 21.778ZM617.387 25.18C616.655 25.18 615.977 24.994 615.353 24.622C614.729 24.238 614.243 23.758 613.895 23.182V25H612.797V11.86H614.021V17.584C614.441 16.948 614.945 16.438 615.533 16.054C616.121 15.658 616.805 15.46 617.585 15.46C618.245 15.46 618.833 15.598 619.349 15.874C619.877 16.15 620.327 16.522 620.699 16.99C621.071 17.446 621.353 17.968 621.545 18.556C621.737 19.132 621.833 19.726 621.833 20.338C621.833 21.214 621.635 22.018 621.239 22.75C620.855 23.482 620.327 24.07 619.655 24.514C618.983 24.958 618.227 25.18 617.387 25.18ZM617.099 24.1C617.783 24.1 618.383 23.92 618.899 23.56C619.427 23.2 619.841 22.738 620.141 22.174C620.441 21.598 620.591 20.986 620.591 20.338C620.591 19.678 620.447 19.06 620.159 18.484C619.883 17.908 619.493 17.44 618.989 17.08C618.485 16.72 617.903 16.54 617.243 16.54C616.511 16.54 615.863 16.774 615.299 17.242C614.747 17.71 614.321 18.256 614.021 18.88V21.796C614.081 22.228 614.279 22.618 614.615 22.966C614.951 23.314 615.347 23.59 615.803 23.794C616.259 23.998 616.691 24.1 617.099 24.1ZM624.13 27.88C624.298 27.892 624.46 27.898 624.616 27.898C624.772 27.91 624.886 27.904 624.958 27.88C625.102 27.868 625.234 27.784 625.354 27.628C625.486 27.484 625.642 27.208 625.822 26.8C626.014 26.404 626.272 25.804 626.596 25L622.51 15.622H623.806L627.244 23.74L630.412 15.622H631.636L626.776 27.718C626.644 28.066 626.422 28.366 626.11 28.618C625.798 28.87 625.384 29.002 624.868 29.014C624.76 29.026 624.646 29.026 624.526 29.014C624.406 29.014 624.274 29.002 624.13 28.978V27.88ZM642.23 25.18C641.45 25.18 640.748 24.976 640.124 24.568C639.512 24.16 639.026 23.656 638.666 23.056V28.834H637.442V15.622H638.54V17.44C638.912 16.852 639.404 16.378 640.016 16.018C640.64 15.646 641.312 15.46 642.032 15.46C642.68 15.46 643.274 15.598 643.814 15.874C644.354 16.138 644.822 16.498 645.218 16.954C645.626 17.41 645.938 17.932 646.154 18.52C646.37 19.096 646.478 19.696 646.478 20.32C646.478 21.196 646.298 22.006 645.938 22.75C645.59 23.482 645.092 24.07 644.444 24.514C643.808 24.958 643.07 25.18 642.23 25.18ZM641.888 24.1C642.572 24.1 643.16 23.92 643.652 23.56C644.156 23.188 644.546 22.714 644.822 22.138C645.098 21.562 645.236 20.956 645.236 20.32C645.236 19.648 645.08 19.024 644.768 18.448C644.456 17.872 644.036 17.41 643.508 17.062C642.992 16.714 642.404 16.54 641.744 16.54C641.336 16.54 640.904 16.648 640.448 16.864C640.004 17.068 639.608 17.35 639.26 17.71C638.924 18.058 638.726 18.442 638.666 18.862V21.742C638.942 22.402 639.374 22.96 639.962 23.416C640.55 23.872 641.192 24.1 641.888 24.1ZM652.601 25.18C651.701 25.18 650.897 24.958 650.189 24.514C649.481 24.07 648.923 23.476 648.515 22.732C648.107 21.988 647.903 21.172 647.903 20.284C647.903 19.408 648.101 18.604 648.497 17.872C648.905 17.14 649.463 16.558 650.171 16.126C650.879 15.682 651.683 15.46 652.583 15.46C653.507 15.46 654.317 15.682 655.013 16.126C655.709 16.57 656.249 17.158 656.633 17.89C657.029 18.61 657.227 19.402 657.227 20.266C657.227 20.458 657.221 20.62 657.209 20.752H649.181C649.241 21.424 649.433 22.024 649.757 22.552C650.081 23.068 650.495 23.482 650.999 23.794C651.503 24.094 652.055 24.244 652.655 24.244C653.267 24.244 653.843 24.088 654.383 23.776C654.923 23.464 655.307 23.056 655.535 22.552L656.597 22.84C656.405 23.296 656.105 23.704 655.697 24.064C655.301 24.412 654.839 24.688 654.311 24.892C653.783 25.084 653.213 25.18 652.601 25.18ZM649.145 19.87H656.075C656.027 19.198 655.841 18.604 655.517 18.088C655.193 17.56 654.779 17.152 654.275 16.864C653.771 16.564 653.213 16.414 652.601 16.414C651.989 16.414 651.431 16.564 650.927 16.864C650.423 17.152 650.009 17.56 649.685 18.088C649.373 18.604 649.193 19.198 649.145 19.87ZM659.052 15.622L661.806 19.294L661.95 19.564L662.094 19.294L664.83 15.622H666.216L662.652 20.338L666.216 25H664.83L662.094 21.346L661.95 21.094L661.806 21.346L659.07 25H657.684L661.23 20.338L657.684 15.622H659.052ZM671.463 25.18C670.563 25.18 669.759 24.958 669.051 24.514C668.343 24.07 667.785 23.476 667.377 22.732C666.969 21.988 666.765 21.172 666.765 20.284C666.765 19.408 666.963 18.604 667.359 17.872C667.767 17.14 668.325 16.558 669.033 16.126C669.741 15.682 670.545 15.46 671.445 15.46C672.369 15.46 673.179 15.682 673.875 16.126C674.571 16.57 675.111 17.158 675.495 17.89C675.891 18.61 676.089 19.402 676.089 20.266C676.089 20.458 676.083 20.62 676.071 20.752H668.043C668.103 21.424 668.295 22.024 668.619 22.552C668.943 23.068 669.357 23.482 669.861 23.794C670.365 24.094 670.917 24.244 671.517 24.244C672.129 24.244 672.705 24.088 673.245 23.776C673.785 23.464 674.169 23.056 674.397 22.552L675.459 22.84C675.267 23.296 674.967 23.704 674.559 24.064C674.163 24.412 673.701 24.688 673.173 24.892C672.645 25.084 672.075 25.18 671.463 25.18ZM668.007 19.87H674.937C674.889 19.198 674.703 18.604 674.379 18.088C674.055 17.56 673.641 17.152 673.137 16.864C672.633 16.564 672.075 16.414 671.463 16.414C670.851 16.414 670.293 16.564 669.789 16.864C669.285 17.152 668.871 17.56 668.547 18.088C668.235 18.604 668.055 19.198 668.007 19.87ZM678.031 11.86H679.255V22.876C679.255 23.344 679.333 23.65 679.489 23.794C679.657 23.938 679.867 24.01 680.119 24.01C680.335 24.01 680.551 23.986 680.767 23.938C680.995 23.89 681.181 23.842 681.325 23.794L681.541 24.784C681.313 24.88 681.031 24.958 680.695 25.018C680.371 25.078 680.089 25.108 679.849 25.108C679.297 25.108 678.853 24.946 678.517 24.622C678.193 24.298 678.031 23.854 678.031 23.29V11.86ZM685.959 25.18C685.191 25.18 684.477 25.054 683.817 24.802C683.169 24.538 682.599 24.154 682.107 23.65L682.611 22.786C683.139 23.278 683.667 23.638 684.195 23.866C684.735 24.082 685.305 24.19 685.905 24.19C686.625 24.19 687.213 24.046 687.669 23.758C688.137 23.458 688.371 23.032 688.371 22.48C688.371 22.108 688.257 21.826 688.029 21.634C687.813 21.43 687.495 21.268 687.075 21.148C686.667 21.028 686.175 20.89 685.599 20.734C684.951 20.554 684.405 20.368 683.961 20.176C683.529 19.972 683.199 19.72 682.971 19.42C682.755 19.108 682.647 18.706 682.647 18.214C682.647 17.614 682.797 17.11 683.097 16.702C683.409 16.294 683.829 15.988 684.357 15.784C684.897 15.568 685.497 15.46 686.157 15.46C686.877 15.46 687.513 15.574 688.065 15.802C688.617 16.03 689.067 16.348 689.415 16.756L688.821 17.584C688.497 17.2 688.095 16.918 687.615 16.738C687.147 16.546 686.637 16.45 686.085 16.45C685.701 16.45 685.335 16.504 684.987 16.612C684.639 16.708 684.351 16.876 684.123 17.116C683.907 17.344 683.799 17.662 683.799 18.07C683.799 18.574 683.985 18.922 684.357 19.114C684.729 19.306 685.293 19.51 686.049 19.726C686.757 19.918 687.375 20.11 687.903 20.302C688.431 20.494 688.839 20.752 689.127 21.076C689.415 21.388 689.559 21.826 689.559 22.39C689.559 23.266 689.229 23.95 688.569 24.442C687.909 24.934 687.039 25.18 685.959 25.18Z" fill="black"/>
</g>
<defs>
<linearGradient id="paint0_linear" x1="350" y1="0" x2="350" y2="300" gradientUnits="userSpaceOnUse">
<stop stop-color="#0CB9E4"/>
<stop offset="1" stop-color="#FF6584"/>
</linearGradient>
<linearGradient id="paint1_linear" x1="481.843" y1="54.0713" x2="481.843" y2="255.291" gradientUnits="userSpaceOnUse">
<stop stop-color="#F2F2F2"/>
<stop offset="1" stop-color="#F2F2F2" stop-opacity="0"/>
</linearGradient>
<clipPath id="clip0">
<rect width="700" height="300" rx="12" fill="white"/>
</clipPath>
</defs>
</svg>
