<svg width="50" height="50" viewBox="0 0 50 50" fill="none" xmlns="http://www.w3.org/2000/svg">
<g clip-path="url(#clip0)">
<path d="M46.2106 -0.131989C48.2492 -0.131989 49.9095 1.48215 49.9095 3.47314V46.2601C49.9095 48.2511 48.2492 49.868 46.2106 49.868H3.5974C1.56281 49.868 -0.0905275 48.2511 -0.0905275 46.2601V3.47314C-0.0905275 1.48215 1.56281 -0.131989 3.5974 -0.131989H46.2106V-0.131989ZM42.5172 42.4732V29.3873C42.5172 22.961 41.1296 18.0204 33.6208 18.0204C30.0127 18.0204 27.593 19.9987 26.6042 21.8745H26.5026V18.6125H19.3938V42.4732H26.8009V30.6717C26.8009 27.559 27.3897 24.5431 31.2485 24.5431C35.0544 24.5431 35.1019 28.1029 35.1019 30.8698V42.4732H42.5172V42.4732ZM14.7414 18.6125H7.31794V42.4732H14.7414V18.6125ZM11.0316 6.75141C8.64986 6.75141 6.7293 8.67816 6.7293 11.0518C6.7293 13.426 8.64986 15.3526 11.0316 15.3526C13.404 15.3526 15.3301 13.426 15.3301 11.0518C15.3301 8.67816 13.404 6.75141 11.0316 6.75141V6.75141Z" fill="black"/>
</g>
<defs>
<clipPath id="clip0">
<rect width="50" height="50" fill="white"/>
</clipPath>
</defs>
</svg>
