<svg width="700" height="300" viewBox="0 0 700 300" fill="none" xmlns="http://www.w3.org/2000/svg">
<g clip-path="url(#clip0)">
<rect width="700" height="300" fill="url(#paint0_linear)"/>
<path d="M118.934 135V103.76H132.134C133.483 103.76 134.715 104.039 135.83 104.596C136.974 105.153 137.956 105.916 138.778 106.884C139.599 107.823 140.23 108.879 140.67 110.052C141.139 111.196 141.374 112.369 141.374 113.572C141.374 115.097 141.08 116.52 140.494 117.84C139.936 119.16 139.13 120.275 138.074 121.184C137.018 122.093 135.8 122.68 134.422 122.944L142.078 135H138.602L131.254 123.472H122.014V135H118.934ZM122.014 120.744H132.222C133.454 120.744 134.524 120.407 135.434 119.732C136.343 119.028 137.047 118.133 137.546 117.048C138.044 115.963 138.294 114.804 138.294 113.572C138.294 112.311 138 111.152 137.414 110.096C136.856 109.011 136.094 108.145 135.126 107.5C134.158 106.825 133.102 106.488 131.958 106.488H122.014V120.744ZM156.276 135.44C154.076 135.44 152.111 134.897 150.38 133.812C148.65 132.727 147.286 131.275 146.288 129.456C145.291 127.637 144.792 125.643 144.792 123.472C144.792 121.331 145.276 119.365 146.244 117.576C147.242 115.787 148.606 114.364 150.336 113.308C152.067 112.223 154.032 111.68 156.232 111.68C158.491 111.68 160.471 112.223 162.172 113.308C163.874 114.393 165.194 115.831 166.132 117.62C167.1 119.38 167.584 121.316 167.584 123.428C167.584 123.897 167.57 124.293 167.54 124.616H147.916C148.063 126.259 148.532 127.725 149.324 129.016C150.116 130.277 151.128 131.289 152.36 132.052C153.592 132.785 154.942 133.152 156.408 133.152C157.904 133.152 159.312 132.771 160.632 132.008C161.952 131.245 162.891 130.248 163.448 129.016L166.044 129.72C165.575 130.835 164.842 131.832 163.844 132.712C162.876 133.563 161.747 134.237 160.456 134.736C159.166 135.205 157.772 135.44 156.276 135.44ZM147.828 122.46H164.768C164.651 120.817 164.196 119.365 163.404 118.104C162.612 116.813 161.6 115.816 160.368 115.112C159.136 114.379 157.772 114.012 156.276 114.012C154.78 114.012 153.416 114.379 152.184 115.112C150.952 115.816 149.94 116.813 149.148 118.104C148.386 119.365 147.946 120.817 147.828 122.46ZM182.1 135.44C179.9 135.44 177.935 134.897 176.204 133.812C174.474 132.727 173.11 131.275 172.112 129.456C171.115 127.637 170.616 125.643 170.616 123.472C170.616 121.331 171.1 119.365 172.068 117.576C173.066 115.787 174.43 114.364 176.16 113.308C177.891 112.223 179.856 111.68 182.056 111.68C184.315 111.68 186.295 112.223 187.996 113.308C189.698 114.393 191.018 115.831 191.956 117.62C192.924 119.38 193.408 121.316 193.408 123.428C193.408 123.897 193.394 124.293 193.364 124.616H173.74C173.887 126.259 174.356 127.725 175.148 129.016C175.94 130.277 176.952 131.289 178.184 132.052C179.416 132.785 180.766 133.152 182.232 133.152C183.728 133.152 185.136 132.771 186.456 132.008C187.776 131.245 188.715 130.248 189.272 129.016L191.868 129.72C191.399 130.835 190.666 131.832 189.668 132.712C188.7 133.563 187.571 134.237 186.28 134.736C184.99 135.205 183.596 135.44 182.1 135.44ZM173.652 122.46H190.592C190.475 120.817 190.02 119.365 189.228 118.104C188.436 116.813 187.424 115.816 186.192 115.112C184.96 114.379 183.596 114.012 182.1 114.012C180.604 114.012 179.24 114.379 178.008 115.112C176.776 115.816 175.764 116.813 174.972 118.104C174.21 119.365 173.77 120.817 173.652 122.46ZM198.157 102.88H201.149V129.808C201.149 130.952 201.339 131.7 201.721 132.052C202.131 132.404 202.645 132.58 203.261 132.58C203.789 132.58 204.317 132.521 204.845 132.404C205.402 132.287 205.857 132.169 206.209 132.052L206.737 134.472C206.179 134.707 205.49 134.897 204.669 135.044C203.877 135.191 203.187 135.264 202.601 135.264C201.251 135.264 200.166 134.868 199.345 134.076C198.553 133.284 198.157 132.199 198.157 130.82V102.88ZM217.537 135.44C215.66 135.44 213.914 135.132 212.301 134.516C210.717 133.871 209.324 132.932 208.121 131.7L209.353 129.588C210.644 130.791 211.934 131.671 213.225 132.228C214.545 132.756 215.938 133.02 217.405 133.02C219.165 133.02 220.602 132.668 221.717 131.964C222.861 131.231 223.433 130.189 223.433 128.84C223.433 127.931 223.154 127.241 222.597 126.772C222.069 126.273 221.292 125.877 220.265 125.584C219.268 125.291 218.065 124.953 216.657 124.572C215.073 124.132 213.738 123.677 212.653 123.208C211.597 122.709 210.79 122.093 210.233 121.36C209.705 120.597 209.441 119.615 209.441 118.412C209.441 116.945 209.808 115.713 210.541 114.716C211.304 113.719 212.33 112.971 213.621 112.472C214.941 111.944 216.408 111.68 218.021 111.68C219.781 111.68 221.336 111.959 222.685 112.516C224.034 113.073 225.134 113.851 225.985 114.848L224.533 116.872C223.741 115.933 222.758 115.244 221.585 114.804C220.441 114.335 219.194 114.1 217.845 114.1C216.906 114.1 216.012 114.232 215.161 114.496C214.31 114.731 213.606 115.141 213.049 115.728C212.521 116.285 212.257 117.063 212.257 118.06C212.257 119.292 212.712 120.143 213.621 120.612C214.53 121.081 215.909 121.58 217.757 122.108C219.488 122.577 220.998 123.047 222.289 123.516C223.58 123.985 224.577 124.616 225.281 125.408C225.985 126.171 226.337 127.241 226.337 128.62C226.337 130.761 225.53 132.433 223.917 133.636C222.304 134.839 220.177 135.44 217.537 135.44Z" fill="black"/>
<path d="M118.934 135H116.934V137H118.934V135ZM118.934 103.76V101.76H116.934V103.76H118.934ZM135.83 104.596L134.935 106.385L134.944 106.389L134.954 106.394L135.83 104.596ZM138.778 106.884L137.253 108.178L137.262 108.19L137.272 108.201L138.778 106.884ZM140.67 110.052L138.797 110.754L138.808 110.783L138.819 110.811L140.67 110.052ZM140.494 117.84L138.666 117.028L138.658 117.045L138.651 117.062L140.494 117.84ZM138.074 121.184L139.379 122.7L139.379 122.7L138.074 121.184ZM134.422 122.944L134.045 120.98L131.156 121.533L132.733 124.016L134.422 122.944ZM142.078 135V137H145.717L143.766 133.928L142.078 135ZM138.602 135L136.915 136.075L137.505 137H138.602V135ZM131.254 123.472L132.94 122.397L132.351 121.472H131.254V123.472ZM122.014 123.472V121.472H120.014V123.472H122.014ZM122.014 135V137H124.014V135H122.014ZM122.014 120.744H120.014V122.744H122.014V120.744ZM135.434 119.732L136.625 121.338L136.642 121.326L136.658 121.313L135.434 119.732ZM137.546 117.048L135.728 116.213V116.213L137.546 117.048ZM137.414 110.096L135.634 111.01L135.649 111.039L135.665 111.067L137.414 110.096ZM135.126 107.5L133.982 109.141L133.999 109.153L134.016 109.164L135.126 107.5ZM122.014 106.488V104.488H120.014V106.488H122.014ZM120.934 135V103.76H116.934V135H120.934ZM118.934 105.76H132.134V101.76H118.934V105.76ZM132.134 105.76C133.199 105.76 134.121 105.978 134.935 106.385L136.724 102.807C135.309 102.1 133.767 101.76 132.134 101.76V105.76ZM134.954 106.394C135.849 106.83 136.611 107.422 137.253 108.178L140.303 105.59C139.302 104.41 138.098 103.476 136.706 102.798L134.954 106.394ZM137.272 108.201C137.935 108.958 138.441 109.805 138.797 110.754L142.542 109.35C142.018 107.952 141.263 106.688 140.283 105.567L137.272 108.201ZM138.819 110.811C139.193 111.721 139.374 112.637 139.374 113.572H143.374C143.374 112.102 143.085 110.671 142.52 109.293L138.819 110.811ZM139.374 113.572C139.374 114.833 139.133 115.978 138.666 117.028L142.321 118.652C143.028 117.062 143.374 115.361 143.374 113.572H139.374ZM138.651 117.062C138.21 118.106 137.584 118.966 136.769 119.668L139.379 122.7C140.675 121.583 141.662 120.214 142.336 118.618L138.651 117.062ZM136.769 119.668C135.98 120.348 135.083 120.781 134.045 120.98L134.798 124.908C136.517 124.579 138.056 123.839 139.379 122.7L136.769 119.668ZM132.733 124.016L140.389 136.072L143.766 133.928L136.11 121.872L132.733 124.016ZM142.078 133H138.602V137H142.078V133ZM140.288 133.925L132.94 122.397L129.567 124.547L136.915 136.075L140.288 133.925ZM131.254 121.472H122.014V125.472H131.254V121.472ZM120.014 123.472V135H124.014V123.472H120.014ZM122.014 133H118.934V137H122.014V133ZM122.014 122.744H132.222V118.744H122.014V122.744ZM132.222 122.744C133.843 122.744 135.34 122.291 136.625 121.338L134.242 118.126C133.708 118.522 133.064 118.744 132.222 118.744V122.744ZM136.658 121.313C137.832 120.404 138.735 119.25 139.363 117.883L135.728 116.213C135.359 117.017 134.854 117.652 134.209 118.151L136.658 121.313ZM139.363 117.883C139.986 116.527 140.294 115.083 140.294 113.572H136.294C136.294 114.525 136.103 115.398 135.728 116.213L139.363 117.883ZM140.294 113.572C140.294 111.986 139.921 110.491 139.162 109.125L135.665 111.067C136.079 111.813 136.294 112.635 136.294 113.572H140.294ZM139.193 109.182C138.488 107.809 137.501 106.68 136.235 105.836L134.016 109.164C134.687 109.611 135.225 110.212 135.634 111.01L139.193 109.182ZM136.269 105.859C134.977 104.959 133.524 104.488 131.958 104.488V108.488C132.679 108.488 133.338 108.692 133.982 109.141L136.269 105.859ZM131.958 104.488H122.014V108.488H131.958V104.488ZM120.014 106.488V120.744H124.014V106.488H120.014ZM150.38 133.812L149.318 135.506L150.38 133.812ZM146.288 129.456L144.535 130.418L146.288 129.456ZM146.244 117.576L144.497 116.602L144.491 116.613L144.485 116.624L146.244 117.576ZM150.336 113.308L151.378 115.015L151.388 115.009L151.399 115.002L150.336 113.308ZM166.132 117.62L164.361 118.549L164.37 118.567L164.38 118.584L166.132 117.62ZM167.54 124.616V126.616H169.367L169.532 124.797L167.54 124.616ZM147.916 124.616V122.616H145.73L145.924 124.794L147.916 124.616ZM149.324 129.016L147.62 130.062L147.625 130.071L147.63 130.08L149.324 129.016ZM152.36 132.052L151.307 133.753L151.322 133.762L151.337 133.771L152.36 132.052ZM160.632 132.008L159.632 130.276L160.632 132.008ZM163.448 129.016L163.972 127.086L162.328 126.64L161.626 128.192L163.448 129.016ZM166.044 129.72L167.887 130.496L168.775 128.388L166.568 127.79L166.044 129.72ZM163.844 132.712L165.164 134.214L165.167 134.212L163.844 132.712ZM160.456 134.736L161.14 136.616L161.158 136.609L161.177 136.602L160.456 134.736ZM147.828 122.46L145.833 122.318L145.68 124.46H147.828V122.46ZM164.768 122.46V124.46H166.916L166.763 122.318L164.768 122.46ZM163.404 118.104L161.7 119.15L161.705 119.159L161.71 119.168L163.404 118.104ZM160.368 115.112L159.345 116.831L159.36 116.84L159.376 116.848L160.368 115.112ZM152.184 115.112L153.176 116.848L153.192 116.84L153.207 116.831L152.184 115.112ZM149.148 118.104L147.443 117.058L147.437 117.069L149.148 118.104ZM156.276 133.44C154.422 133.44 152.83 132.988 151.443 132.118L149.318 135.506C151.391 136.807 153.73 137.44 156.276 137.44V133.44ZM151.443 132.118C150.006 131.216 148.878 130.019 148.042 128.494L144.535 130.418C145.693 132.531 147.293 134.237 149.318 135.506L151.443 132.118ZM148.042 128.494C147.214 126.984 146.792 125.323 146.792 123.472H142.792C142.792 125.963 143.368 128.29 144.535 130.418L148.042 128.494ZM146.792 123.472C146.792 121.645 147.202 120.009 148.003 118.528L144.485 116.624C143.351 118.721 142.792 121.016 142.792 123.472H146.792ZM147.991 118.55C148.822 117.058 149.945 115.89 151.378 115.015L149.294 111.601C147.266 112.838 145.661 114.515 144.497 116.602L147.991 118.55ZM151.399 115.002C152.786 114.132 154.378 113.68 156.232 113.68V109.68C153.686 109.68 151.347 110.313 149.274 111.614L151.399 115.002ZM156.232 113.68C158.157 113.68 159.754 114.138 161.097 114.994L163.248 111.622C161.188 110.308 158.825 109.68 156.232 109.68V113.68ZM161.097 114.994C162.504 115.892 163.584 117.068 164.361 118.549L167.903 116.691C166.803 114.593 165.243 112.895 163.248 111.622L161.097 114.994ZM164.38 118.584C165.177 120.033 165.584 121.635 165.584 123.428H169.584C169.584 120.997 169.023 118.727 167.885 116.656L164.38 118.584ZM165.584 123.428C165.584 123.861 165.57 124.193 165.548 124.435L169.532 124.797C169.569 124.394 169.584 123.934 169.584 123.428H165.584ZM167.54 122.616H147.916V126.616H167.54V122.616ZM145.924 124.794C146.096 126.716 146.652 128.485 147.62 130.062L151.029 127.97C150.412 126.965 150.03 125.801 149.908 124.438L145.924 124.794ZM147.63 130.08C148.58 131.592 149.809 132.825 151.307 133.753L153.413 130.351C152.448 129.754 151.652 128.963 151.018 127.952L147.63 130.08ZM151.337 133.771C152.886 134.693 154.59 135.152 156.408 135.152V131.152C155.293 131.152 154.298 130.878 153.383 130.333L151.337 133.771ZM156.408 135.152C158.262 135.152 160.015 134.675 161.633 133.74L159.632 130.276C158.61 130.867 157.546 131.152 156.408 131.152V135.152ZM161.633 133.74C163.267 132.796 164.519 131.501 165.27 129.84L161.626 128.192C161.262 128.995 160.638 129.695 159.632 130.276L161.633 133.74ZM162.925 130.946L165.521 131.65L166.568 127.79L163.972 127.086L162.925 130.946ZM164.201 128.944C163.86 129.755 163.316 130.511 162.521 131.212L165.167 134.212C166.368 133.153 167.29 131.915 167.887 130.496L164.201 128.944ZM162.524 131.21C161.745 131.894 160.823 132.45 159.735 132.87L161.177 136.602C162.671 136.024 164.007 135.232 165.164 134.214L162.524 131.21ZM159.773 132.856C158.72 133.239 157.56 133.44 156.276 133.44V137.44C157.984 137.44 159.611 137.171 161.14 136.616L159.773 132.856ZM147.828 124.46H164.768V120.46H147.828V124.46ZM166.763 122.318C166.625 120.383 166.082 118.608 165.098 117.04L161.71 119.168C162.31 120.123 162.677 121.252 162.773 122.602L166.763 122.318ZM165.109 117.058C164.153 115.501 162.904 114.257 161.36 113.376L159.376 116.848C160.297 117.375 161.071 118.126 161.7 119.15L165.109 117.058ZM161.391 113.393C159.836 112.468 158.116 112.012 156.276 112.012V116.012C157.428 116.012 158.436 116.29 159.345 116.831L161.391 113.393ZM156.276 112.012C154.436 112.012 152.716 112.468 151.161 113.393L153.207 116.831C154.116 116.29 155.124 116.012 156.276 116.012V112.012ZM151.192 113.376C149.649 114.257 148.399 115.501 147.444 117.058L150.853 119.15C151.481 118.126 152.256 117.375 153.176 116.848L151.192 113.376ZM147.437 117.069C146.492 118.632 145.97 120.397 145.833 122.318L149.823 122.602C149.921 121.238 150.279 120.099 150.86 119.139L147.437 117.069ZM176.204 133.812L175.142 135.506L176.204 133.812ZM172.112 129.456L170.359 130.418L172.112 129.456ZM172.068 117.576L170.321 116.602L170.315 116.613L170.309 116.624L172.068 117.576ZM176.16 113.308L177.202 115.015L177.213 115.009L177.223 115.002L176.16 113.308ZM191.956 117.62L190.185 118.549L190.194 118.567L190.204 118.584L191.956 117.62ZM193.364 124.616V126.616H195.191L195.356 124.797L193.364 124.616ZM173.74 124.616V122.616H171.554L171.748 124.794L173.74 124.616ZM175.148 129.016L173.444 130.062L173.449 130.071L173.455 130.08L175.148 129.016ZM178.184 132.052L177.132 133.753L177.146 133.762L177.161 133.771L178.184 132.052ZM186.456 132.008L185.456 130.276L186.456 132.008ZM189.272 129.016L189.796 127.086L188.152 126.64L187.45 128.192L189.272 129.016ZM191.868 129.72L193.712 130.496L194.599 128.388L192.392 127.79L191.868 129.72ZM189.668 132.712L190.989 134.214L190.992 134.212L189.668 132.712ZM186.28 134.736L186.964 136.616L186.983 136.609L187.001 136.602L186.28 134.736ZM173.652 122.46L171.657 122.318L171.504 124.46H173.652V122.46ZM190.592 122.46V124.46H192.74L192.587 122.318L190.592 122.46ZM189.228 118.104L187.524 119.15L187.529 119.159L187.535 119.168L189.228 118.104ZM186.192 115.112L185.169 116.831L185.185 116.84L185.2 116.848L186.192 115.112ZM178.008 115.112L179.001 116.848L179.016 116.84L179.031 116.831L178.008 115.112ZM174.972 118.104L173.268 117.058L173.261 117.069L174.972 118.104ZM182.1 133.44C180.246 133.44 178.655 132.988 177.267 132.118L175.142 135.506C177.215 136.807 179.555 137.44 182.1 137.44V133.44ZM177.267 132.118C175.83 131.216 174.702 130.019 173.866 128.494L170.359 130.418C171.518 132.531 173.117 134.237 175.142 135.506L177.267 132.118ZM173.866 128.494C173.038 126.984 172.616 125.323 172.616 123.472H168.616C168.616 125.963 169.192 128.29 170.359 130.418L173.866 128.494ZM172.616 123.472C172.616 121.645 173.026 120.009 173.827 118.528L170.309 116.624C169.175 118.721 168.616 121.016 168.616 123.472H172.616ZM173.815 118.55C174.647 117.058 175.769 115.89 177.202 115.015L175.119 111.601C173.09 112.838 171.485 114.515 170.321 116.602L173.815 118.55ZM177.223 115.002C178.611 114.132 180.202 113.68 182.056 113.68V109.68C179.511 109.68 177.171 110.313 175.098 111.614L177.223 115.002ZM182.056 113.68C183.981 113.68 185.578 114.138 186.921 114.994L189.072 111.622C187.012 110.308 184.649 109.68 182.056 109.68V113.68ZM186.921 114.994C188.328 115.892 189.408 117.068 190.185 118.549L193.727 116.691C192.627 114.593 191.068 112.895 189.072 111.622L186.921 114.994ZM190.204 118.584C191.001 120.033 191.408 121.635 191.408 123.428H195.408C195.408 120.997 194.848 118.727 193.709 116.656L190.204 118.584ZM191.408 123.428C191.408 123.861 191.395 124.193 191.373 124.435L195.356 124.797C195.393 124.394 195.408 123.934 195.408 123.428H191.408ZM193.364 122.616H173.74V126.616H193.364V122.616ZM171.748 124.794C171.92 126.716 172.476 128.485 173.444 130.062L176.853 127.97C176.237 126.965 175.854 125.801 175.732 124.438L171.748 124.794ZM173.455 130.08C174.404 131.592 175.633 132.825 177.132 133.753L179.237 130.351C178.272 129.754 177.477 128.963 176.842 127.952L173.455 130.08ZM177.161 133.771C178.71 134.693 180.414 135.152 182.232 135.152V131.152C181.117 131.152 180.123 130.878 179.207 130.333L177.161 133.771ZM182.232 135.152C184.087 135.152 185.839 134.675 187.457 133.74L185.456 130.276C184.434 130.867 183.37 131.152 182.232 131.152V135.152ZM187.457 133.74C189.091 132.796 190.343 131.501 191.095 129.84L187.45 128.192C187.087 128.995 186.462 129.695 185.456 130.276L187.457 133.74ZM188.749 130.946L191.345 131.65L192.392 127.79L189.796 127.086L188.749 130.946ZM190.025 128.944C189.684 129.755 189.14 130.511 188.345 131.212L190.992 134.212C192.192 133.153 193.114 131.915 193.712 130.496L190.025 128.944ZM188.348 131.21C187.57 131.894 186.647 132.45 185.56 132.87L187.001 136.602C188.495 136.024 189.831 135.232 190.989 134.214L188.348 131.21ZM185.597 132.856C184.544 133.239 183.384 133.44 182.1 133.44V137.44C183.809 137.44 185.435 137.171 186.964 136.616L185.597 132.856ZM173.652 124.46H190.592V120.46H173.652V124.46ZM192.587 122.318C192.449 120.383 191.906 118.608 190.922 117.04L187.535 119.168C188.134 120.123 188.501 121.252 188.597 122.602L192.587 122.318ZM190.933 117.058C189.978 115.501 188.728 114.257 187.185 113.376L185.2 116.848C186.121 117.375 186.895 118.126 187.524 119.15L190.933 117.058ZM187.215 113.393C185.66 112.468 183.94 112.012 182.1 112.012V116.012C183.253 116.012 184.261 116.29 185.169 116.831L187.215 113.393ZM182.1 112.012C180.261 112.012 178.541 112.468 176.985 113.393L179.031 116.831C179.94 116.29 180.948 116.012 182.1 116.012V112.012ZM177.016 113.376C175.473 114.257 174.223 115.501 173.268 117.058L176.677 119.15C177.306 118.126 178.08 117.375 179.001 116.848L177.016 113.376ZM173.261 117.069C172.316 118.632 171.795 120.397 171.657 122.318L175.647 122.602C175.745 121.238 176.103 120.099 176.684 119.139L173.261 117.069ZM198.157 102.88V100.88H196.157V102.88H198.157ZM201.149 102.88H203.149V100.88H201.149V102.88ZM201.721 132.052L200.364 133.522L200.391 133.547L200.419 133.571L201.721 132.052ZM204.845 132.404L204.433 130.447L204.422 130.449L204.411 130.452L204.845 132.404ZM206.209 132.052L208.163 131.626L207.688 129.451L205.576 130.155L206.209 132.052ZM206.737 134.472L207.513 136.315L209.045 135.67L208.691 134.046L206.737 134.472ZM204.669 135.044L204.317 133.075L204.304 133.077L204.669 135.044ZM199.345 134.076L197.93 135.49L197.943 135.503L197.956 135.516L199.345 134.076ZM198.157 104.88H201.149V100.88H198.157V104.88ZM199.149 102.88V129.808H203.149V102.88H199.149ZM199.149 129.808C199.149 130.475 199.202 131.128 199.354 131.721C199.501 132.298 199.783 132.985 200.364 133.522L203.077 130.582C203.277 130.767 203.273 130.904 203.23 130.733C203.19 130.578 203.149 130.285 203.149 129.808H199.149ZM200.419 133.571C201.242 134.276 202.238 134.58 203.261 134.58V130.58C203.144 130.58 203.084 130.564 203.062 130.556C203.044 130.55 203.035 130.544 203.022 130.533L200.419 133.571ZM203.261 134.58C203.938 134.58 204.612 134.505 205.278 134.356L204.411 130.452C204.022 130.538 203.639 130.58 203.261 130.58V134.58ZM205.257 134.361C205.854 134.235 206.389 134.1 206.841 133.949L205.576 130.155C205.324 130.239 204.95 130.338 204.433 130.447L205.257 134.361ZM204.255 132.478L204.783 134.898L208.691 134.046L208.163 131.626L204.255 132.478ZM205.96 132.629C205.58 132.789 205.043 132.945 204.317 133.075L205.02 137.013C205.937 136.849 206.779 136.624 207.513 136.315L205.96 132.629ZM204.304 133.077C203.592 133.209 203.03 133.264 202.601 133.264V137.264C203.345 137.264 204.162 137.172 205.033 137.011L204.304 133.077ZM202.601 133.264C201.668 133.264 201.115 133.004 200.733 132.636L197.956 135.516C199.217 136.732 200.835 137.264 202.601 137.264V133.264ZM200.759 132.662C200.425 132.328 200.157 131.798 200.157 130.82H196.157C196.157 132.599 196.68 134.24 197.93 135.49L200.759 132.662ZM200.157 130.82V102.88H196.157V130.82H200.157ZM212.301 134.516L211.546 136.368L211.567 136.377L211.587 136.384L212.301 134.516ZM208.121 131.7L206.393 130.692L205.626 132.007L206.69 133.097L208.121 131.7ZM209.353 129.588L210.716 128.125L208.886 126.419L207.625 128.58L209.353 129.588ZM213.225 132.228L212.432 134.064L212.457 134.075L212.482 134.085L213.225 132.228ZM221.717 131.964L222.785 133.655L222.796 133.648L221.717 131.964ZM222.597 126.772L221.224 128.226L221.265 128.265L221.309 128.302L222.597 126.772ZM220.265 125.584L219.701 127.503L219.708 127.505L219.715 127.507L220.265 125.584ZM216.657 124.572L216.122 126.499L216.134 126.502L216.657 124.572ZM212.653 123.208L211.799 125.016L211.829 125.031L211.859 125.044L212.653 123.208ZM210.233 121.36L208.589 122.498L208.614 122.535L208.641 122.57L210.233 121.36ZM210.541 114.716L208.952 113.501L208.941 113.516L208.93 113.531L210.541 114.716ZM213.621 112.472L214.342 114.338L214.353 114.333L214.364 114.329L213.621 112.472ZM222.685 112.516L223.448 110.667V110.667L222.685 112.516ZM225.985 114.848L227.61 116.014L228.523 114.741L227.507 113.55L225.985 114.848ZM224.533 116.872L223.004 118.162L224.661 120.125L226.158 118.038L224.533 116.872ZM221.585 114.804L220.826 116.654L220.854 116.666L220.883 116.677L221.585 114.804ZM215.161 114.496L215.693 116.424L215.723 116.416L215.754 116.406L215.161 114.496ZM213.049 115.728L211.599 114.351L211.597 114.353L213.049 115.728ZM217.757 122.108L217.207 124.031L217.22 124.035L217.233 124.038L217.757 122.108ZM222.289 123.516L221.605 125.396L222.289 123.516ZM225.281 125.408L223.786 126.737L223.799 126.751L223.811 126.765L225.281 125.408ZM223.917 133.636L225.112 135.239L223.917 133.636ZM217.537 133.44C215.882 133.44 214.381 133.169 213.014 132.648L211.587 136.384C213.448 137.095 215.437 137.44 217.537 137.44V133.44ZM213.055 132.664C211.728 132.123 210.564 131.34 209.552 130.303L206.69 133.097C208.083 134.524 209.706 135.619 211.546 136.368L213.055 132.664ZM209.848 132.708L211.08 130.596L207.625 128.58L206.393 130.692L209.848 132.708ZM207.989 131.051C209.407 132.372 210.885 133.396 212.432 134.064L214.018 130.392C212.983 129.945 211.88 129.21 210.716 128.125L207.989 131.051ZM212.482 134.085C214.046 134.71 215.692 135.02 217.405 135.02V131.02C216.184 131.02 215.044 130.802 213.968 130.371L212.482 134.085ZM217.405 135.02C219.42 135.02 221.26 134.618 222.785 133.655L220.649 130.273C219.944 130.718 218.91 131.02 217.405 131.02V135.02ZM222.796 133.648C224.509 132.55 225.433 130.877 225.433 128.84H221.433C221.433 129.502 221.213 129.911 220.638 130.28L222.796 133.648ZM225.433 128.84C225.433 127.5 225.003 126.183 223.885 125.242L221.309 128.302C221.333 128.322 221.35 128.342 221.37 128.391C221.394 128.45 221.433 128.587 221.433 128.84H225.433ZM223.97 125.318C223.125 124.52 222.015 124.004 220.814 123.661L219.715 127.507C220.568 127.751 221.012 128.027 221.224 128.226L223.97 125.318ZM220.829 123.665C219.814 123.367 218.597 123.025 217.18 122.642L216.134 126.502C217.533 126.881 218.721 127.215 219.701 127.503L220.829 123.665ZM217.192 122.645C215.665 122.221 214.423 121.794 213.447 121.372L211.859 125.044C213.054 125.56 214.481 126.043 216.122 126.499L217.192 122.645ZM213.507 121.4C212.666 121.002 212.143 120.568 211.825 120.15L208.641 122.57C209.438 123.619 210.528 124.416 211.799 125.016L213.507 121.4ZM211.877 120.222C211.641 119.88 211.441 119.328 211.441 118.412H207.441C207.441 119.902 207.769 121.315 208.589 122.498L211.877 120.222ZM211.441 118.412C211.441 117.29 211.716 116.495 212.152 115.901L208.93 113.531C207.9 114.932 207.441 116.6 207.441 118.412H211.441ZM212.13 115.931C212.646 115.256 213.359 114.717 214.342 114.338L212.9 110.606C211.302 111.224 209.961 112.182 208.952 113.501L212.13 115.931ZM214.364 114.329C215.418 113.907 216.628 113.68 218.021 113.68V109.68C216.187 109.68 214.464 109.981 212.878 110.615L214.364 114.329ZM218.021 113.68C219.572 113.68 220.858 113.925 221.921 114.365L223.448 110.667C221.813 109.992 219.99 109.68 218.021 109.68V113.68ZM221.921 114.365C223.012 114.815 223.841 115.416 224.463 116.146L227.507 113.55C226.428 112.285 225.057 111.332 223.448 110.667L221.921 114.365ZM224.36 113.682L222.908 115.706L226.158 118.038L227.61 116.014L224.36 113.682ZM226.061 115.582C225.044 114.376 223.774 113.489 222.287 112.931L220.883 116.677C221.742 116.999 222.438 117.49 223.004 118.162L226.061 115.582ZM222.344 112.954C220.938 112.377 219.431 112.1 217.845 112.1V116.1C218.958 116.1 219.944 116.293 220.826 116.654L222.344 112.954ZM217.845 112.1C216.716 112.1 215.621 112.259 214.568 112.586L215.754 116.406C216.402 116.205 217.096 116.1 217.845 116.1V112.1ZM214.629 112.568C213.461 112.89 212.429 113.477 211.599 114.351L214.499 117.105C214.783 116.806 215.16 116.571 215.693 116.424L214.629 112.568ZM211.597 114.353C210.621 115.382 210.257 116.709 210.257 118.06H214.257C214.257 117.416 214.42 117.188 214.501 117.103L211.597 114.353ZM210.257 118.06C210.257 119.856 210.98 121.5 212.704 122.389L214.538 118.835C214.421 118.774 214.386 118.725 214.362 118.679C214.327 118.613 214.257 118.436 214.257 118.06H210.257ZM212.704 122.389C213.792 122.951 215.322 123.492 217.207 124.031L218.306 120.185C216.495 119.668 215.269 119.212 214.538 118.835L212.704 122.389ZM217.233 124.038C218.925 124.497 220.38 124.95 221.605 125.396L222.972 121.636C221.616 121.143 220.05 120.658 218.28 120.178L217.233 124.038ZM221.605 125.396C222.674 125.784 223.358 126.256 223.786 126.737L226.776 124.079C225.795 122.976 224.485 122.187 222.972 121.636L221.605 125.396ZM223.811 126.765C224.075 127.05 224.337 127.575 224.337 128.62H228.337C228.337 126.907 227.895 125.291 226.751 124.051L223.811 126.765ZM224.337 128.62C224.337 130.177 223.792 131.235 222.722 132.033L225.112 135.239C227.269 133.632 228.337 131.346 228.337 128.62H224.337ZM222.722 132.033C221.548 132.908 219.88 133.44 217.537 133.44V137.44C220.474 137.44 223.06 136.77 225.112 135.239L222.722 132.033Z" fill="black"/>
<path d="M584.343 71.5694H510.779V69.5493H477.423V71.5694H403.556C402.903 71.5694 402.256 71.7409 401.652 72.0741C401.048 72.4073 400.5 72.8956 400.038 73.5112C399.575 74.1269 399.209 74.8577 398.959 75.6621C398.709 76.4665 398.58 77.3286 398.58 78.1992V212.408C398.58 214.166 399.104 215.853 400.038 217.096C400.971 218.339 402.236 219.038 403.556 219.038H584.343C585.663 219.038 586.928 218.339 587.862 217.096C588.795 215.853 589.319 214.166 589.319 212.408V78.1992C589.319 77.3286 589.19 76.4665 588.94 75.6621C588.69 74.8577 588.324 74.1269 587.862 73.5112C587.399 72.8956 586.851 72.4073 586.247 72.0741C585.643 71.7409 584.996 71.5694 584.343 71.5694Z" fill="#3F3D56"/>
<path opacity="0.1" d="M582.648 83.2864H405.251V216.614H582.648V83.2864Z" fill="black"/>
<path d="M493.798 79.65C494.803 79.65 495.617 78.5647 495.617 77.2259C495.617 75.8871 494.803 74.8018 493.798 74.8018C492.793 74.8018 491.979 75.8871 491.979 77.2259C491.979 78.5647 492.793 79.65 493.798 79.65Z" fill="#0CB9E4"/>
<path d="M594.3 214.19H576.987V212.528C576.987 212.484 576.981 212.442 576.968 212.402C576.956 212.362 576.938 212.325 576.915 212.295C576.892 212.264 576.864 212.24 576.834 212.223C576.804 212.207 576.772 212.198 576.74 212.198H570.804C570.772 212.198 570.739 212.207 570.709 212.223C570.679 212.24 570.652 212.264 570.629 212.295C570.606 212.325 570.588 212.362 570.576 212.402C570.563 212.442 570.557 212.484 570.557 212.528V214.19H566.847V212.528C566.847 212.484 566.84 212.442 566.828 212.402C566.816 212.362 566.797 212.325 566.774 212.295C566.751 212.264 566.724 212.24 566.694 212.223C566.664 212.207 566.632 212.198 566.599 212.198H560.664C560.631 212.198 560.599 212.207 560.569 212.223C560.539 212.24 560.512 212.264 560.489 212.295C560.466 212.325 560.448 212.362 560.435 212.402C560.423 212.442 560.416 212.484 560.416 212.528V214.19H556.706V212.528C556.706 212.484 556.7 212.442 556.688 212.402C556.675 212.362 556.657 212.325 556.634 212.295C556.611 212.264 556.584 212.24 556.554 212.223C556.524 212.207 556.492 212.198 556.459 212.198H550.523C550.491 212.198 550.459 212.207 550.429 212.223C550.399 212.24 550.371 212.264 550.348 212.295C550.326 212.325 550.307 212.362 550.295 212.402C550.282 212.442 550.276 212.484 550.276 212.528V214.19H546.566V212.528C546.566 212.484 546.56 212.442 546.547 212.402C546.535 212.362 546.517 212.325 546.494 212.295C546.471 212.264 546.444 212.24 546.414 212.223C546.383 212.207 546.351 212.198 546.319 212.198H540.383C540.351 212.198 540.318 212.207 540.288 212.223C540.258 212.24 540.231 212.264 540.208 212.295C540.185 212.325 540.167 212.362 540.155 212.402C540.142 212.442 540.136 212.484 540.136 212.528V214.19H536.426V212.528C536.426 212.484 536.419 212.442 536.407 212.402C536.395 212.362 536.376 212.325 536.353 212.295C536.33 212.264 536.303 212.24 536.273 212.223C536.243 212.207 536.211 212.198 536.179 212.198H530.243C530.21 212.198 530.178 212.207 530.148 212.223C530.118 212.24 530.091 212.264 530.068 212.295C530.045 212.325 530.027 212.362 530.014 212.402C530.002 212.442 529.995 212.484 529.995 212.528V214.19H526.286V212.528C526.286 212.484 526.279 212.442 526.267 212.402C526.254 212.362 526.236 212.325 526.213 212.295C526.19 212.264 526.163 212.24 526.133 212.223C526.103 212.207 526.071 212.198 526.038 212.198H520.102C520.07 212.198 520.038 212.207 520.008 212.223C519.978 212.24 519.951 212.264 519.928 212.295C519.905 212.325 519.886 212.362 519.874 212.402C519.862 212.442 519.855 212.484 519.855 212.528V214.19H516.145V212.528C516.145 212.484 516.139 212.442 516.126 212.402C516.114 212.362 516.096 212.325 516.073 212.295C516.05 212.264 516.023 212.24 515.993 212.223C515.963 212.207 515.93 212.198 515.898 212.198H469.401C469.368 212.198 469.336 212.207 469.306 212.223C469.276 212.24 469.249 212.264 469.226 212.295C469.203 212.325 469.185 212.362 469.172 212.402C469.16 212.442 469.154 212.484 469.154 212.528V214.19H465.444V212.528C465.444 212.484 465.437 212.442 465.425 212.402C465.412 212.362 465.394 212.325 465.371 212.295C465.348 212.264 465.321 212.24 465.291 212.223C465.261 212.207 465.229 212.198 465.196 212.198H459.261C459.228 212.198 459.196 212.207 459.166 212.223C459.136 212.24 459.109 212.264 459.086 212.295C459.063 212.325 459.045 212.362 459.032 212.402C459.02 212.442 459.013 212.484 459.013 212.528V214.19H455.303V212.528C455.303 212.484 455.297 212.442 455.285 212.402C455.272 212.362 455.254 212.325 455.231 212.295C455.208 212.264 455.181 212.24 455.151 212.223C455.121 212.207 455.089 212.198 455.056 212.198H449.12C449.088 212.198 449.056 212.207 449.026 212.223C448.996 212.24 448.968 212.264 448.945 212.295C448.922 212.325 448.904 212.362 448.892 212.402C448.879 212.442 448.873 212.484 448.873 212.528V214.19H445.163V212.528C445.163 212.484 445.157 212.442 445.144 212.402C445.132 212.362 445.114 212.325 445.091 212.295C445.068 212.264 445.04 212.24 445.01 212.223C444.98 212.207 444.948 212.198 444.916 212.198H438.98C438.948 212.198 438.915 212.207 438.885 212.223C438.855 212.24 438.828 212.264 438.805 212.295C438.782 212.325 438.764 212.362 438.751 212.402C438.739 212.442 438.733 212.484 438.733 212.528V214.19H435.023V212.528C435.023 212.484 435.016 212.442 435.004 212.402C434.992 212.362 434.973 212.325 434.95 212.295C434.927 212.264 434.9 212.24 434.87 212.223C434.84 212.207 434.808 212.198 434.775 212.198H428.84C428.807 212.198 428.775 212.207 428.745 212.223C428.715 212.24 428.688 212.264 428.665 212.295C428.642 212.325 428.624 212.362 428.611 212.402C428.599 212.442 428.592 212.484 428.592 212.528V214.19H424.882V212.528C424.882 212.484 424.876 212.442 424.864 212.402C424.851 212.362 424.833 212.325 424.81 212.295C424.787 212.264 424.76 212.24 424.73 212.223C424.7 212.207 424.668 212.198 424.635 212.198H418.699C418.667 212.198 418.635 212.207 418.605 212.223C418.575 212.24 418.547 212.264 418.524 212.295C418.502 212.325 418.483 212.362 418.471 212.402C418.458 212.442 418.452 212.484 418.452 212.528V214.19H414.742V212.528C414.742 212.484 414.736 212.442 414.723 212.402C414.711 212.362 414.693 212.325 414.67 212.295C414.647 212.264 414.62 212.24 414.59 212.223C414.56 212.207 414.527 212.198 414.495 212.198H408.559C408.527 212.198 408.494 212.207 408.464 212.223C408.434 212.24 408.407 212.264 408.384 212.295C408.361 212.325 408.343 212.362 408.331 212.402C408.318 212.442 408.312 212.484 408.312 212.528V214.19H396.935C395.361 214.19 393.851 215.023 392.738 216.506C391.624 217.989 390.999 220.001 390.999 222.098V225.674C390.999 227.772 391.624 229.783 392.738 231.266C393.851 232.75 395.361 233.583 396.935 233.583H594.3C595.874 233.583 597.384 232.75 598.497 231.266C599.61 229.783 600.236 227.772 600.236 225.674V222.098C600.236 220.001 599.61 217.989 598.497 216.506C597.384 215.023 595.874 214.19 594.3 214.19Z" fill="#3F3D56"/>
<path d="M529.89 98.4199H458.07V199.005H529.89V98.4199Z" fill="#0CB9E4"/>
<path d="M496.056 94.2442C496.056 94.2442 489.932 91.3302 485.995 102.986C482.058 114.642 475.934 127.464 475.934 127.464L479.433 128.629C479.433 128.629 480.308 120.47 482.495 119.305L481.621 129.795C481.621 129.795 507.866 142.034 519.676 128.629L519.239 124.55C519.239 124.55 520.989 125.133 520.989 128.629L522.301 126.881C522.301 126.881 520.989 123.384 517.052 118.722C514.468 115.662 513.58 109.84 513.275 106.2C513.046 103.16 512.134 100.284 510.656 97.9476C508.04 93.9079 503.273 89.6142 496.056 94.2442Z" fill="#2F2E41"/>
<path d="M462.216 105.241L459.671 69.8291C459.671 69.8291 454.582 50.6161 462.216 52.123C469.85 53.6299 465.326 68.3222 465.326 68.3222L469.568 105.241H462.216Z" fill="#A0616A"/>
<path d="M499.257 131.612C504.878 131.612 509.436 125.54 509.436 118.05C509.436 110.559 504.878 104.488 499.257 104.488C493.635 104.488 489.078 110.559 489.078 118.05C489.078 125.54 493.635 131.612 499.257 131.612Z" fill="#A0616A"/>
<path d="M491.905 124.077C491.905 124.077 491.34 139.523 488.512 140.653C485.685 141.783 477.768 154.215 481.443 157.983C485.119 161.75 506.326 159.113 506.326 159.113L504.346 139.523C504.346 139.523 499.822 135.379 503.498 128.221L491.905 124.077Z" fill="#A0616A"/>
<path d="M513.131 199.759H473.15C473.294 196.349 473.656 191.535 474.119 186.242C474.261 184.637 474.411 182.983 474.566 181.314C475.938 166.603 477.767 150.449 477.767 150.449L478.248 148.969L483.139 133.873L483.19 133.9L489.643 137.264L489.872 138.71L491.622 149.696L502.946 137.516L513.394 135.339L514.101 135.192L515.373 151.203C515.373 151.203 515.316 154.781 515.257 159.879C515.189 165.737 515.116 173.603 515.121 180.342C515.124 183.563 515.144 186.528 515.192 188.894C515.232 190.887 515.291 192.458 515.373 193.396C515.562 195.532 514.556 197.751 513.131 199.759Z" fill="#3F3D56"/>
<path d="M483.423 135.756L483.14 133.496L475.223 120.687L470.699 99.2136L459.671 104.864L467.588 130.858L478.899 150.071L483.423 135.756Z" fill="#3F3D56"/>
<path d="M485.884 119.672C485.884 119.672 489.383 113.261 492.445 112.095C495.507 110.93 495.945 105.102 495.945 105.102C495.945 105.102 503.818 116.758 508.63 117.34C513.442 117.923 509.067 103.353 509.067 103.353L500.319 100.439L492.008 101.605L485.447 107.433L485.884 119.672Z" fill="#2F2E41"/>
<path d="M514.055 186.95L487.004 188.38C487.004 188.38 472.097 192.926 474.091 182.992C476.085 173.059 486.525 180.722 486.525 180.722L514.537 179.318L514.055 186.95Z" fill="#A0616A"/>
<path d="M510.991 137.828L513.536 135.191C513.536 135.191 517.777 132.177 518.625 142.725C519.474 153.273 525.694 188.309 519.474 188.685C513.253 189.062 497.419 189.439 497.419 189.439L499.115 177.76L512.122 176.63L510.991 137.828Z" fill="#3F3D56"/>
<path opacity="0.15" d="M511.839 154.027L510.991 175.5L498.55 178.891L509.86 172.863L511.839 154.027Z" fill="black"/>
<path d="M650 233.247H350V234H650V233.247Z" fill="#3F3D56"/>
<path d="M620.864 206.927C624.929 212.738 625.139 221.28 625.139 221.28C625.139 221.28 618.759 220.4 614.694 214.588C610.629 208.777 610.419 200.235 610.419 200.235C610.419 200.235 616.799 201.115 620.864 206.927Z" fill="#E055CC"/>
<path d="M633.661 215.998C629.299 221.414 622.888 221.694 622.888 221.694C622.888 221.694 623.549 213.193 627.911 207.777C632.273 202.362 638.684 202.082 638.684 202.082C638.684 202.082 638.023 210.583 633.661 215.998Z" fill="#0CB9E4"/>
<path d="M632.577 233.246H616.534C616.226 233.246 615.924 233.131 615.663 232.914C615.403 232.696 615.193 232.385 615.058 232.017L611.565 222.45C611.443 222.117 611.387 221.748 611.402 221.378C611.417 221.008 611.502 220.649 611.65 220.334C611.797 220.02 612.002 219.761 612.246 219.581C612.489 219.402 612.763 219.308 613.041 219.308H636.07C636.348 219.308 636.622 219.402 636.865 219.581C637.108 219.761 637.313 220.02 637.461 220.334C637.609 220.649 637.694 221.008 637.708 221.378C637.723 221.748 637.667 222.117 637.545 222.45L634.052 232.017C633.918 232.385 633.708 232.696 633.447 232.914C633.186 233.131 632.885 233.246 632.577 233.246Z" fill="#3F3D56"/>
<path d="M367.236 206.927C371.301 212.738 371.511 221.28 371.511 221.28C371.511 221.28 365.13 220.4 361.066 214.588C357.001 208.777 356.791 200.235 356.791 200.235C356.791 200.235 363.171 201.115 367.236 206.927Z" fill="#E055CC"/>
<path d="M376.403 233.246H360.36C360.053 233.246 359.751 233.131 359.49 232.914C359.229 232.696 359.019 232.385 358.885 232.017L355.392 222.45C355.27 222.117 355.214 221.748 355.229 221.378C355.244 221.008 355.329 220.649 355.476 220.334C355.624 220.02 355.829 219.761 356.072 219.581C356.316 219.402 356.589 219.308 356.867 219.308H379.896C380.175 219.308 380.448 219.402 380.692 219.581C380.935 219.761 381.14 220.02 381.288 220.334C381.435 220.649 381.52 221.008 381.535 221.378C381.55 221.748 381.494 222.117 381.372 222.45L377.879 232.017C377.744 232.385 377.535 232.696 377.274 232.914C377.013 233.131 376.711 233.246 376.403 233.246Z" fill="#3F3D56"/>
<path d="M62.7142 196.09C61.7062 196.09 60.8542 195.91 60.1582 195.55C59.4742 195.19 58.9222 194.704 58.5022 194.092C58.0822 193.48 57.7822 192.796 57.6022 192.04C57.4222 191.272 57.3322 190.48 57.3322 189.664V183.22H58.5742V189.664C58.5742 190.336 58.6402 190.99 58.7722 191.626C58.9162 192.25 59.1442 192.814 59.4562 193.318C59.7682 193.822 60.1882 194.224 60.7162 194.524C61.2442 194.812 61.9042 194.956 62.6962 194.956C63.5122 194.956 64.1842 194.806 64.7122 194.506C65.2522 194.206 65.6782 193.804 65.9902 193.3C66.3022 192.784 66.5182 192.214 66.6382 191.59C66.7702 190.954 66.8362 190.312 66.8362 189.664V183.22H68.0962V189.664C68.0962 190.516 68.0002 191.332 67.8082 192.112C67.6162 192.88 67.3042 193.564 66.8722 194.164C66.4522 194.764 65.9002 195.238 65.2162 195.586C64.5322 195.922 63.6982 196.09 62.7142 196.09ZM78.6266 196H77.4026V190.762C77.4026 189.658 77.2346 188.854 76.8986 188.35C76.5746 187.834 76.0706 187.576 75.3866 187.576C74.9066 187.576 74.4326 187.696 73.9646 187.936C73.4966 188.164 73.0826 188.482 72.7226 188.89C72.3746 189.286 72.1226 189.742 71.9666 190.258V196H70.7426V186.622H71.8586V188.746C72.2306 188.062 72.7766 187.51 73.4966 187.09C74.2166 186.67 74.9966 186.46 75.8366 186.46C76.5326 186.46 77.0846 186.628 77.4926 186.964C77.9006 187.288 78.1886 187.756 78.3566 188.368C78.5366 188.968 78.6266 189.682 78.6266 190.51V196ZM81.2367 184.66V182.86H82.4607V184.66H81.2367ZM81.2367 196V186.622H82.4607V196H81.2367ZM88.7746 196.18C87.9226 196.18 87.1786 195.952 86.5426 195.496C85.9066 195.04 85.4086 194.446 85.0486 193.714C84.7006 192.97 84.5266 192.172 84.5266 191.32C84.5266 190.66 84.6406 190.042 84.8686 189.466C85.0966 188.878 85.4086 188.362 85.8046 187.918C86.2126 187.462 86.6866 187.108 87.2266 186.856C87.7666 186.592 88.3546 186.46 88.9906 186.46C89.7226 186.46 90.3946 186.652 91.0066 187.036C91.6306 187.408 92.1166 187.882 92.4646 188.458V186.622H93.5626V199.834H92.3386V194.056C91.4146 195.472 90.2266 196.18 88.7746 196.18ZM89.1526 195.1C89.8846 195.1 90.5146 194.884 91.0426 194.452C91.5826 194.008 92.0146 193.486 92.3386 192.886V189.988C92.2786 189.556 92.0806 189.154 91.7446 188.782C91.4206 188.41 91.0306 188.11 90.5746 187.882C90.1186 187.654 89.6686 187.54 89.2246 187.54C88.5526 187.54 87.9526 187.726 87.4246 188.098C86.9086 188.458 86.5006 188.932 86.2006 189.52C85.9126 190.096 85.7686 190.702 85.7686 191.338C85.7686 192.022 85.9126 192.652 86.2006 193.228C86.4886 193.792 86.8846 194.248 87.3886 194.596C87.9046 194.932 88.4926 195.1 89.1526 195.1ZM96.176 192.13V186.622H97.4V191.914C97.4 194.038 98.126 195.1 99.578 195.1C100.298 195.1 100.97 194.866 101.594 194.398C102.23 193.93 102.686 193.306 102.962 192.526V186.622H104.186V194.524C104.186 194.848 104.33 195.016 104.618 195.028V196C104.474 196.024 104.36 196.036 104.276 196.036C104.204 196.036 104.126 196.036 104.042 196.036C103.79 196.012 103.574 195.916 103.394 195.748C103.226 195.58 103.142 195.376 103.142 195.136L103.106 193.876C102.698 194.608 102.14 195.178 101.432 195.586C100.736 195.982 99.98 196.18 99.164 196.18C97.172 196.18 96.176 194.83 96.176 192.13ZM111.004 196.18C110.104 196.18 109.3 195.958 108.592 195.514C107.884 195.07 107.326 194.476 106.918 193.732C106.51 192.988 106.306 192.172 106.306 191.284C106.306 190.408 106.504 189.604 106.9 188.872C107.308 188.14 107.866 187.558 108.574 187.126C109.282 186.682 110.086 186.46 110.986 186.46C111.91 186.46 112.72 186.682 113.416 187.126C114.112 187.57 114.652 188.158 115.036 188.89C115.432 189.61 115.63 190.402 115.63 191.266C115.63 191.458 115.624 191.62 115.612 191.752H107.584C107.644 192.424 107.836 193.024 108.16 193.552C108.484 194.068 108.898 194.482 109.402 194.794C109.906 195.094 110.458 195.244 111.058 195.244C111.67 195.244 112.246 195.088 112.786 194.776C113.326 194.464 113.71 194.056 113.938 193.552L115 193.84C114.808 194.296 114.508 194.704 114.1 195.064C113.704 195.412 113.242 195.688 112.714 195.892C112.186 196.084 111.616 196.18 111.004 196.18ZM107.548 190.87H114.478C114.43 190.198 114.244 189.604 113.92 189.088C113.596 188.56 113.182 188.152 112.678 187.864C112.174 187.564 111.616 187.414 111.004 187.414C110.392 187.414 109.834 187.564 109.33 187.864C108.826 188.152 108.412 188.56 108.088 189.088C107.776 189.604 107.596 190.198 107.548 190.87ZM126.156 196.18C125.256 196.18 124.452 195.958 123.744 195.514C123.036 195.07 122.478 194.476 122.07 193.732C121.662 192.988 121.458 192.172 121.458 191.284C121.458 190.408 121.656 189.604 122.052 188.872C122.46 188.14 123.018 187.558 123.726 187.126C124.434 186.682 125.238 186.46 126.138 186.46C127.062 186.46 127.872 186.682 128.568 187.126C129.264 187.57 129.804 188.158 130.188 188.89C130.584 189.61 130.782 190.402 130.782 191.266C130.782 191.458 130.776 191.62 130.764 191.752H122.736C122.796 192.424 122.988 193.024 123.312 193.552C123.636 194.068 124.05 194.482 124.554 194.794C125.058 195.094 125.61 195.244 126.21 195.244C126.822 195.244 127.398 195.088 127.938 194.776C128.478 194.464 128.862 194.056 129.09 193.552L130.152 193.84C129.96 194.296 129.66 194.704 129.252 195.064C128.856 195.412 128.394 195.688 127.866 195.892C127.338 196.084 126.768 196.18 126.156 196.18ZM122.7 190.87H129.63C129.582 190.198 129.396 189.604 129.072 189.088C128.748 188.56 128.334 188.152 127.83 187.864C127.326 187.564 126.768 187.414 126.156 187.414C125.544 187.414 124.986 187.564 124.482 187.864C123.978 188.152 123.564 188.56 123.24 189.088C122.928 189.604 122.748 190.198 122.7 190.87ZM146.62 196H145.396V190.762C145.396 189.682 145.222 188.884 144.874 188.368C144.526 187.84 144.01 187.576 143.326 187.576C142.606 187.576 141.97 187.828 141.418 188.332C140.866 188.836 140.476 189.484 140.248 190.276V196H139.024V190.762C139.024 189.658 138.85 188.854 138.502 188.35C138.166 187.834 137.656 187.576 136.972 187.576C136.264 187.576 135.628 187.822 135.064 188.314C134.512 188.806 134.122 189.454 133.894 190.258V196H132.67V186.622H133.786V188.746C134.17 188.026 134.674 187.468 135.298 187.072C135.922 186.664 136.612 186.46 137.368 186.46C138.148 186.46 138.778 186.688 139.258 187.144C139.738 187.588 140.032 188.164 140.14 188.872C141.004 187.264 142.21 186.46 143.758 186.46C144.814 186.46 145.552 186.832 145.972 187.576C146.404 188.308 146.62 189.286 146.62 190.51V196ZM148.455 193.3C148.455 192.724 148.623 192.226 148.959 191.806C149.295 191.374 149.757 191.038 150.345 190.798C150.945 190.558 151.635 190.438 152.415 190.438C152.871 190.438 153.345 190.48 153.837 190.564C154.329 190.636 154.767 190.738 155.151 190.87V190.078C155.151 189.286 154.917 188.656 154.449 188.188C153.981 187.72 153.333 187.486 152.505 187.486C152.013 187.486 151.521 187.582 151.029 187.774C150.537 187.954 150.027 188.224 149.499 188.584L149.031 187.72C149.643 187.3 150.243 186.988 150.831 186.784C151.419 186.568 152.019 186.46 152.631 186.46C153.783 186.46 154.695 186.79 155.367 187.45C156.039 188.11 156.375 189.022 156.375 190.186V194.524C156.375 194.848 156.525 195.016 156.825 195.028V196C156.561 196.036 156.375 196.048 156.267 196.036C155.967 196.024 155.739 195.928 155.583 195.748C155.427 195.568 155.343 195.376 155.331 195.172L155.313 194.488C154.893 195.028 154.347 195.448 153.675 195.748C153.003 196.036 152.319 196.18 151.623 196.18C151.011 196.18 150.465 196.054 149.985 195.802C149.505 195.538 149.127 195.19 148.851 194.758C148.587 194.314 148.455 193.828 148.455 193.3ZM154.737 194.02C155.013 193.696 155.151 193.396 155.151 193.12V191.752C154.323 191.428 153.459 191.266 152.559 191.266C151.683 191.266 150.975 191.44 150.435 191.788C149.895 192.136 149.625 192.61 149.625 193.21C149.625 193.726 149.823 194.194 150.219 194.614C150.627 195.034 151.191 195.244 151.911 195.244C152.499 195.244 153.045 195.13 153.549 194.902C154.065 194.674 154.461 194.38 154.737 194.02ZM159.02 184.66V182.86H160.244V184.66H159.02ZM159.02 196V186.622H160.244V196H159.02ZM162.994 182.86H164.218V193.876C164.218 194.344 164.296 194.65 164.452 194.794C164.62 194.938 164.83 195.01 165.082 195.01C165.298 195.01 165.514 194.986 165.73 194.938C165.958 194.89 166.144 194.842 166.288 194.794L166.504 195.784C166.276 195.88 165.994 195.958 165.658 196.018C165.334 196.078 165.052 196.108 164.812 196.108C164.26 196.108 163.816 195.946 163.48 195.622C163.156 195.298 162.994 194.854 162.994 194.29V182.86ZM175.955 196.18C175.043 196.18 174.233 195.958 173.525 195.514C172.817 195.058 172.259 194.464 171.851 193.732C171.443 192.988 171.239 192.172 171.239 191.284C171.239 190.396 171.437 189.592 171.833 188.872C172.229 188.14 172.781 187.558 173.489 187.126C174.197 186.682 175.013 186.46 175.937 186.46C176.813 186.46 177.581 186.664 178.241 187.072C178.913 187.468 179.417 188.008 179.753 188.692L178.565 189.07C178.301 188.59 177.929 188.218 177.449 187.954C176.981 187.678 176.459 187.54 175.883 187.54C175.247 187.54 174.671 187.702 174.155 188.026C173.651 188.35 173.243 188.8 172.931 189.376C172.631 189.94 172.481 190.576 172.481 191.284C172.481 191.992 172.637 192.634 172.949 193.21C173.261 193.786 173.675 194.248 174.191 194.596C174.707 194.932 175.277 195.1 175.901 195.1C176.309 195.1 176.705 195.028 177.089 194.884C177.473 194.74 177.803 194.548 178.079 194.308C178.355 194.056 178.541 193.786 178.637 193.498L179.843 193.858C179.675 194.302 179.399 194.704 179.015 195.064C178.631 195.412 178.175 195.688 177.647 195.892C177.119 196.084 176.555 196.18 175.955 196.18ZM181.01 193.3C181.01 192.724 181.178 192.226 181.514 191.806C181.85 191.374 182.312 191.038 182.9 190.798C183.5 190.558 184.19 190.438 184.97 190.438C185.426 190.438 185.9 190.48 186.392 190.564C186.884 190.636 187.322 190.738 187.706 190.87V190.078C187.706 189.286 187.472 188.656 187.004 188.188C186.536 187.72 185.888 187.486 185.06 187.486C184.568 187.486 184.076 187.582 183.584 187.774C183.092 187.954 182.582 188.224 182.054 188.584L181.586 187.72C182.198 187.3 182.798 186.988 183.386 186.784C183.974 186.568 184.574 186.46 185.186 186.46C186.338 186.46 187.25 186.79 187.922 187.45C188.594 188.11 188.93 189.022 188.93 190.186V194.524C188.93 194.848 189.08 195.016 189.38 195.028V196C189.116 196.036 188.93 196.048 188.822 196.036C188.522 196.024 188.294 195.928 188.138 195.748C187.982 195.568 187.898 195.376 187.886 195.172L187.868 194.488C187.448 195.028 186.902 195.448 186.23 195.748C185.558 196.036 184.874 196.18 184.178 196.18C183.566 196.18 183.02 196.054 182.54 195.802C182.06 195.538 181.682 195.19 181.406 194.758C181.142 194.314 181.01 193.828 181.01 193.3ZM187.292 194.02C187.568 193.696 187.706 193.396 187.706 193.12V191.752C186.878 191.428 186.014 191.266 185.114 191.266C184.238 191.266 183.53 191.44 182.99 191.788C182.45 192.136 182.18 192.61 182.18 193.21C182.18 193.726 182.378 194.194 182.774 194.614C183.182 195.034 183.746 195.244 184.466 195.244C185.054 195.244 185.6 195.13 186.104 194.902C186.62 194.674 187.016 194.38 187.292 194.02ZM205.525 196H204.301V190.762C204.301 189.682 204.127 188.884 203.779 188.368C203.431 187.84 202.915 187.576 202.231 187.576C201.511 187.576 200.875 187.828 200.323 188.332C199.771 188.836 199.381 189.484 199.153 190.276V196H197.929V190.762C197.929 189.658 197.755 188.854 197.407 188.35C197.071 187.834 196.561 187.576 195.877 187.576C195.169 187.576 194.533 187.822 193.969 188.314C193.417 188.806 193.027 189.454 192.799 190.258V196H191.575V186.622H192.691V188.746C193.075 188.026 193.579 187.468 194.203 187.072C194.827 186.664 195.517 186.46 196.273 186.46C197.053 186.46 197.683 186.688 198.163 187.144C198.643 187.588 198.937 188.164 199.045 188.872C199.909 187.264 201.115 186.46 202.663 186.46C203.719 186.46 204.457 186.832 204.877 187.576C205.309 188.308 205.525 189.286 205.525 190.51V196ZM212.904 196.18C212.124 196.18 211.422 195.976 210.798 195.568C210.186 195.16 209.7 194.656 209.34 194.056V199.834H208.116V186.622H209.214V188.44C209.586 187.852 210.078 187.378 210.69 187.018C211.314 186.646 211.986 186.46 212.706 186.46C213.354 186.46 213.948 186.598 214.488 186.874C215.028 187.138 215.496 187.498 215.892 187.954C216.3 188.41 216.612 188.932 216.828 189.52C217.044 190.096 217.152 190.696 217.152 191.32C217.152 192.196 216.972 193.006 216.612 193.75C216.264 194.482 215.766 195.07 215.118 195.514C214.482 195.958 213.744 196.18 212.904 196.18ZM212.562 195.1C213.246 195.1 213.834 194.92 214.326 194.56C214.83 194.188 215.22 193.714 215.496 193.138C215.772 192.562 215.91 191.956 215.91 191.32C215.91 190.648 215.754 190.024 215.442 189.448C215.13 188.872 214.71 188.41 214.182 188.062C213.666 187.714 213.078 187.54 212.418 187.54C212.01 187.54 211.578 187.648 211.122 187.864C210.678 188.068 210.282 188.35 209.934 188.71C209.598 189.058 209.4 189.442 209.34 189.862V192.742C209.616 193.402 210.048 193.96 210.636 194.416C211.224 194.872 211.866 195.1 212.562 195.1ZM218.469 193.3C218.469 192.724 218.637 192.226 218.973 191.806C219.309 191.374 219.771 191.038 220.359 190.798C220.959 190.558 221.649 190.438 222.429 190.438C222.885 190.438 223.359 190.48 223.851 190.564C224.343 190.636 224.781 190.738 225.165 190.87V190.078C225.165 189.286 224.931 188.656 224.463 188.188C223.995 187.72 223.347 187.486 222.519 187.486C222.027 187.486 221.535 187.582 221.043 187.774C220.551 187.954 220.041 188.224 219.513 188.584L219.045 187.72C219.657 187.3 220.257 186.988 220.845 186.784C221.433 186.568 222.033 186.46 222.645 186.46C223.797 186.46 224.709 186.79 225.381 187.45C226.053 188.11 226.389 189.022 226.389 190.186V194.524C226.389 194.848 226.539 195.016 226.839 195.028V196C226.575 196.036 226.389 196.048 226.281 196.036C225.981 196.024 225.753 195.928 225.597 195.748C225.441 195.568 225.357 195.376 225.345 195.172L225.327 194.488C224.907 195.028 224.361 195.448 223.689 195.748C223.017 196.036 222.333 196.18 221.637 196.18C221.025 196.18 220.479 196.054 219.999 195.802C219.519 195.538 219.141 195.19 218.865 194.758C218.601 194.314 218.469 193.828 218.469 193.3ZM224.751 194.02C225.027 193.696 225.165 193.396 225.165 193.12V191.752C224.337 191.428 223.473 191.266 222.573 191.266C221.697 191.266 220.989 191.44 220.449 191.788C219.909 192.136 219.639 192.61 219.639 193.21C219.639 193.726 219.837 194.194 220.233 194.614C220.641 195.034 221.205 195.244 221.925 195.244C222.513 195.244 223.059 195.13 223.563 194.902C224.079 194.674 224.475 194.38 224.751 194.02ZM229.034 184.66V182.86H230.258V184.66H229.034ZM229.034 196V186.622H230.258V196H229.034ZM236.716 196.126C236.068 196.126 235.474 195.994 234.934 195.73C234.406 195.466 233.944 195.112 233.548 194.668C233.164 194.212 232.864 193.696 232.648 193.12C232.432 192.544 232.324 191.95 232.324 191.338C232.324 190.462 232.51 189.658 232.882 188.926C233.254 188.182 233.764 187.588 234.412 187.144C235.072 186.688 235.828 186.46 236.68 186.46C237.484 186.46 238.18 186.664 238.768 187.072C239.368 187.48 239.872 187.984 240.28 188.584V186.622H241.378V196.036C241.378 196.912 241.168 197.644 240.748 198.232C240.328 198.82 239.77 199.264 239.074 199.564C238.378 199.864 237.616 200.014 236.788 200.014C235.708 200.014 234.838 199.822 234.178 199.438C233.53 199.054 232.996 198.538 232.576 197.89L233.332 197.296C233.704 197.884 234.196 198.322 234.808 198.61C235.432 198.898 236.092 199.042 236.788 199.042C237.4 199.042 237.958 198.928 238.462 198.7C238.978 198.484 239.386 198.154 239.686 197.71C239.998 197.266 240.154 196.708 240.154 196.036V194.182C239.794 194.77 239.302 195.244 238.678 195.604C238.054 195.952 237.4 196.126 236.716 196.126ZM237.058 195.1C237.55 195.1 238.018 194.986 238.462 194.758C238.906 194.53 239.278 194.242 239.578 193.894C239.89 193.534 240.082 193.162 240.154 192.778V189.88C239.974 189.424 239.716 189.022 239.38 188.674C239.044 188.314 238.66 188.038 238.228 187.846C237.796 187.642 237.358 187.54 236.914 187.54C236.218 187.54 235.618 187.732 235.114 188.116C234.622 188.488 234.238 188.968 233.962 189.556C233.698 190.132 233.566 190.732 233.566 191.356C233.566 192.028 233.722 192.652 234.034 193.228C234.346 193.792 234.766 194.248 235.294 194.596C235.822 194.932 236.41 195.1 237.058 195.1ZM251.964 196H250.74V190.762C250.74 189.658 250.572 188.854 250.236 188.35C249.912 187.834 249.408 187.576 248.724 187.576C248.244 187.576 247.77 187.696 247.302 187.936C246.834 188.164 246.42 188.482 246.06 188.89C245.712 189.286 245.46 189.742 245.304 190.258V196H244.08V186.622H245.196V188.746C245.568 188.062 246.114 187.51 246.834 187.09C247.554 186.67 248.334 186.46 249.174 186.46C249.87 186.46 250.422 186.628 250.83 186.964C251.238 187.288 251.526 187.756 251.694 188.368C251.874 188.968 251.964 189.682 251.964 190.51V196ZM257.653 196.18C256.885 196.18 256.171 196.054 255.511 195.802C254.863 195.538 254.293 195.154 253.801 194.65L254.305 193.786C254.833 194.278 255.361 194.638 255.889 194.866C256.429 195.082 256.999 195.19 257.599 195.19C258.319 195.19 258.907 195.046 259.363 194.758C259.831 194.458 260.065 194.032 260.065 193.48C260.065 193.108 259.951 192.826 259.723 192.634C259.507 192.43 259.189 192.268 258.769 192.148C258.361 192.028 257.869 191.89 257.293 191.734C256.645 191.554 256.099 191.368 255.655 191.176C255.223 190.972 254.893 190.72 254.665 190.42C254.449 190.108 254.341 189.706 254.341 189.214C254.341 188.614 254.491 188.11 254.791 187.702C255.103 187.294 255.523 186.988 256.051 186.784C256.591 186.568 257.191 186.46 257.851 186.46C258.571 186.46 259.207 186.574 259.759 186.802C260.311 187.03 260.761 187.348 261.109 187.756L260.515 188.584C260.191 188.2 259.789 187.918 259.309 187.738C258.841 187.546 258.331 187.45 257.779 187.45C257.395 187.45 257.029 187.504 256.681 187.612C256.333 187.708 256.045 187.876 255.817 188.116C255.601 188.344 255.493 188.662 255.493 189.07C255.493 189.574 255.679 189.922 256.051 190.114C256.423 190.306 256.987 190.51 257.743 190.726C258.451 190.918 259.069 191.11 259.597 191.302C260.125 191.494 260.533 191.752 260.821 192.076C261.109 192.388 261.253 192.826 261.253 193.39C261.253 194.266 260.923 194.95 260.263 195.442C259.603 195.934 258.733 196.18 257.653 196.18ZM279.162 186.622H280.368L276.336 196H275.274L273.312 191.338L271.368 196H270.306L266.274 186.622H267.462L270.882 194.74L272.61 190.51L271.026 186.64H272.124L273.312 189.682L274.518 186.64H275.598L274.032 190.51L275.76 194.74L279.162 186.622ZM281.996 184.66V182.86H283.22V184.66H281.996ZM281.996 196V186.622H283.22V196H281.996ZM290.416 195.55C290.272 195.61 290.008 195.718 289.624 195.874C289.24 196.03 288.796 196.108 288.292 196.108C287.764 196.108 287.302 195.958 286.906 195.658C286.51 195.358 286.312 194.908 286.312 194.308V187.594H285.016V186.622H286.312V183.454H287.536V186.622H289.696V187.594H287.536V193.966C287.56 194.314 287.68 194.572 287.896 194.74C288.124 194.896 288.382 194.974 288.67 194.974C289.006 194.974 289.306 194.92 289.57 194.812C289.846 194.692 290.02 194.608 290.092 194.56L290.416 195.55ZM299.83 196H298.606V190.762C298.606 188.638 297.886 187.576 296.446 187.576C295.978 187.576 295.522 187.696 295.078 187.936C294.634 188.164 294.238 188.482 293.89 188.89C293.554 189.286 293.314 189.742 293.17 190.258V196H291.946V182.86H293.17V188.746C293.542 188.05 294.058 187.498 294.718 187.09C295.39 186.67 296.104 186.46 296.86 186.46C297.58 186.46 298.156 186.634 298.588 186.982C299.02 187.318 299.332 187.792 299.524 188.404C299.728 189.004 299.83 189.706 299.83 190.51V196ZM128.893 217H127.669V211.762C127.669 210.682 127.495 209.884 127.147 209.368C126.799 208.84 126.283 208.576 125.599 208.576C124.879 208.576 124.243 208.828 123.691 209.332C123.139 209.836 122.749 210.484 122.521 211.276V217H121.297V211.762C121.297 210.658 121.123 209.854 120.775 209.35C120.439 208.834 119.929 208.576 119.245 208.576C118.537 208.576 117.901 208.822 117.337 209.314C116.785 209.806 116.395 210.454 116.167 211.258V217H114.943V207.622H116.059V209.746C116.443 209.026 116.947 208.468 117.571 208.072C118.195 207.664 118.885 207.46 119.641 207.46C120.421 207.46 121.051 207.688 121.531 208.144C122.011 208.588 122.305 209.164 122.413 209.872C123.277 208.264 124.483 207.46 126.031 207.46C127.087 207.46 127.825 207.832 128.245 208.576C128.677 209.308 128.893 210.286 128.893 211.51V217ZM135.48 217.18C134.58 217.18 133.776 216.958 133.068 216.514C132.372 216.07 131.826 215.482 131.43 214.75C131.034 214.006 130.836 213.202 130.836 212.338C130.836 211.462 131.034 210.658 131.43 209.926C131.838 209.182 132.39 208.588 133.086 208.144C133.794 207.688 134.592 207.46 135.48 207.46C136.38 207.46 137.178 207.688 137.874 208.144C138.582 208.588 139.134 209.182 139.53 209.926C139.938 210.658 140.142 211.462 140.142 212.338C140.142 213.202 139.944 214.006 139.548 214.75C139.152 215.482 138.6 216.07 137.892 216.514C137.196 216.958 136.392 217.18 135.48 217.18ZM132.078 212.356C132.078 213.052 132.228 213.688 132.528 214.264C132.84 214.828 133.254 215.278 133.77 215.614C134.286 215.938 134.856 216.1 135.48 216.1C136.104 216.1 136.674 215.932 137.19 215.596C137.706 215.26 138.12 214.804 138.432 214.228C138.744 213.652 138.9 213.016 138.9 212.32C138.9 211.624 138.744 210.988 138.432 210.412C138.12 209.836 137.706 209.38 137.19 209.044C136.674 208.708 136.104 208.54 135.48 208.54C134.868 208.54 134.304 208.714 133.788 209.062C133.272 209.398 132.858 209.854 132.546 210.43C132.234 211.006 132.078 211.648 132.078 212.356ZM141.559 212.338C141.559 211.45 141.739 210.64 142.099 209.908C142.471 209.164 142.981 208.57 143.629 208.126C144.277 207.682 145.015 207.46 145.843 207.46C146.623 207.46 147.319 207.67 147.931 208.09C148.555 208.498 149.041 208.996 149.389 209.584V203.86H150.613V215.524C150.613 215.848 150.757 216.016 151.045 216.028V217C150.805 217.036 150.619 217.048 150.487 217.036C150.223 217.024 149.995 216.928 149.803 216.748C149.623 216.556 149.533 216.34 149.533 216.1V215.182C149.161 215.794 148.657 216.28 148.021 216.64C147.385 217 146.725 217.18 146.041 217.18C145.393 217.18 144.793 217.048 144.241 216.784C143.689 216.52 143.209 216.16 142.801 215.704C142.405 215.248 142.099 214.732 141.883 214.156C141.667 213.568 141.559 212.962 141.559 212.338ZM149.389 213.778V210.88C149.233 210.448 148.981 210.058 148.633 209.71C148.285 209.35 147.889 209.068 147.445 208.864C147.013 208.648 146.581 208.54 146.149 208.54C145.477 208.54 144.889 208.726 144.385 209.098C143.893 209.458 143.509 209.932 143.233 210.52C142.957 211.096 142.819 211.702 142.819 212.338C142.819 213.01 142.969 213.634 143.269 214.21C143.581 214.786 144.001 215.248 144.529 215.596C145.057 215.932 145.651 216.1 146.311 216.1C146.719 216.1 147.145 215.998 147.589 215.794C148.045 215.578 148.441 215.296 148.777 214.948C149.125 214.6 149.329 214.21 149.389 213.778ZM157.436 217.18C156.536 217.18 155.732 216.958 155.024 216.514C154.316 216.07 153.758 215.476 153.35 214.732C152.942 213.988 152.738 213.172 152.738 212.284C152.738 211.408 152.936 210.604 153.332 209.872C153.74 209.14 154.298 208.558 155.006 208.126C155.714 207.682 156.518 207.46 157.418 207.46C158.342 207.46 159.152 207.682 159.848 208.126C160.544 208.57 161.084 209.158 161.468 209.89C161.864 210.61 162.062 211.402 162.062 212.266C162.062 212.458 162.056 212.62 162.044 212.752H154.016C154.076 213.424 154.268 214.024 154.592 214.552C154.916 215.068 155.33 215.482 155.834 215.794C156.338 216.094 156.89 216.244 157.49 216.244C158.102 216.244 158.678 216.088 159.218 215.776C159.758 215.464 160.142 215.056 160.37 214.552L161.432 214.84C161.24 215.296 160.94 215.704 160.532 216.064C160.136 216.412 159.674 216.688 159.146 216.892C158.618 217.084 158.048 217.18 157.436 217.18ZM153.98 211.87H160.91C160.862 211.198 160.676 210.604 160.352 210.088C160.028 209.56 159.614 209.152 159.11 208.864C158.606 208.564 158.048 208.414 157.436 208.414C156.824 208.414 156.266 208.564 155.762 208.864C155.258 209.152 154.844 209.56 154.52 210.088C154.208 210.604 154.028 211.198 153.98 211.87ZM168.631 208.702C167.815 208.726 167.095 208.954 166.471 209.386C165.859 209.818 165.427 210.412 165.175 211.168V217H163.951V207.622H165.103V209.872C165.427 209.212 165.853 208.678 166.381 208.27C166.921 207.862 167.491 207.634 168.091 207.586C168.211 207.574 168.313 207.568 168.397 207.568C168.481 207.568 168.559 207.574 168.631 207.586V208.702ZM178.145 217H176.921V211.762C176.921 210.658 176.753 209.854 176.417 209.35C176.093 208.834 175.589 208.576 174.905 208.576C174.425 208.576 173.951 208.696 173.483 208.936C173.015 209.164 172.601 209.482 172.241 209.89C171.893 210.286 171.641 210.742 171.485 211.258V217H170.261V207.622H171.377V209.746C171.749 209.062 172.295 208.51 173.015 208.09C173.735 207.67 174.515 207.46 175.355 207.46C176.051 207.46 176.603 207.628 177.011 207.964C177.419 208.288 177.707 208.756 177.875 209.368C178.055 209.968 178.145 210.682 178.145 211.51V217ZM184.713 212.338C184.713 211.45 184.893 210.64 185.253 209.908C185.625 209.164 186.135 208.57 186.783 208.126C187.431 207.682 188.169 207.46 188.997 207.46C189.777 207.46 190.473 207.67 191.085 208.09C191.709 208.498 192.195 208.996 192.543 209.584V203.86H193.767V215.524C193.767 215.848 193.911 216.016 194.199 216.028V217C193.959 217.036 193.773 217.048 193.641 217.036C193.377 217.024 193.149 216.928 192.957 216.748C192.777 216.556 192.687 216.34 192.687 216.1V215.182C192.315 215.794 191.811 216.28 191.175 216.64C190.539 217 189.879 217.18 189.195 217.18C188.547 217.18 187.947 217.048 187.395 216.784C186.843 216.52 186.363 216.16 185.955 215.704C185.559 215.248 185.253 214.732 185.037 214.156C184.821 213.568 184.713 212.962 184.713 212.338ZM192.543 213.778V210.88C192.387 210.448 192.135 210.058 191.787 209.71C191.439 209.35 191.043 209.068 190.599 208.864C190.167 208.648 189.735 208.54 189.303 208.54C188.631 208.54 188.043 208.726 187.539 209.098C187.047 209.458 186.663 209.932 186.387 210.52C186.111 211.096 185.973 211.702 185.973 212.338C185.973 213.01 186.123 213.634 186.423 214.21C186.735 214.786 187.155 215.248 187.683 215.596C188.211 215.932 188.805 216.1 189.465 216.1C189.873 216.1 190.299 215.998 190.743 215.794C191.199 215.578 191.595 215.296 191.931 214.948C192.279 214.6 192.483 214.21 192.543 213.778ZM200.59 217.18C199.69 217.18 198.886 216.958 198.178 216.514C197.47 216.07 196.912 215.476 196.504 214.732C196.096 213.988 195.892 213.172 195.892 212.284C195.892 211.408 196.09 210.604 196.486 209.872C196.894 209.14 197.452 208.558 198.16 208.126C198.868 207.682 199.672 207.46 200.572 207.46C201.496 207.46 202.306 207.682 203.002 208.126C203.698 208.57 204.238 209.158 204.622 209.89C205.018 210.61 205.216 211.402 205.216 212.266C205.216 212.458 205.21 212.62 205.198 212.752H197.17C197.23 213.424 197.422 214.024 197.746 214.552C198.07 215.068 198.484 215.482 198.988 215.794C199.492 216.094 200.044 216.244 200.644 216.244C201.256 216.244 201.832 216.088 202.372 215.776C202.912 215.464 203.296 215.056 203.524 214.552L204.586 214.84C204.394 215.296 204.094 215.704 203.686 216.064C203.29 216.412 202.828 216.688 202.3 216.892C201.772 217.084 201.202 217.18 200.59 217.18ZM197.134 211.87H204.064C204.016 211.198 203.83 210.604 203.506 210.088C203.182 209.56 202.768 209.152 202.264 208.864C201.76 208.564 201.202 208.414 200.59 208.414C199.978 208.414 199.42 208.564 198.916 208.864C198.412 209.152 197.998 209.56 197.674 210.088C197.362 210.604 197.182 211.198 197.134 211.87ZM210.183 217.18C209.415 217.18 208.701 217.054 208.041 216.802C207.393 216.538 206.823 216.154 206.331 215.65L206.835 214.786C207.363 215.278 207.891 215.638 208.419 215.866C208.959 216.082 209.529 216.19 210.129 216.19C210.849 216.19 211.437 216.046 211.893 215.758C212.361 215.458 212.595 215.032 212.595 214.48C212.595 214.108 212.481 213.826 212.253 213.634C212.037 213.43 211.719 213.268 211.299 213.148C210.891 213.028 210.399 212.89 209.823 212.734C209.175 212.554 208.629 212.368 208.185 212.176C207.753 211.972 207.423 211.72 207.195 211.42C206.979 211.108 206.871 210.706 206.871 210.214C206.871 209.614 207.021 209.11 207.321 208.702C207.633 208.294 208.053 207.988 208.581 207.784C209.121 207.568 209.721 207.46 210.381 207.46C211.101 207.46 211.737 207.574 212.289 207.802C212.841 208.03 213.291 208.348 213.639 208.756L213.045 209.584C212.721 209.2 212.319 208.918 211.839 208.738C211.371 208.546 210.861 208.45 210.309 208.45C209.925 208.45 209.559 208.504 209.211 208.612C208.863 208.708 208.575 208.876 208.347 209.116C208.131 209.344 208.023 209.662 208.023 210.07C208.023 210.574 208.209 210.922 208.581 211.114C208.953 211.306 209.517 211.51 210.273 211.726C210.981 211.918 211.599 212.11 212.127 212.302C212.655 212.494 213.063 212.752 213.351 213.076C213.639 213.388 213.783 213.826 213.783 214.39C213.783 215.266 213.453 215.95 212.793 216.442C212.133 216.934 211.263 217.18 210.183 217.18ZM215.806 205.66V203.86H217.03V205.66H215.806ZM215.806 217V207.622H217.03V217H215.806ZM223.488 217.126C222.84 217.126 222.246 216.994 221.706 216.73C221.178 216.466 220.716 216.112 220.32 215.668C219.936 215.212 219.636 214.696 219.42 214.12C219.204 213.544 219.096 212.95 219.096 212.338C219.096 211.462 219.282 210.658 219.654 209.926C220.026 209.182 220.536 208.588 221.184 208.144C221.844 207.688 222.6 207.46 223.452 207.46C224.256 207.46 224.952 207.664 225.54 208.072C226.14 208.48 226.644 208.984 227.052 209.584V207.622H228.15V217.036C228.15 217.912 227.94 218.644 227.52 219.232C227.1 219.82 226.542 220.264 225.846 220.564C225.15 220.864 224.388 221.014 223.56 221.014C222.48 221.014 221.61 220.822 220.95 220.438C220.302 220.054 219.768 219.538 219.348 218.89L220.104 218.296C220.476 218.884 220.968 219.322 221.58 219.61C222.204 219.898 222.864 220.042 223.56 220.042C224.172 220.042 224.73 219.928 225.234 219.7C225.75 219.484 226.158 219.154 226.458 218.71C226.77 218.266 226.926 217.708 226.926 217.036V215.182C226.566 215.77 226.074 216.244 225.45 216.604C224.826 216.952 224.172 217.126 223.488 217.126ZM223.83 216.1C224.322 216.1 224.79 215.986 225.234 215.758C225.678 215.53 226.05 215.242 226.35 214.894C226.662 214.534 226.854 214.162 226.926 213.778V210.88C226.746 210.424 226.488 210.022 226.152 209.674C225.816 209.314 225.432 209.038 225 208.846C224.568 208.642 224.13 208.54 223.686 208.54C222.99 208.54 222.39 208.732 221.886 209.116C221.394 209.488 221.01 209.968 220.734 210.556C220.47 211.132 220.338 211.732 220.338 212.356C220.338 213.028 220.494 213.652 220.806 214.228C221.118 214.792 221.538 215.248 222.066 215.596C222.594 215.932 223.182 216.1 223.83 216.1ZM238.737 217H237.513V211.762C237.513 210.658 237.345 209.854 237.009 209.35C236.685 208.834 236.181 208.576 235.497 208.576C235.017 208.576 234.543 208.696 234.075 208.936C233.607 209.164 233.193 209.482 232.833 209.89C232.485 210.286 232.233 210.742 232.077 211.258V217H230.853V207.622H231.969V209.746C232.341 209.062 232.887 208.51 233.607 208.09C234.327 207.67 235.107 207.46 235.947 207.46C236.643 207.46 237.195 207.628 237.603 207.964C238.011 208.288 238.299 208.756 238.467 209.368C238.647 209.968 238.737 210.682 238.737 211.51V217ZM241.167 217V215.236H242.229V217H241.167Z" fill="black"/>
</g>
<defs>
<linearGradient id="paint0_linear" x1="-1.67125e-06" y1="13" x2="700" y2="300" gradientUnits="userSpaceOnUse">
<stop stop-color="#0CB9E4"/>
<stop offset="1" stop-color="#E055CC"/>
</linearGradient>
<clipPath id="clip0">
<rect width="700" height="300" fill="white"/>
</clipPath>
</defs>
</svg>
