<svg width="50" height="50" viewBox="0 0 50 50" fill="none" xmlns="http://www.w3.org/2000/svg">
<path d="M48.5417 15.2083C48.5417 14.7917 47.9167 11.4583 46.4583 10C44.5833 7.91667 42.5 7.70834 41.4583 7.70834H41.25C34.7917 7.29167 25.2083 7.29167 25 7.29167C25 7.29167 15.2083 7.29167 8.75 7.70834H8.54166C7.5 7.70834 5.41666 7.91667 3.54166 10C2.08333 11.6667 1.45833 15 1.45833 15.4167C1.45833 15.625 1.04166 19.375 1.04166 23.3333V26.875C1.04166 30.8333 1.45833 34.5833 1.45833 34.7917C1.45833 35.2083 2.08333 38.5417 3.54166 40C5.20833 41.875 7.29166 42.0833 8.54166 42.2917C8.75 42.2917 8.95833 42.2917 9.16666 42.2917C12.9167 42.7083 24.375 42.7083 24.7917 42.7083C24.7917 42.7083 34.5833 42.7083 41.0417 42.2917H41.25C42.2917 42.0833 44.375 41.875 46.25 40C47.7083 38.3333 48.3333 35 48.3333 34.5833C48.3333 34.375 48.75 30.625 48.75 26.6667V23.125C48.9583 19.375 48.5417 15.4167 48.5417 15.2083ZM33.125 25.4167L20.625 32.0833C20.4167 32.0833 20.4167 32.2917 20.2083 32.2917C20 32.2917 19.7917 32.2917 19.7917 32.0833C19.5833 31.875 19.375 31.6667 19.375 31.25V17.7083C19.375 17.2917 19.5833 17.0833 19.7917 16.875C20 16.6667 20.4167 16.6667 20.8333 16.875L33.3333 23.5417C33.75 23.75 33.9583 23.9583 33.9583 24.375C33.9583 24.7917 33.5417 25.2083 33.125 25.4167Z" fill="black"/>
</svg>
